SplineFontDB: 3.0
FontName: Pragati-Regular
FullName: Pragati Regular
FamilyName: Pragati
Weight: Regular
Copyright: Copyright (c) 2012-2015, Omnibus-Type (www.omnibus-type.com omnibus.type@gmail.com)
Version: 001.005
ItalicAngle: 0
UnderlinePosition: -50
UnderlineWidth: 50
Ascent: 800
Descent: 200
InvalidEm: 0
sfntRevision: 0x00010147
LayerCount: 2
Layer: 0 0 "Back" 1
Layer: 1 0 "Fore" 0
XUID: [1021 505 -982332716 7888946]
FSType: 0
OS2Version: 3
OS2_WeightWidthSlopeOnly: 0
OS2_UseTypoMetrics: 1
CreationTime: 1422321556
ModificationTime: 1422350690
PfmFamily: 17
TTFWeight: 400
TTFWidth: 5
LineGap: 0
VLineGap: 0
Panose: 2 11 5 6 2 2 2 2 11 4
OS2TypoAscent: 733
OS2TypoAOffset: 0
OS2TypoDescent: -267
OS2TypoDOffset: 0
OS2TypoLinegap: 0
OS2WinAscent: 733
OS2WinAOffset: 0
OS2WinDescent: 267
OS2WinDOffset: 0
HheadAscent: 733
HheadAOffset: 0
HheadDescent: -267
HheadDOffset: 0
OS2SubXSize: 428
OS2SubYSize: 395
OS2SubXOff: 0
OS2SubYOff: 49
OS2SupXSize: 428
OS2SupYSize: 395
OS2SupXOff: 0
OS2SupYOff: 230
OS2StrikeYSize: 50
OS2StrikeYPos: 183
OS2CapHeight: 0
OS2XHeight: 0
OS2Vendor: 'OMNI'
OS2CodePages: 20000093.00000000
OS2UnicodeRanges: 00008007.00000000.00000000.00000000
Lookup: 1 0 0 "'aalt' Access All Alternates lookup 0" { "'aalt' Access All Alternates lookup 0 subtable"  } ['aalt' ('DFLT' <'dflt' > 'dev2' <'MAR ' 'NEP ' 'dflt' > 'deva' <'MAR ' 'NEP ' 'dflt' > 'grek' <'dflt' > 'latn' <'CAT ' 'MOL ' 'ROM ' 'dflt' > ) ]
Lookup: 3 0 0 "'aalt' Access All Alternates lookup 1" { "'aalt' Access All Alternates lookup 1 subtable"  } ['aalt' ('DFLT' <'dflt' > 'dev2' <'MAR ' 'NEP ' 'dflt' > 'deva' <'MAR ' 'NEP ' 'dflt' > 'grek' <'dflt' > 'latn' <'CAT ' 'MOL ' 'ROM ' 'dflt' > ) ]
Lookup: 4 0 0 "Ligature Substitution lookup 2" { "Ligature Substitution lookup 2 subtable"  } []
Lookup: 4 0 0 "Ligature Substitution lookup 3" { "Ligature Substitution lookup 3 subtable"  } []

StartChar: .notdef
Encoding: 65536 -1 0
Width: 291
VWidth: 659
Flags: MW
HStem: 0 29<47 244 47 291> 379 29<47 244 47 47>
VStem: 0 29<55 353 55 408> 262 29<55 353 353 353>
LayerCount: 2
Back
Fore
SplineSet
0 0 m 1
 0 408 l 1
 291 408 l 1
 291 0 l 1
 0 0 l 1
146 230 m 1
 244 379 l 1
 47 379 l 1
 146 230 l 1
128 204 m 1
 29 353 l 1
 29 55 l 1
 128 204 l 1
262 55 m 1
 262 353 l 1
 163 204 l 1
 262 55 l 1
244 29 m 1
 146 178 l 1
 47 29 l 1
 244 29 l 1
EndSplineSet
EndChar

StartChar: A
Encoding: 65 65 2
Width: 319
VWidth: 659
GlyphClass: 2
Flags: MW
HStem: 0 136<-1 222 -1 222 92 319 92 264> 89 47<92 222 92 237 78 222> 358 41<156 156 156 158>
VStem: -1 320<0 0>
AnchorPoint: "Anchor-1" 0 0 basechar 0
AnchorPoint: "Anchor-0" 159 399 basechar 0
LayerCount: 2
Back
Fore
SplineSet
319 0 m 1xb0
 264 0 l 1xb0
 237 89 l 1
 78 89 l 1x70
 51 0 l 1
 -1 0 l 1
 127 399 l 1
 192 399 l 1
 319 0 l 1xb0
156 358 m 1
 156 358 151 326 147 314 c 2
 92 136 l 1
 222 136 l 1x70
 168 314 l 2
 163 327 158 358 158 358 c 1
 156 358 l 1
EndSplineSet
Substitution2: "Single Substitution lookup 42 subtable" ordfeminine
Substitution2: "'aalt' Access All Alternates lookup 0 subtable" ordfeminine
Position2: "'cpsp' Capital Spacing lookup 0 subtable" dx=5 dy=0 dh=10 dv=0
EndChar

StartChar: Aacute
Encoding: 193 193 3
Width: 319
VWidth: 659
GlyphClass: 2
Flags: MW
HStem: 0 136<-1 222 -1 222 92 319 92 264> 89 47<92 222 92 237 78 222> 358 41<156 156 156 158> 438 77<125 227 125 227>
VStem: -1 320<0 0>
LayerCount: 2
Back
Fore
SplineSet
228 513 m 1x78
 165 438 l 1
 125 438 l 1
 175 515 l 1
 227 515 l 1
 228 513 l 1x78
319 0 m 1xb8
 264 0 l 1xb8
 237 89 l 1
 78 89 l 1x78
 51 0 l 1
 -1 0 l 1
 127 399 l 1
 192 399 l 1
 319 0 l 1xb8
156 358 m 1
 156 358 151 326 147 314 c 2
 92 136 l 1
 222 136 l 1x78
 168 314 l 2
 163 327 158 358 158 358 c 1
 156 358 l 1
EndSplineSet
Position2: "'cpsp' Capital Spacing lookup 0 subtable" dx=5 dy=0 dh=10 dv=0
EndChar

StartChar: Abreve
Encoding: 258 258 4
Width: 319
VWidth: 659
GlyphClass: 2
Flags: MW
HStem: 0 136<-1 222 -1 222 92 319 92 264> 89 47<92 222 92 237 78 222> 358 41<156 156 156 158> 458 57<88 181.5>
VStem: -1 320<0 0>
LayerCount: 2
Back
Fore
SplineSet
231 515 m 1x78
 231 488 204 458 159 458 c 0
 115 458 88 488 88 515 c 1
 125 515 l 1
 127 506 140 495 159 495 c 0
 179 495 193 506 194 515 c 1
 231 515 l 1x78
319 0 m 1xb8
 264 0 l 1xb8
 237 89 l 1
 78 89 l 1x78
 51 0 l 1
 -1 0 l 1
 127 399 l 1
 192 399 l 1
 319 0 l 1xb8
156 358 m 1
 156 358 151 326 147 314 c 2
 92 136 l 1
 222 136 l 1x78
 168 314 l 2
 163 327 158 358 158 358 c 1
 156 358 l 1
EndSplineSet
Position2: "'cpsp' Capital Spacing lookup 0 subtable" dx=5 dy=0 dh=10 dv=0
EndChar

StartChar: Acircumflex
Encoding: 194 194 5
Width: 319
VWidth: 659
GlyphClass: 2
Flags: MW
HStem: 0 136<-1 222 -1 222 92 319 92 264> 89 47<92 222 92 237 78 222> 358 41<156 156 156 158> 435 79<87 183 87 183 137 232 137 185>
VStem: -1 320<0 0>
LayerCount: 2
Back
Fore
SplineSet
232 435 m 1x78
 185 435 l 1
 159 481 l 1
 133 435 l 1
 87 435 l 1
 137 514 l 1
 183 514 l 1
 232 435 l 1x78
319 0 m 1xb8
 264 0 l 1xb8
 237 89 l 1
 78 89 l 1x78
 51 0 l 1
 -1 0 l 1
 127 399 l 1
 192 399 l 1
 319 0 l 1xb8
156 358 m 1
 156 358 151 326 147 314 c 2
 92 136 l 1
 222 136 l 1x78
 168 314 l 2
 163 327 158 358 158 358 c 1
 156 358 l 1
EndSplineSet
Position2: "'cpsp' Capital Spacing lookup 0 subtable" dx=5 dy=0 dh=10 dv=0
EndChar

StartChar: Adieresis
Encoding: 196 196 6
Width: 319
VWidth: 659
GlyphClass: 2
Flags: MW
HStem: 0 136<-1 222 -1 222 92 319 92 264> 89 47<92 222 92 237 78 222> 358 41<156 156 156 158> 459 56<90 141 90 141 90 178 178 229>
VStem: 90 51<459 515> 178 51<459 515>
LayerCount: 2
Back
Fore
SplineSet
141 459 m 1x7c
 90 459 l 1
 90 515 l 1
 141 515 l 1
 141 459 l 1x7c
229 459 m 1
 178 459 l 1
 178 515 l 1
 229 515 l 1
 229 459 l 1
319 0 m 1xbc
 264 0 l 1xbc
 237 89 l 1
 78 89 l 1x7c
 51 0 l 1
 -1 0 l 1
 127 399 l 1
 192 399 l 1
 319 0 l 1xbc
156 358 m 1
 156 358 151 326 147 314 c 2
 92 136 l 1
 222 136 l 1x7c
 168 314 l 2
 163 327 158 358 158 358 c 1
 156 358 l 1
EndSplineSet
Position2: "'cpsp' Capital Spacing lookup 0 subtable" dx=5 dy=0 dh=10 dv=0
EndChar

StartChar: Agrave
Encoding: 192 192 7
Width: 319
VWidth: 659
GlyphClass: 2
Flags: MW
HStem: 0 136<-1 222 -1 222 92 319 92 264> 89 47<92 222 92 237 78 222> 358 41<156 156 156 158> 438 77<92 194 92 154>
VStem: -1 320<0 0>
LayerCount: 2
Back
Fore
SplineSet
194 438 m 1x78
 154 438 l 1
 91 513 l 1
 92 515 l 1
 144 515 l 1
 194 438 l 1x78
319 0 m 1xb8
 264 0 l 1xb8
 237 89 l 1
 78 89 l 1x78
 51 0 l 1
 -1 0 l 1
 127 399 l 1
 192 399 l 1
 319 0 l 1xb8
156 358 m 1
 156 358 151 326 147 314 c 2
 92 136 l 1
 222 136 l 1x78
 168 314 l 2
 163 327 158 358 158 358 c 1
 156 358 l 1
EndSplineSet
Position2: "'cpsp' Capital Spacing lookup 0 subtable" dx=5 dy=0 dh=10 dv=0
EndChar

StartChar: Amacron
Encoding: 256 256 8
Width: 319
VWidth: 659
GlyphClass: 2
Flags: MW
HStem: 0 136<-1 222 -1 222 92 319 92 264> 89 47<92 222 92 237 78 222> 358 41<156 156 156 158> 442 42<86 233 86 233>
VStem: 86 147<442 484 442 484>
LayerCount: 2
Back
Fore
SplineSet
233 442 m 1x78
 86 442 l 1
 86 484 l 1
 233 484 l 1
 233 442 l 1x78
319 0 m 1xb8
 264 0 l 1xb8
 237 89 l 1
 78 89 l 1x78
 51 0 l 1
 -1 0 l 1
 127 399 l 1
 192 399 l 1
 319 0 l 1xb8
156 358 m 1
 156 358 151 326 147 314 c 2
 92 136 l 1
 222 136 l 1x78
 168 314 l 2
 163 327 158 358 158 358 c 1
 156 358 l 1
EndSplineSet
Position2: "'cpsp' Capital Spacing lookup 0 subtable" dx=5 dy=0 dh=10 dv=0
EndChar

StartChar: Aogonek
Encoding: 260 260 9
Width: 319
VWidth: 659
GlyphClass: 2
Flags: MW
HStem: -106 38<301.5 350> 0 136<-1 222 -1 222 92 283 92 264 92 319> 89 47<92 222 92 237 78 222> 358 41<156 158 156 156>
VStem: 260 45<-73.5 -28.5>
LayerCount: 2
Back
Fore
SplineSet
332 -68 m 2xb8
 350 -68 l 1
 350 -98 l 1
 338 -103 326 -106 314 -106 c 0
 289 -106 260 -94 260 -53 c 0
 260 -29 270 -16 281 -3 c 0
 281 -2 282 -1 283 0 c 2
 264 0 l 1xd8
 237 89 l 1
 78 89 l 1xb8
 51 0 l 1
 -1 0 l 1
 127 399 l 1
 192 399 l 1
 319 0 l 1
 319 0 318 -1 318 -1 c 2xd8
 312 -10 305 -21 305 -36 c 0
 305 -39 305 -42 306 -45 c 0
 308 -58 316 -68 332 -68 c 2xb8
92 136 m 1xb8
 222 136 l 1
 168 314 l 2
 163 327 158 358 158 358 c 1
 156 358 l 1
 156 358 151 326 147 314 c 2
 92 136 l 1xb8
EndSplineSet
Position2: "'cpsp' Capital Spacing lookup 0 subtable" dx=5 dy=0 dh=10 dv=0
EndChar

StartChar: Aring
Encoding: 197 197 10
Width: 319
VWidth: 659
GlyphClass: 2
Flags: MW
HStem: 0 136<-1 222 -1 222 92 319 92 264> 89 47<92 222 92 237 78 222> 358 41<156 156 156 158> 421 26<151 167 151 174.5> 507 26<151 167>
VStem: 103 26<469 485.5 469 492.5> 188 27<469 485.5>
LayerCount: 2
Back
Fore
SplineSet
159 533 m 0x6e
 191 533 215 507 215 477 c 0
 215 446 190 421 159 421 c 0x7e
 129 421 103 445 103 477 c 0
 103 508 128 533 159 533 c 0x6e
159 507 m 0
 143 507 129 494 129 477 c 0
 129 461 143 447 159 447 c 0x7e
 175 447 188 461 188 477 c 0
 188 494 175 507 159 507 c 0
319 0 m 1xae
 264 0 l 1xae
 237 89 l 1
 78 89 l 1x6e
 51 0 l 1
 -1 0 l 1
 127 399 l 1
 192 399 l 1
 319 0 l 1xae
156 358 m 1
 156 358 151 326 147 314 c 2
 92 136 l 1
 222 136 l 1x6e
 168 314 l 2
 163 327 158 358 158 358 c 1
 156 358 l 1
EndSplineSet
Position2: "'cpsp' Capital Spacing lookup 0 subtable" dx=5 dy=0 dh=10 dv=0
EndChar

StartChar: Aringacute
Encoding: 506 506 11
Width: 319
VWidth: 659
GlyphClass: 2
Flags: MW
HStem: 0 136<-1 222 -1 222 92 319 92 264> 89 47<92 222 92 237 78 222> 358 38<156 156 156 158> 453 25<151 167> 494 64<142 235 142 235>
VStem: 103 27<416.5 432 416.5 439.5> 189 26<416.5 432>
LayerCount: 2
Back
Fore
SplineSet
182 494 m 1x5e
 142 494 l 1
 183 558 l 1
 235 558 l 1
 236 555 l 1
 182 494 l 1x5e
159 478 m 0x96
 191 478 215 454 215 424 c 0
 215 409 208 394 197 384 c 1
 319 0 l 1
 264 0 l 1x96
 237 89 l 1
 78 89 l 1x56
 51 0 l 1
 -1 0 l 1
 122 385 l 1
 111 394 103 409 103 424 c 0
 103 455 129 478 159 478 c 0x96
159 453 m 0
 143 453 130 440 130 424 c 0
 130 409 143 396 159 396 c 0x76
 175 396 189 409 189 424 c 0
 189 440 175 453 159 453 c 0
156 358 m 1x76
 156 358 151 326 147 314 c 2
 92 136 l 1
 222 136 l 1
 168 314 l 2
 163 327 158 358 158 358 c 1
 156 358 l 1x76
EndSplineSet
Position2: "'cpsp' Capital Spacing lookup 0 subtable" dx=5 dy=0 dh=10 dv=0
EndChar

StartChar: Atilde
Encoding: 195 195 12
Width: 319
VWidth: 659
GlyphClass: 2
Flags: MW
HStem: 0 136<-1 222 -1 222 92 319 92 264> 89 47<92 222 92 237 78 222> 358 41<156 156 156 158> 454 43<187.5 195.5 184.5 212> 472 43<122.5 129.5 105.5 133.5>
VStem: -1 320<0 0>
LayerCount: 2
Back
Fore
SplineSet
244 515 m 1x6c
 244 488 230 454 194 454 c 0x74
 181 454 170 459 159 463 c 0
 149 468 139 472 128 472 c 0x6c
 117 472 109 467 108 454 c 1
 74 454 l 1x74
 74 480 88 515 123 515 c 0x6c
 136 515 147 510 159 506 c 0
 169 501 179 497 190 497 c 0x74
 201 497 208 501 210 515 c 1
 244 515 l 1x6c
319 0 m 1xb4
 264 0 l 1xb4
 237 89 l 1
 78 89 l 1x74
 51 0 l 1
 -1 0 l 1
 127 399 l 1
 192 399 l 1
 319 0 l 1xb4
156 358 m 1
 156 358 151 326 147 314 c 2
 92 136 l 1
 222 136 l 1x74
 168 314 l 2
 163 327 158 358 158 358 c 1
 156 358 l 1
EndSplineSet
Position2: "'cpsp' Capital Spacing lookup 0 subtable" dx=5 dy=0 dh=10 dv=0
EndChar

StartChar: AE
Encoding: 198 198 13
Width: 478
VWidth: 659
GlyphClass: 2
Flags: MW
HStem: 0 47<308 456 308 456 264 456> 89 47<103 234 103 244 85 234> 181 47<278 427 278 278> 353 46<186 186 186 188 239 453 239 239>
VStem: -1 457<0 47>
AnchorPoint: "Anchor-1" 0 0 basechar 0
AnchorPoint: "Anchor-0" 239 399 basechar 0
LayerCount: 2
Back
Fore
SplineSet
453 353 m 1
 239 353 l 1
 268 228 l 1
 427 228 l 1
 427 181 l 1
 278 181 l 1
 308 47 l 1
 456 47 l 1
 456 0 l 1
 264 0 l 1
 244 89 l 1
 85 89 l 1
 51 0 l 1
 -1 0 l 1
 163 399 l 1
 453 399 l 1
 453 353 l 1
186 353 m 2
 185 351 185 349 184 348 c 0
 181 337 178 327 173 316 c 2
 103 136 l 1
 234 136 l 1
 194 316 l 1
 188 353 l 1
 186 353 l 2
EndSplineSet
Position2: "'cpsp' Capital Spacing lookup 0 subtable" dx=5 dy=0 dh=10 dv=0
EndChar

StartChar: AEacute
Encoding: 508 508 14
Width: 478
VWidth: 659
GlyphClass: 2
Flags: MW
HStem: 0 47<308 456 308 456 264 456> 89 47<103 234 103 244 85 234> 181 47<278 427 278 278> 353 46<186 186 186 188 239 453 239 239> 353 162<186 364 186 364 311 364 311 453 239 364>
VStem: -1 457<0 47>
LayerCount: 2
Back
Fore
SplineSet
364 513 m 1xec
 301 438 l 1
 261 438 l 1
 311 515 l 1
 364 515 l 1
 364 513 l 1xec
453 353 m 1xf4
 239 353 l 1
 268 228 l 1
 427 228 l 1
 427 181 l 1
 278 181 l 1
 308 47 l 1
 456 47 l 1
 456 0 l 1
 264 0 l 1
 244 89 l 1
 85 89 l 1
 51 0 l 1
 -1 0 l 1
 163 399 l 1
 453 399 l 1
 453 353 l 1xf4
186 353 m 2
 185 351 185 349 184 348 c 0
 181 337 178 327 173 316 c 2
 103 136 l 1
 234 136 l 1
 194 316 l 1
 188 353 l 1
 186 353 l 2
EndSplineSet
Position2: "'cpsp' Capital Spacing lookup 0 subtable" dx=5 dy=0 dh=10 dv=0
EndChar

StartChar: B
Encoding: 66 66 15
Width: 319
VWidth: 659
GlyphClass: 2
Flags: MW
HStem: 0 47<89 183 183 189> 181 47<89 174 174 179 89 174> 353 46<89 178 89 89>
VStem: 38 51<47 47 47 181 228 353> 239 54<279 312> 248 54<91.5 131>
LayerCount: 2
Back
Fore
SplineSet
189 399 m 2xf8
 248 399 293 360 293 302 c 0xf8
 293 256 266 222 231 210 c 1
 231 208 l 1
 271 195 302 158 302 106 c 0xf4
 302 39 250 0 189 0 c 2
 38 0 l 1
 38 399 l 1
 189 399 l 2xf8
89 228 m 1
 174 228 l 2
 214 228 239 257 239 291 c 0
 239 333 214 353 178 353 c 2
 89 353 l 1
 89 228 l 1
89 47 m 1
 183 47 l 2
 220 47 248 70 248 113 c 0
 248 149 221 181 179 181 c 2xf4
 89 181 l 1
 89 47 l 1
EndSplineSet
Position2: "'cpsp' Capital Spacing lookup 0 subtable" dx=5 dy=0 dh=10 dv=0
EndChar

StartChar: C
Encoding: 67 67 16
Width: 345
VWidth: 659
GlyphClass: 2
Flags: MW
HStem: -7 47<147 208.5 147 223> 359 48<147 208>
VStem: 24 54<136.5 185 185 214 136.5 269.5> 270 51<108.5 143>
AnchorPoint: "Anchor-1" 173 0 basechar 0
AnchorPoint: "Anchor-0" 173 399 basechar 0
LayerCount: 2
Back
Fore
SplineSet
182 407 m 0
 264 407 321 357 321 255 c 1
 269 255 l 1
 269 325 234 359 182 359 c 0
 112 359 78 312 78 214 c 2
 78 185 l 2
 78 88 112 40 182 40 c 0
 235 40 270 74 270 143 c 1
 321 143 l 1
 321 40 264 -7 182 -7 c 0
 78 -7 24 61 24 200 c 0
 24 339 78 407 182 407 c 0
EndSplineSet
Position2: "'cpsp' Capital Spacing lookup 0 subtable" dx=5 dy=0 dh=10 dv=0
EndChar

StartChar: Cacute
Encoding: 262 262 17
Width: 345
VWidth: 659
GlyphClass: 2
Flags: MW
HStem: -7 47<147 208.5 147 223> 359 48<147 208> 438 77<146 248 146 248>
VStem: 24 54<136.5 185 185 214 136.5 269.5> 270 51<108.5 143>
LayerCount: 2
Back
Fore
SplineSet
249 513 m 1
 186 438 l 1
 146 438 l 1
 196 515 l 1
 248 515 l 1
 249 513 l 1
182 407 m 0
 264 407 321 357 321 255 c 1
 269 255 l 1
 269 325 234 359 182 359 c 0
 112 359 78 312 78 214 c 2
 78 185 l 2
 78 88 112 40 182 40 c 0
 235 40 270 74 270 143 c 1
 321 143 l 1
 321 40 264 -7 182 -7 c 0
 78 -7 24 61 24 200 c 0
 24 339 78 407 182 407 c 0
EndSplineSet
Position2: "'cpsp' Capital Spacing lookup 0 subtable" dx=5 dy=0 dh=10 dv=0
EndChar

StartChar: Ccaron
Encoding: 268 268 18
Width: 345
VWidth: 659
GlyphClass: 2
Flags: MW
HStem: -7 47<147 208.5 147 223> 359 48<147 208> 436 79<100 149 100 194>
VStem: 24 54<136.5 185 185 214 136.5 269.5> 270 51<108.5 143>
LayerCount: 2
Back
Fore
SplineSet
149 436 m 1
 100 515 l 1
 146 515 l 1
 173 469 l 1
 198 515 l 1
 245 515 l 1
 194 436 l 1
 149 436 l 1
182 407 m 0xd8
 264 407 321 357 321 255 c 1
 269 255 l 1
 269 325 234 359 182 359 c 0
 112 359 78 312 78 214 c 2
 78 185 l 2
 78 88 112 40 182 40 c 0
 235 40 270 74 270 143 c 1
 321 143 l 1
 321 40 264 -7 182 -7 c 0
 78 -7 24 61 24 200 c 0
 24 339 78 407 182 407 c 0xd8
EndSplineSet
Position2: "'cpsp' Capital Spacing lookup 0 subtable" dx=5 dy=0 dh=10 dv=0
EndChar

StartChar: Ccedilla
Encoding: 199 199 19
Width: 345
VWidth: 659
GlyphClass: 2
Flags: MW
HStem: -106 33<158.5 162 162 168.5 118 178.5> -45 24<144 180> -7 47<182 208.5 147 223> 359 48<147 208>
VStem: 24 54<138 185 185 214 136.5 269.5> 147 34 183 44<-64.5 -54> 270 51<108.5 143>
LayerCount: 2
Back
Fore
SplineSet
182 407 m 0
 264 407 321 357 321 255 c 1
 269 255 l 1
 269 325 234 359 182 359 c 0
 112 359 78 312 78 214 c 2
 78 185 l 2
 78 88 112 40 182 40 c 0
 235 40 270 74 270 143 c 1
 321 143 l 1
 321 40 264 -7 182 -7 c 1xbd
 180 -21 l 1xfb
 205 -22 227 -32 227 -59 c 0
 227 -98 190 -106 167 -106 c 0xbb
 150 -106 132 -104 118 -101 c 1
 118 -73 l 1xbd
 162 -73 l 2xbb
 175 -73 183 -70 183 -59 c 0
 183 -49 179 -45 163 -45 c 2xfb
 144 -45 l 1xfd
 150 -5 l 1
 67 8 24 76 24 200 c 0
 24 339 78 407 182 407 c 0
EndSplineSet
Position2: "'cpsp' Capital Spacing lookup 0 subtable" dx=5 dy=0 dh=10 dv=0
EndChar

StartChar: Ccircumflex
Encoding: 264 264 20
Width: 345
VWidth: 659
GlyphClass: 2
Flags: MW
HStem: -7 47<147 208.5 147 223> 359 48<147 208> 435 79<100 195 100 195 150 245 150 198>
VStem: 24 54<136.5 185 185 214 136.5 269.5> 270 51<108.5 143>
LayerCount: 2
Back
Fore
SplineSet
198 435 m 1
 173 481 l 1
 146 435 l 1
 100 435 l 1
 150 514 l 1
 195 514 l 1
 245 435 l 1
 198 435 l 1
182 407 m 0xd8
 264 407 321 357 321 255 c 1
 269 255 l 1
 269 325 234 359 182 359 c 0
 112 359 78 312 78 214 c 2
 78 185 l 2
 78 88 112 40 182 40 c 0
 235 40 270 74 270 143 c 1
 321 143 l 1
 321 40 264 -7 182 -7 c 0
 78 -7 24 61 24 200 c 0
 24 339 78 407 182 407 c 0xd8
EndSplineSet
Position2: "'cpsp' Capital Spacing lookup 0 subtable" dx=5 dy=0 dh=10 dv=0
EndChar

StartChar: Cdotaccent
Encoding: 266 266 21
Width: 345
VWidth: 659
GlyphClass: 2
Flags: MW
HStem: -7 47<147 208.5 147 223> 359 48<147 208> 459 56<147 198 147 198>
VStem: 24 54<136.5 185 185 214 136.5 269.5> 147 51<459 515 459 515> 270 51<108.5 143>
LayerCount: 2
Back
Fore
SplineSet
147 459 m 1
 147 515 l 1
 198 515 l 1
 198 459 l 1
 147 459 l 1
182 407 m 0
 264 407 321 357 321 255 c 1
 269 255 l 1
 269 325 234 359 182 359 c 0
 112 359 78 312 78 214 c 2
 78 185 l 2
 78 88 112 40 182 40 c 0
 235 40 270 74 270 143 c 1
 321 143 l 1
 321 40 264 -7 182 -7 c 0
 78 -7 24 61 24 200 c 0
 24 339 78 407 182 407 c 0
EndSplineSet
Position2: "'cpsp' Capital Spacing lookup 0 subtable" dx=5 dy=0 dh=10 dv=0
EndChar

StartChar: D
Encoding: 68 68 22
Width: 345
VWidth: 659
GlyphClass: 2
Flags: MW
HStem: 0 47<92 160 160 165> 353 46<92 160 92 92>
VStem: 41 51<47 47 47 353> 263 53<191 220 220 264.5>
AnchorPoint: "Anchor-1" 0 0 basechar 0
AnchorPoint: "Anchor-0" 173 399 basechar 0
LayerCount: 2
Back
Fore
SplineSet
41 399 m 1
 165 399 l 2
 259 399 316 334 316 206 c 0
 316 69 259 0 165 0 c 2
 41 0 l 1
 41 399 l 1
92 47 m 1
 160 47 l 2
 223 47 263 94 263 191 c 2
 263 220 l 2
 263 309 223 353 160 353 c 2
 92 353 l 1
 92 47 l 1
EndSplineSet
Position2: "'cpsp' Capital Spacing lookup 0 subtable" dx=5 dy=0 dh=10 dv=0
EndChar

StartChar: Eth
Encoding: 208 208 23
Width: 345
VWidth: 659
GlyphClass: 2
Flags: MW
HStem: 0 47<92 160 160 165> 188 37<3 41 3 41 92 183> 353 46<92 160 92 92>
VStem: 41 51<47 188 47 188 47 188 225 353> 263 53<191 220 220 264.5>
LayerCount: 2
Back
Fore
SplineSet
41 225 m 1
 41 399 l 1
 165 399 l 2
 259 399 316 334 316 206 c 0
 316 69 259 0 165 0 c 2
 41 0 l 1
 41 188 l 1
 3 188 l 1
 3 225 l 1
 41 225 l 1
92 225 m 1
 183 225 l 1
 183 188 l 1
 92 188 l 1
 92 47 l 1
 160 47 l 2
 223 47 263 94 263 191 c 2
 263 220 l 2
 263 309 223 353 160 353 c 2
 92 353 l 1
 92 225 l 1
EndSplineSet
Position2: "'cpsp' Capital Spacing lookup 0 subtable" dx=5 dy=0 dh=10 dv=0
EndChar

StartChar: Dcaron
Encoding: 270 270 24
Width: 345
VWidth: 659
GlyphClass: 2
Flags: MW
HStem: 0 47<92 160 160 165> 353 46<92 160 92 92> 436 79<100 149 100 194>
VStem: 41 51<47 47 47 353> 263 53<191 220 220 264.5>
LayerCount: 2
Back
Fore
SplineSet
149 436 m 1
 100 515 l 1
 146 515 l 1
 173 469 l 1
 198 515 l 1
 245 515 l 1
 194 436 l 1
 149 436 l 1
41 399 m 1
 165 399 l 2
 259 399 316 334 316 206 c 0
 316 69 259 0 165 0 c 2
 41 0 l 1
 41 399 l 1
92 47 m 1
 160 47 l 2
 223 47 263 94 263 191 c 2
 263 220 l 2
 263 309 223 353 160 353 c 2
 92 353 l 1
 92 47 l 1
EndSplineSet
Position2: "'cpsp' Capital Spacing lookup 0 subtable" dx=5 dy=0 dh=10 dv=0
EndChar

StartChar: Dcroat
Encoding: 272 272 25
Width: 345
VWidth: 659
GlyphClass: 2
Flags: MW
HStem: 0 47<92 160 160 165> 188 37<3 41 3 41 92 183> 353 46<92 160 92 92>
VStem: 41 51<47 188 47 188 47 188 225 353> 263 53<191 220 220 264.5>
LayerCount: 2
Back
Fore
SplineSet
41 225 m 1
 41 399 l 1
 165 399 l 2
 259 399 316 334 316 206 c 0
 316 69 259 0 165 0 c 2
 41 0 l 1
 41 188 l 1
 3 188 l 1
 3 225 l 1
 41 225 l 1
92 225 m 1
 183 225 l 1
 183 188 l 1
 92 188 l 1
 92 47 l 1
 160 47 l 2
 223 47 263 94 263 191 c 2
 263 220 l 2
 263 309 223 353 160 353 c 2
 92 353 l 1
 92 225 l 1
EndSplineSet
Position2: "'cpsp' Capital Spacing lookup 0 subtable" dx=5 dy=0 dh=10 dv=0
EndChar

StartChar: E
Encoding: 69 69 26
Width: 319
VWidth: 659
GlyphClass: 2
Flags: MW
HStem: 0 47<92 291 92 291> 181 47<92 262 92 262> 353 46<92 287 92 92>
VStem: 41 51<47 181 228 353>
AnchorPoint: "Anchor-1" 159 0 basechar 0
AnchorPoint: "Anchor-0" 159 399 basechar 0
LayerCount: 2
Back
Fore
SplineSet
41 399 m 1
 287 399 l 1
 287 353 l 1
 92 353 l 1
 92 228 l 1
 262 228 l 1
 262 181 l 1
 92 181 l 1
 92 47 l 1
 291 47 l 1
 291 0 l 1
 41 0 l 1
 41 399 l 1
EndSplineSet
Position2: "'cpsp' Capital Spacing lookup 0 subtable" dx=5 dy=0 dh=10 dv=0
EndChar

StartChar: Eacute
Encoding: 201 201 27
Width: 319
VWidth: 659
GlyphClass: 2
Flags: MW
HStem: 0 47<92 291 92 291> 181 47<92 262 92 262> 353 46<92 287 92 92> 353 162<175 227 175 287 92 227>
VStem: 41 51<47 181 228 353>
LayerCount: 2
Back
Fore
SplineSet
228 513 m 1xd8
 165 438 l 1
 125 438 l 1
 175 515 l 1
 227 515 l 1
 228 513 l 1xd8
287 353 m 1xe8
 92 353 l 1
 92 228 l 1
 262 228 l 1
 262 181 l 1
 92 181 l 1
 92 47 l 1
 291 47 l 1
 291 0 l 1
 41 0 l 1
 41 399 l 1
 287 399 l 1
 287 353 l 1xe8
EndSplineSet
Position2: "'cpsp' Capital Spacing lookup 0 subtable" dx=5 dy=0 dh=10 dv=0
EndChar

StartChar: Ebreve
Encoding: 276 276 28
Width: 319
VWidth: 659
GlyphClass: 2
Flags: MW
HStem: 0 47<92 291 92 291> 181 47<92 262 92 262> 353 46<92 287 92 92> 458 57<88 181.5>
VStem: 41 51<47 181 228 353>
LayerCount: 2
Back
Fore
SplineSet
231 515 m 1
 231 488 204 458 159 458 c 0
 115 458 88 488 88 515 c 1
 125 515 l 1
 127 506 140 495 159 495 c 0
 179 495 193 506 194 515 c 1
 231 515 l 1
41 399 m 1
 287 399 l 1
 287 353 l 1
 92 353 l 1
 92 228 l 1
 262 228 l 1
 262 181 l 1
 92 181 l 1
 92 47 l 1
 291 47 l 1
 291 0 l 1
 41 0 l 1
 41 399 l 1
EndSplineSet
Position2: "'cpsp' Capital Spacing lookup 0 subtable" dx=5 dy=0 dh=10 dv=0
EndChar

StartChar: Ecaron
Encoding: 282 282 29
Width: 319
VWidth: 659
GlyphClass: 2
Flags: MW
HStem: 0 47<92 291 92 291> 181 47<92 262 92 262> 353 46<92 287 92 92> 353 162<92 133 185 232 87 287 92 92>
VStem: 41 51<47 181 228 353>
LayerCount: 2
Back
Fore
SplineSet
136 436 m 1xd8
 87 515 l 1
 133 515 l 1
 159 469 l 1
 185 515 l 1
 232 515 l 1
 182 436 l 1
 136 436 l 1xd8
41 399 m 1xe8
 287 399 l 1
 287 353 l 1
 92 353 l 1
 92 228 l 1
 262 228 l 1
 262 181 l 1
 92 181 l 1
 92 47 l 1
 291 47 l 1
 291 0 l 1
 41 0 l 1
 41 399 l 1xe8
EndSplineSet
Position2: "'cpsp' Capital Spacing lookup 0 subtable" dx=5 dy=0 dh=10 dv=0
EndChar

StartChar: Ecircumflex
Encoding: 202 202 30
Width: 319
VWidth: 659
GlyphClass: 2
Flags: MW
HStem: 0 47<92 291 92 291> 181 47<92 262 92 262> 353 46<92 287 92 92> 435 79<87 183 87 183 137 232 137 185>
VStem: 41 51<47 181 228 353>
LayerCount: 2
Back
Fore
SplineSet
185 435 m 1
 159 481 l 1
 133 435 l 1
 87 435 l 1
 137 514 l 1
 183 514 l 1
 232 435 l 1
 185 435 l 1
41 399 m 1
 287 399 l 1
 287 353 l 1
 92 353 l 1
 92 228 l 1
 262 228 l 1
 262 181 l 1
 92 181 l 1
 92 47 l 1
 291 47 l 1
 291 0 l 1
 41 0 l 1
 41 399 l 1
EndSplineSet
Position2: "'cpsp' Capital Spacing lookup 0 subtable" dx=5 dy=0 dh=10 dv=0
EndChar

StartChar: Edieresis
Encoding: 203 203 31
Width: 319
VWidth: 659
GlyphClass: 2
Flags: MW
HStem: 0 47<92 291 92 291> 181 47<92 262 92 262> 353 46<92 287 92 92> 459 56<90 141 90 141 90 178 178 229>
VStem: 41 51<47 181 228 353> 90 51<459 515> 178 51<459 515>
LayerCount: 2
Back
Fore
SplineSet
141 459 m 1xf6
 90 459 l 1
 90 515 l 1
 141 515 l 1
 141 459 l 1xf6
229 459 m 1
 178 459 l 1
 178 515 l 1
 229 515 l 1
 229 459 l 1
287 353 m 1
 92 353 l 1
 92 228 l 1
 262 228 l 1
 262 181 l 1
 92 181 l 1
 92 47 l 1
 291 47 l 1
 291 0 l 1
 41 0 l 1
 41 399 l 1xfa
 287 399 l 1
 287 353 l 1
EndSplineSet
Position2: "'cpsp' Capital Spacing lookup 0 subtable" dx=5 dy=0 dh=10 dv=0
EndChar

StartChar: Edotaccent
Encoding: 278 278 32
Width: 319
VWidth: 659
GlyphClass: 2
Flags: MW
HStem: 0 47<92 291 92 291> 181 47<92 262 92 262> 353 46<92 287 92 92> 459 56<134 185 134 185>
VStem: 41 51<47 181 228 353> 134 51<459 515 459 515>
LayerCount: 2
Back
Fore
SplineSet
134 459 m 1
 134 515 l 1
 185 515 l 1
 185 459 l 1
 134 459 l 1
41 399 m 1
 287 399 l 1
 287 353 l 1
 92 353 l 1
 92 228 l 1
 262 228 l 1
 262 181 l 1
 92 181 l 1
 92 47 l 1
 291 47 l 1
 291 0 l 1
 41 0 l 1
 41 399 l 1
EndSplineSet
Position2: "'cpsp' Capital Spacing lookup 0 subtable" dx=5 dy=0 dh=10 dv=0
EndChar

StartChar: Egrave
Encoding: 200 200 33
Width: 319
VWidth: 659
GlyphClass: 2
Flags: MW
HStem: 0 47<92 291 92 291> 181 47<92 262 92 262> 353 46<92 287 92 92> 353 162<92 144 92 287 92 144>
VStem: 41 51<47 181 228 353>
LayerCount: 2
Back
Fore
SplineSet
194 438 m 1xd8
 154 438 l 1
 91 513 l 1
 92 515 l 1
 144 515 l 1
 194 438 l 1xd8
287 353 m 1xe8
 92 353 l 1
 92 228 l 1
 262 228 l 1
 262 181 l 1
 92 181 l 1
 92 47 l 1
 291 47 l 1
 291 0 l 1
 41 0 l 1
 41 399 l 1
 287 399 l 1
 287 353 l 1xe8
EndSplineSet
Position2: "'cpsp' Capital Spacing lookup 0 subtable" dx=5 dy=0 dh=10 dv=0
EndChar

StartChar: Emacron
Encoding: 274 274 34
Width: 319
VWidth: 659
GlyphClass: 2
Flags: MW
HStem: 0 47<92 291 92 291> 181 47<92 262 92 262> 353 46<92 287 92 92> 442 42<86 233 86 233>
VStem: 41 51<47 181 228 353> 86 147<442 484 442 484>
LayerCount: 2
Back
Fore
SplineSet
86 442 m 1xf4
 86 484 l 1
 233 484 l 1
 233 442 l 1
 86 442 l 1xf4
41 399 m 1xf8
 287 399 l 1
 287 353 l 1
 92 353 l 1
 92 228 l 1
 262 228 l 1
 262 181 l 1
 92 181 l 1
 92 47 l 1
 291 47 l 1
 291 0 l 1
 41 0 l 1
 41 399 l 1xf8
EndSplineSet
Position2: "'cpsp' Capital Spacing lookup 0 subtable" dx=5 dy=0 dh=10 dv=0
EndChar

StartChar: Eogonek
Encoding: 280 280 35
Width: 319
VWidth: 659
GlyphClass: 2
Flags: MW
HStem: -106 38<273.5 322> 0 47<92 253 92 291> 181 47<92 262 92 262> 353 46<92 92 92 287>
VStem: 41 51<47 181 228 353> 231 46<-44.5 -41> 253 38<0 47>
LayerCount: 2
Back
Fore
SplineSet
92 353 m 1x7a
 92 228 l 1
 262 228 l 1
 262 181 l 1
 92 181 l 1
 92 47 l 1
 291 47 l 1
 291 0 l 1
 284 -9 277 -22 277 -36 c 0
 277 -53 284 -68 304 -68 c 2
 322 -68 l 1
 322 -98 l 1
 309 -103 298 -106 286 -106 c 0
 261 -106 231 -94 231 -53 c 0xfc
 231 -29 241 -13 253 0 c 1
 41 0 l 1
 41 399 l 1
 287 399 l 1
 287 353 l 1
 92 353 l 1x7a
EndSplineSet
Position2: "'cpsp' Capital Spacing lookup 0 subtable" dx=5 dy=0 dh=10 dv=0
EndChar

StartChar: F
Encoding: 70 70 36
Width: 292
VWidth: 659
GlyphClass: 2
Flags: MW
HStem: 0 21G<41 92 41 41> 177 46<92 250 92 250> 353 46<92 272 92 92>
VStem: 41 51<0 177 223 353>
LayerCount: 2
Back
Fore
SplineSet
41 399 m 1
 272 399 l 1
 272 353 l 1
 92 353 l 1
 92 223 l 1
 250 223 l 1
 250 177 l 1
 92 177 l 1
 92 0 l 1
 41 0 l 1
 41 399 l 1
EndSplineSet
Position2: "'cpsp' Capital Spacing lookup 0 subtable" dx=5 dy=0 dh=10 dv=0
EndChar

StartChar: G
Encoding: 71 71 37
Width: 372
VWidth: 659
GlyphClass: 2
Flags: MW
HStem: -7 47<152.5 207.5> 0 21G<300 334 300 300> 163 45<178 334 178 281> 359 48<155.5 216>
VStem: 28 54<136.5 185 185 214 136.5 269.5> 281 53<154 163 163 163 264 296.5>
AnchorPoint: "Anchor-1" 186 0 basechar 0
AnchorPoint: "Anchor-0" 186 399 basechar 0
LayerCount: 2
Back
Fore
SplineSet
178 163 m 1xbc
 178 208 l 1
 334 208 l 1
 334 0 l 1
 300 0 l 1x7c
 289 44 l 1
 264 8 229 -7 186 -7 c 0
 85 -7 28 61 28 200 c 0
 28 339 89 407 188 407 c 0
 272 407 334 360 334 264 c 1
 281 264 l 1
 281 329 244 359 188 359 c 0
 123 359 82 312 82 214 c 2
 82 185 l 2
 82 88 119 40 186 40 c 0
 252 40 281 78 281 154 c 2
 281 163 l 1
 178 163 l 1xbc
EndSplineSet
Position2: "'cpsp' Capital Spacing lookup 0 subtable" dx=5 dy=0 dh=10 dv=0
EndChar

StartChar: Gbreve
Encoding: 286 286 38
Width: 372
VWidth: 659
GlyphClass: 2
Flags: MW
HStem: -7 47<152.5 207.5> 0 21G<300 334 300 300> 163 45<178 334 178 281> 359 48<155.5 216> 458 57<114 208.5>
VStem: 28 54<136.5 185 185 214 136.5 269.5> 281 53<154 163 163 163 264 296.5>
LayerCount: 2
Back
Fore
SplineSet
186 458 m 0xbe
 142 458 114 488 114 515 c 1
 152 515 l 1
 153 506 167 495 186 495 c 0
 206 495 219 506 221 515 c 1
 258 515 l 1
 258 488 231 458 186 458 c 0xbe
178 163 m 1
 178 208 l 1
 334 208 l 1
 334 0 l 1
 300 0 l 1x7e
 289 44 l 1
 264 8 229 -7 186 -7 c 0
 85 -7 28 61 28 200 c 0
 28 339 89 407 188 407 c 0
 272 407 334 360 334 264 c 1
 281 264 l 1
 281 329 244 359 188 359 c 0
 123 359 82 312 82 214 c 2
 82 185 l 2
 82 88 119 40 186 40 c 0
 252 40 281 78 281 154 c 2
 281 163 l 1
 178 163 l 1
EndSplineSet
Position2: "'cpsp' Capital Spacing lookup 0 subtable" dx=5 dy=0 dh=10 dv=0
EndChar

StartChar: Gcircumflex
Encoding: 284 284 39
Width: 372
VWidth: 659
GlyphClass: 2
Flags: MW
HStem: -7 47<152.5 207.5> 0 21G<300 334 300 300> 163 45<178 334 178 281> 359 48<155.5 216> 435 79<113 209 113 209 163 212 163 258>
VStem: 28 54<136.5 185 185 214 136.5 269.5> 281 53<154 163 163 163 264 296.5>
LayerCount: 2
Back
Fore
SplineSet
186 481 m 1xbe
 160 435 l 1
 113 435 l 1
 163 514 l 1
 209 514 l 1
 258 435 l 1
 212 435 l 1
 186 481 l 1xbe
178 163 m 1
 178 208 l 1
 334 208 l 1
 334 0 l 1
 300 0 l 1x76
 289 44 l 1
 264 8 229 -7 186 -7 c 0
 85 -7 28 61 28 200 c 0
 28 339 89 407 188 407 c 0
 272 407 334 360 334 264 c 1
 281 264 l 1
 281 329 244 359 188 359 c 0xb6
 123 359 82 312 82 214 c 2
 82 185 l 2
 82 88 119 40 186 40 c 0
 252 40 281 78 281 154 c 2
 281 163 l 1
 178 163 l 1
EndSplineSet
Position2: "'cpsp' Capital Spacing lookup 0 subtable" dx=5 dy=0 dh=10 dv=0
EndChar

StartChar: Gcommaaccent
Encoding: 290 290 40
Width: 372
VWidth: 659
GlyphClass: 2
Flags: MW
HStem: -88 53<161 211 161 181> -7 47<152.5 207.5> 0 21G<300 334 300 300> 163 45<178 334 178 281> 359 48<155.5 216>
VStem: 28 54<136.5 185 185 214 136.5 269.5> 161 50<-84 -35 -84 -35 -84 -35> 281 53<154 163 163 163 264 296.5>
LayerCount: 2
Back
Fore
SplineSet
178 163 m 1x5f
 178 208 l 1
 334 208 l 1
 334 0 l 1
 300 0 l 1xbf
 289 44 l 1
 264 8 229 -7 186 -7 c 0
 85 -7 28 61 28 200 c 0
 28 339 89 407 188 407 c 0
 272 407 334 360 334 264 c 1
 281 264 l 1
 281 329 244 359 188 359 c 0
 123 359 82 312 82 214 c 2
 82 185 l 2
 82 88 119 40 186 40 c 0
 252 40 281 78 281 154 c 2
 281 163 l 1
 178 163 l 1x5f
161 -88 m 1
 161 -35 l 1
 211 -35 l 1
 211 -84 l 1
 194 -129 l 1
 168 -129 l 1
 181 -88 l 1
 161 -88 l 1
EndSplineSet
Position2: "'cpsp' Capital Spacing lookup 0 subtable" dx=5 dy=0 dh=10 dv=0
EndChar

StartChar: Gdotaccent
Encoding: 288 288 41
Width: 372
VWidth: 659
GlyphClass: 2
Flags: MW
HStem: -7 47<152.5 207.5> 0 21G<300 334 300 300> 163 45<178 334 178 281> 359 48<155.5 216> 459 56<161 212 161 212>
VStem: 28 54<136.5 185 185 214 136.5 269.5> 161 51<459 515 459 515> 281 53<154 163 163 163 264 296.5>
LayerCount: 2
Back
Fore
SplineSet
212 515 m 1xbf
 212 459 l 1
 161 459 l 1
 161 515 l 1
 212 515 l 1xbf
178 163 m 1
 178 208 l 1
 334 208 l 1
 334 0 l 1
 300 0 l 1x7f
 289 44 l 1
 264 8 229 -7 186 -7 c 0
 85 -7 28 61 28 200 c 0
 28 339 89 407 188 407 c 0
 272 407 334 360 334 264 c 1
 281 264 l 1
 281 329 244 359 188 359 c 0
 123 359 82 312 82 214 c 2
 82 185 l 2
 82 88 119 40 186 40 c 0
 252 40 281 78 281 154 c 2
 281 163 l 1
 178 163 l 1
EndSplineSet
Position2: "'cpsp' Capital Spacing lookup 0 subtable" dx=5 dy=0 dh=10 dv=0
EndChar

StartChar: H
Encoding: 72 72 42
Width: 345
VWidth: 659
GlyphClass: 2
Flags: MW
HStem: 0 21G<41 92 41 41 253 304 253 253> 181 47<92 253 92 253> 379 20G<41 92 92 92 253 304 304 304>
VStem: 41 51<0 181 0 228 228 399> 253 51<0 181 181 181 228 399>
AnchorPoint: "Anchor-1" 0 0 basechar 0
AnchorPoint: "Anchor-0" 173 399 basechar 0
LayerCount: 2
Back
Fore
SplineSet
304 0 m 1
 253 0 l 1
 253 181 l 1
 92 181 l 1
 92 0 l 1
 41 0 l 1
 41 399 l 1
 92 399 l 1
 92 228 l 1
 253 228 l 1
 253 399 l 1
 304 399 l 1
 304 0 l 1
EndSplineSet
Position2: "'cpsp' Capital Spacing lookup 0 subtable" dx=5 dy=0 dh=10 dv=0
EndChar

StartChar: Hbar
Encoding: 294 294 43
Width: 345
VWidth: 659
GlyphClass: 2
Flags: MW
HStem: 0 21G<41 92 41 41 253 304 253 253> 179 46<92 253 92 253> 285 43<12 41 12 41 92 253 304 333> 285 114<12 92 12 92 41 92 41 253>
VStem: 41 51<0 179 0 225 225 285 328 399> 253 51<0 179 179 179 225 285 0 285 328 399>
LayerCount: 2
Back
Fore
SplineSet
304 285 m 1xec
 304 0 l 1
 253 0 l 1
 253 179 l 1
 92 179 l 1
 92 0 l 1
 41 0 l 1
 41 285 l 1
 12 285 l 1
 12 328 l 1
 41 328 l 1xec
 41 399 l 1
 92 399 l 1xdc
 92 328 l 1
 253 328 l 1xec
 253 399 l 1
 304 399 l 1xdc
 304 328 l 1
 333 328 l 1
 333 285 l 1
 304 285 l 1xec
253 285 m 1
 92 285 l 1
 92 225 l 1
 253 225 l 1
 253 285 l 1
EndSplineSet
Position2: "'cpsp' Capital Spacing lookup 0 subtable" dx=5 dy=0 dh=10 dv=0
EndChar

StartChar: Hcircumflex
Encoding: 292 292 44
Width: 345
VWidth: 659
GlyphClass: 2
Flags: MW
HStem: 0 21G<41 92 41 41 253 304 253 253> 181 47<92 253 92 253> 379 20G<41 92 92 92 253 304 304 304> 435 79<100 195 100 195 150 245 150 198>
VStem: 41 51<0 181 0 228 228 399> 253 51<0 181 181 181 228 399>
LayerCount: 2
Back
Fore
SplineSet
245 435 m 1
 198 435 l 1
 173 481 l 1
 146 435 l 1
 100 435 l 1
 150 514 l 1
 195 514 l 1
 245 435 l 1
304 0 m 1
 253 0 l 1
 253 181 l 1
 92 181 l 1
 92 0 l 1
 41 0 l 1
 41 399 l 1
 92 399 l 1
 92 228 l 1
 253 228 l 1
 253 399 l 1
 304 399 l 1
 304 0 l 1
EndSplineSet
Position2: "'cpsp' Capital Spacing lookup 0 subtable" dx=5 dy=0 dh=10 dv=0
EndChar

StartChar: I
Encoding: 73 73 45
Width: 133
VWidth: 659
GlyphClass: 2
Flags: MW
HStem: 0 21G<41 41 41 92> 379 20G<41 92 92 92>
VStem: 41 51<0 399 0 399>
AnchorPoint: "Anchor-1" 0 0 basechar 0
AnchorPoint: "Anchor-0" 67 399 basechar 0
LayerCount: 2
Back
Fore
SplineSet
41 0 m 1
 41 399 l 1
 92 399 l 1
 92 0 l 1
 41 0 l 1
EndSplineSet
Position2: "'cpsp' Capital Spacing lookup 0 subtable" dx=5 dy=0 dh=10 dv=0
EndChar

StartChar: IJ
Encoding: 306 306 46
Width: 372
VWidth: 659
GlyphClass: 2
Flags: MW
HStem: -7 47<222.5 251.5 222.5 268> 0 21G<41 92 41 41> 379 20G<41 92 92 92 283 334 334 334>
VStem: 41 51<0 399> 140 52<95 121 75 121> 283 51<92 95 95 399>
LayerCount: 2
Back
Fore
SplineSet
92 0 m 1x7c
 41 0 l 1
 41 399 l 1
 92 399 l 1
 92 0 l 1x7c
334 95 m 2xbc
 334 28 299 -7 237 -7 c 0
 176 -7 140 28 140 95 c 2
 140 121 l 1
 192 121 l 1
 192 92 l 2
 192 58 208 40 237 40 c 0
 266 40 283 58 283 92 c 2
 283 399 l 1
 334 399 l 1
 334 95 l 2xbc
EndSplineSet
Position2: "'cpsp' Capital Spacing lookup 0 subtable" dx=5 dy=0 dh=10 dv=0
EndChar

StartChar: Iacute
Encoding: 205 205 47
Width: 133
VWidth: 659
GlyphClass: 2
Flags: MW
HStem: 0 21G<41 92 41 41> 379 20G<41 92 92 92> 438 77<32 134 32 134>
VStem: 41 51<0 399>
LayerCount: 2
Back
Fore
SplineSet
134 513 m 1
 72 438 l 1
 32 438 l 1
 82 515 l 1
 134 515 l 1
 134 513 l 1
92 0 m 1
 41 0 l 1
 41 399 l 1
 92 399 l 1
 92 0 l 1
EndSplineSet
Position2: "'cpsp' Capital Spacing lookup 0 subtable" dx=5 dy=0 dh=10 dv=0
EndChar

StartChar: Ibreve
Encoding: 300 300 48
Width: 133
VWidth: 659
GlyphClass: 2
Flags: MW
HStem: 0 21G<41 41 41 92> 379 20G<41 92 92 92> 458 57<-6 89>
VStem: 41 51<0 399 0 399>
LayerCount: 2
Back
Fore
SplineSet
138 515 m 1
 138 488 111 458 67 458 c 0
 22 458 -6 488 -6 515 c 1
 32 515 l 1
 34 506 47 495 67 495 c 0
 86 495 100 506 101 515 c 1
 138 515 l 1
41 0 m 1
 41 399 l 1
 92 399 l 1
 92 0 l 1
 41 0 l 1
EndSplineSet
Position2: "'cpsp' Capital Spacing lookup 0 subtable" dx=5 dy=0 dh=10 dv=0
EndChar

StartChar: Icircumflex
Encoding: 206 206 49
Width: 133
VWidth: 659
GlyphClass: 2
Flags: MW
HStem: 0 21G<41 41 41 92> 379 20G<41 92 92 92> 435 79<-7 90 -7 90 44 139 44 93>
VStem: 41 51<0 399 0 399 0 435>
LayerCount: 2
Back
Fore
SplineSet
93 435 m 1
 67 481 l 1
 41 435 l 1
 -7 435 l 1
 44 514 l 1
 90 514 l 1
 139 435 l 1
 93 435 l 1
41 0 m 1
 41 399 l 1
 92 399 l 1
 92 0 l 1
 41 0 l 1
EndSplineSet
Position2: "'cpsp' Capital Spacing lookup 0 subtable" dx=5 dy=0 dh=10 dv=0
EndChar

StartChar: Idieresis
Encoding: 207 207 50
Width: 133
VWidth: 659
GlyphClass: 2
Flags: MW
HStem: 0 21G<41 92 41 41> 379 20G<41 92 92 92> 459 56<-3 48 -3 48 -3 85 85 136>
VStem: -3 51<459 515> 41 51<0 399> 85 51<459 515>
LayerCount: 2
Back
Fore
SplineSet
48 459 m 1xf4
 -3 459 l 1
 -3 515 l 1
 48 515 l 1
 48 459 l 1xf4
136 459 m 1
 85 459 l 1
 85 515 l 1
 136 515 l 1
 136 459 l 1
92 0 m 1xe8
 41 0 l 1
 41 399 l 1
 92 399 l 1
 92 0 l 1xe8
EndSplineSet
Position2: "'cpsp' Capital Spacing lookup 0 subtable" dx=5 dy=0 dh=10 dv=0
EndChar

StartChar: Idotaccent
Encoding: 304 304 51
Width: 133
VWidth: 659
GlyphClass: 2
Flags: MW
HStem: 0 21G<41 41 41 92> 379 20G<41 92 92 92> 459 56<42 92 42 92>
VStem: 41 51<0 399 0 399>
LayerCount: 2
Back
Fore
SplineSet
42 459 m 1
 42 515 l 1
 92 515 l 1
 92 459 l 1
 42 459 l 1
41 0 m 1
 41 399 l 1
 92 399 l 1
 92 0 l 1
 41 0 l 1
EndSplineSet
Position2: "'cpsp' Capital Spacing lookup 0 subtable" dx=5 dy=0 dh=10 dv=0
EndChar

StartChar: Igrave
Encoding: 204 204 52
Width: 133
VWidth: 659
GlyphClass: 2
Flags: MW
HStem: 0 21G<41 92 41 41> 379 20G<41 92 92 92> 438 77<-1 101 -1 61>
VStem: 41 51<0 399>
LayerCount: 2
Back
Fore
SplineSet
101 438 m 1
 61 438 l 1
 -2 513 l 1
 -1 515 l 1
 51 515 l 1
 101 438 l 1
92 0 m 1
 41 0 l 1
 41 399 l 1
 92 399 l 1
 92 0 l 1
EndSplineSet
Position2: "'cpsp' Capital Spacing lookup 0 subtable" dx=5 dy=0 dh=10 dv=0
EndChar

StartChar: Imacron
Encoding: 298 298 53
Width: 133
VWidth: 659
GlyphClass: 2
Flags: MW
HStem: 0 21G<41 41 41 92> 379 20G<41 92 92 92> 442 42<-7 140 -7 140>
VStem: 41 51<0 399 0 399>
LayerCount: 2
Back
Fore
SplineSet
-7 442 m 1
 -7 484 l 1
 140 484 l 1
 140 442 l 1
 -7 442 l 1
41 0 m 1
 41 399 l 1
 92 399 l 1
 92 0 l 1
 41 0 l 1
EndSplineSet
Position2: "'cpsp' Capital Spacing lookup 0 subtable" dx=5 dy=0 dh=10 dv=0
EndChar

StartChar: Iogonek
Encoding: 302 302 54
Width: 133
VWidth: 659
GlyphClass: 2
Flags: MW
HStem: -106 38<75.5 123> -1 21G<91 91> 0 21G<41 54 41 41 92 92> 379 20G<41 92 92 92>
VStem: 41 51<0 399>
LayerCount: 2
Back
Fore
SplineSet
92 0 m 1xb8
 92 0 91 -1 91 -1 c 2xd8
 85 -10 78 -21 78 -36 c 0
 78 -53 86 -68 105 -68 c 2
 123 -68 l 1
 123 -98 l 1
 111 -103 100 -106 88 -106 c 0
 63 -106 33 -94 33 -53 c 0
 33 -28 42 -13 54 0 c 1
 41 0 l 1
 41 399 l 1
 92 399 l 1
 92 0 l 1xb8
EndSplineSet
Position2: "'cpsp' Capital Spacing lookup 0 subtable" dx=5 dy=0 dh=10 dv=0
EndChar

StartChar: Itilde
Encoding: 296 296 55
Width: 133
VWidth: 659
GlyphClass: 2
Flags: MW
HStem: 0 21G<41 41 41 92> 379 20G<41 92 92 92> 454 43<95.5 103 92.5 119.5> 472 43<29.5 37.5 13.5 40.5>
VStem: 41 51<0 399 0 399>
LayerCount: 2
Back
Fore
SplineSet
152 515 m 1xd8
 152 488 137 454 102 454 c 0xe8
 89 454 78 459 67 463 c 0
 57 468 46 472 35 472 c 0xd8
 24 472 17 467 15 454 c 1
 -18 454 l 1xe8
 -18 480 -4 515 31 515 c 0xd8
 44 515 55 510 66 506 c 0
 76 501 87 497 98 497 c 0xe8
 108 497 116 501 118 515 c 1
 152 515 l 1xd8
41 0 m 1
 41 399 l 1
 92 399 l 1
 92 0 l 1
 41 0 l 1
EndSplineSet
Position2: "'cpsp' Capital Spacing lookup 0 subtable" dx=5 dy=0 dh=10 dv=0
EndChar

StartChar: J
Encoding: 74 74 56
Width: 239
VWidth: 659
GlyphClass: 2
Flags: MW
HStem: -7 47<89.5 118.5 89.5 134.5> 379 20G<150 201 201 201>
VStem: 7 52<95 121 75 121> 150 51<92 95 95 399>
AnchorPoint: "Anchor-1" 0 0 basechar 0
AnchorPoint: "Anchor-0" 119 399 basechar 0
LayerCount: 2
Back
Fore
SplineSet
201 95 m 2
 201 28 165 -7 104 -7 c 0
 43 -7 7 28 7 95 c 2
 7 121 l 1
 59 121 l 1
 59 92 l 2
 59 58 75 40 104 40 c 0
 133 40 150 58 150 92 c 2
 150 399 l 1
 201 399 l 1
 201 95 l 2
EndSplineSet
Position2: "'cpsp' Capital Spacing lookup 0 subtable" dx=5 dy=0 dh=10 dv=0
EndChar

StartChar: Jcircumflex
Encoding: 308 308 57
Width: 239
VWidth: 659
GlyphClass: 2
Flags: MW
HStem: -7 47<89.5 118.5 89.5 134.5> 379 20G<150 201 201 201> 435 79<103 198 103 198 153 248 153 202>
VStem: 7 52<95 121 75 121> 150 51<92 95 95 399>
LayerCount: 2
Back
Fore
SplineSet
248 435 m 1
 202 435 l 1
 177 481 l 1
 150 435 l 1
 103 435 l 1
 153 514 l 1
 198 514 l 1
 248 435 l 1
201 95 m 2
 201 28 165 -7 104 -7 c 0
 43 -7 7 28 7 95 c 2
 7 121 l 1
 59 121 l 1
 59 92 l 2
 59 58 75 40 104 40 c 0
 133 40 150 58 150 92 c 2
 150 399 l 1
 201 399 l 1
 201 95 l 2
EndSplineSet
Position2: "'cpsp' Capital Spacing lookup 0 subtable" dx=5 dy=0 dh=10 dv=0
EndChar

StartChar: K
Encoding: 75 75 58
Width: 319
VWidth: 659
GlyphClass: 2
Flags: MW
HStem: 0 21G<41 92 41 41 254 312 254 254> 379 20G<41 92 92 92 250 308 308 308>
VStem: 41 51<0 124 188 399>
AnchorPoint: "Anchor-1" 159 0 basechar 0
AnchorPoint: "Anchor-0" 159 399 basechar 0
LayerCount: 2
Back
Fore
SplineSet
250 399 m 1
 308 399 l 1
 188 239 l 1
 312 0 l 1
 254 0 l 1
 156 195 l 1
 92 124 l 1
 92 0 l 1
 41 0 l 1
 41 399 l 1
 92 399 l 1
 92 188 l 1
 250 399 l 1
EndSplineSet
Position2: "'cpsp' Capital Spacing lookup 0 subtable" dx=5 dy=0 dh=10 dv=0
EndChar

StartChar: Kcommaaccent
Encoding: 310 310 59
Width: 319
VWidth: 659
GlyphClass: 2
Flags: MW
HStem: -88 53<134 154 134 184> 0 21G<41 92 41 41 254 312 254 254> 379 20G<41 92 92 92 250 308 308 308>
VStem: 41 51<0 124 188 399> 134 50<-84 -35 -84 -35 -84 -35>
LayerCount: 2
Back
Fore
SplineSet
250 399 m 1
 308 399 l 1
 188 239 l 1
 312 0 l 1
 254 0 l 1
 156 195 l 1
 92 124 l 1
 92 0 l 1
 41 0 l 1
 41 399 l 1
 92 399 l 1
 92 188 l 1
 250 399 l 1
167 -129 m 1
 142 -129 l 1
 154 -88 l 1
 134 -88 l 1
 134 -35 l 1
 184 -35 l 1
 184 -84 l 1
 167 -129 l 1
EndSplineSet
Position2: "'cpsp' Capital Spacing lookup 0 subtable" dx=5 dy=0 dh=10 dv=0
EndChar

StartChar: L
Encoding: 76 76 60
Width: 266
VWidth: 659
GlyphClass: 2
Flags: MW
HStem: 0 47<92 255 92 255> 379 20G<41 92 92 92>
VStem: 41 51<47 47 47 399>
AnchorPoint: "Anchor-1" 133 0 basechar 0
AnchorPoint: "Anchor-0" 133 399 basechar 0
LayerCount: 2
Back
Fore
SplineSet
92 47 m 1
 255 47 l 1
 255 0 l 1
 41 0 l 1
 41 399 l 1
 92 399 l 1
 92 47 l 1
EndSplineSet
Position2: "'cpsp' Capital Spacing lookup 0 subtable" dx=5 dy=0 dh=10 dv=0
EndChar

StartChar: Lacute
Encoding: 313 313 61
Width: 266
VWidth: 659
GlyphClass: 2
Flags: MW
HStem: 0 47<92 255 92 255> 379 20G<41 92 92 92> 438 77<30 132 30 132>
VStem: 41 51<47 47 47 399>
LayerCount: 2
Back
Fore
SplineSet
133 513 m 1
 71 438 l 1
 30 438 l 1
 80 515 l 1
 132 515 l 1
 133 513 l 1
92 47 m 1
 255 47 l 1
 255 0 l 1
 41 0 l 1
 41 399 l 1
 92 399 l 1
 92 47 l 1
EndSplineSet
Position2: "'cpsp' Capital Spacing lookup 0 subtable" dx=5 dy=0 dh=10 dv=0
EndChar

StartChar: Lcaron
Encoding: 317 317 62
Width: 266
VWidth: 659
GlyphClass: 2
Flags: MW
HStem: 0 47<92 255 92 255> 337 62<186 209>
VStem: 41 51<47 47 47 399> 186 58<342 342 342 399 342 399>
LayerCount: 2
Back
Fore
SplineSet
92 47 m 1
 255 47 l 1
 255 0 l 1
 41 0 l 1
 41 399 l 1
 92 399 l 1
 92 47 l 1
244 342 m 1
 216 264 l 1
 186 264 l 1
 209 337 l 1
 186 337 l 1
 186 399 l 1
 244 399 l 1
 244 342 l 1
EndSplineSet
Position2: "'cpsp' Capital Spacing lookup 0 subtable" dx=5 dy=0 dh=10 dv=0
EndChar

StartChar: Lcommaaccent
Encoding: 315 315 63
Width: 266
VWidth: 659
GlyphClass: 2
Flags: MW
HStem: -88 53<108 128 108 158> 0 47<92 255 92 255> 379 20G<41 92 92 92>
VStem: 41 51<47 47 47 399> 108 50<-84 -84 -84 -35 -84 -35>
LayerCount: 2
Back
Fore
SplineSet
92 47 m 1
 255 47 l 1
 255 0 l 1
 41 0 l 1
 41 399 l 1
 92 399 l 1
 92 47 l 1
158 -84 m 1xf8
 141 -129 l 1
 115 -129 l 1
 128 -88 l 1
 108 -88 l 1
 108 -35 l 1
 158 -35 l 1
 158 -84 l 1xf8
EndSplineSet
Position2: "'cpsp' Capital Spacing lookup 0 subtable" dx=5 dy=0 dh=10 dv=0
EndChar

StartChar: Ldot
Encoding: 319 319 64
Width: 266
VWidth: 659
GlyphClass: 2
Flags: MW
HStem: 0 47<92 255 92 255> 241 65<172 231 172 231> 379 20G<41 92 92 92>
VStem: 41 51<47 47 47 399> 172 59<241 306>
LayerCount: 2
Back
Fore
SplineSet
92 47 m 1
 255 47 l 1
 255 0 l 1
 41 0 l 1
 41 399 l 1
 92 399 l 1
 92 47 l 1
231 241 m 1
 172 241 l 1
 172 306 l 1
 231 306 l 1
 231 241 l 1
EndSplineSet
Ligature2: "Ligature Substitution lookup 41 subtable" L periodcentered
Position2: "'cpsp' Capital Spacing lookup 0 subtable" dx=5 dy=0 dh=10 dv=0
EndChar

StartChar: Lslash
Encoding: 321 321 65
Width: 266
VWidth: 659
GlyphClass: 2
Flags: MW
HStem: 0 47<92 255 92 255> 379 20G<41 92 92 92>
VStem: 41 51<47 143 143 143 185 188 230 399>
LayerCount: 2
Back
Fore
SplineSet
92 230 m 1
 172 301 l 1
 172 258 l 1
 92 188 l 1
 92 47 l 1
 255 47 l 1
 255 0 l 1
 41 0 l 1
 41 143 l 1
 0 107 l 1
 0 148 l 1
 41 185 l 1
 41 399 l 1
 92 399 l 1
 92 230 l 1
EndSplineSet
Position2: "'cpsp' Capital Spacing lookup 0 subtable" dx=5 dy=0 dh=10 dv=0
EndChar

StartChar: M
Encoding: 77 77 66
Width: 398
VWidth: 659
GlyphClass: 2
Flags: MW
HStem: 0 47<198 200 198 219 173 200> 352 47<78 81 78 78 312 314 312 312>
VStem: 36 46<0 290 0 399> 310 52<0 290 290 297>
LayerCount: 2
Back
Fore
SplineSet
362 0 m 1
 310 0 l 1
 310 290 l 2
 310 304 314 352 314 352 c 1
 312 352 l 1
 308 331 304 310 299 290 c 2
 219 0 l 1
 173 0 l 1
 93 290 l 2
 90 304 87 318 85 332 c 0
 83 339 82 345 81 352 c 1
 78 352 l 1
 78 352 82 302 82 290 c 2
 82 0 l 1
 36 0 l 1
 36 399 l 1
 114 399 l 1
 185 138 l 2
 192 108 198 47 198 47 c 1
 200 47 l 1
 200 47 206 109 214 138 c 2
 284 399 l 1
 362 399 l 1
 362 0 l 1
EndSplineSet
Position2: "'cpsp' Capital Spacing lookup 0 subtable" dx=5 dy=0 dh=10 dv=0
EndChar

StartChar: N
Encoding: 78 78 67
Width: 345
VWidth: 659
GlyphClass: 2
Flags: MW
HStem: 0 21G<41 87 41 41 262 304 262 262> 379 20G<41 85 85 85 258 304 304 304>
VStem: 41 46<0 254 0 399> 258 46<95 95 148 399>
AnchorPoint: "Anchor-1" 173 0 basechar 0
AnchorPoint: "Anchor-0" 173 399 basechar 0
LayerCount: 2
Back
Fore
SplineSet
304 0 m 1
 262 0 l 1
 112 254 l 2
 102 272 86 308 86 308 c 1
 84 308 l 1
 84 308 87 271 87 254 c 2
 87 0 l 1
 41 0 l 1
 41 399 l 1
 85 399 l 1
 233 148 l 2
 243 133 258 95 258 95 c 1
 260 96 l 1
 260 96 258 136 258 148 c 2
 258 399 l 1
 304 399 l 1
 304 0 l 1
EndSplineSet
Position2: "'cpsp' Capital Spacing lookup 0 subtable" dx=5 dy=0 dh=10 dv=0
EndChar

StartChar: Nacute
Encoding: 323 323 68
Width: 345
VWidth: 659
GlyphClass: 2
Flags: MW
HStem: 0 21G<41 87 41 41 262 304 262 262> 379 20G<41 85 85 85 258 304 304 304> 438 77<138 240 138 240>
VStem: 41 46<0 254 0 399> 258 46<95 95 148 399>
LayerCount: 2
Back
Fore
SplineSet
241 513 m 1
 179 438 l 1
 138 438 l 1
 188 515 l 1
 240 515 l 1
 241 513 l 1
304 0 m 1
 262 0 l 1
 112 254 l 2
 102 272 86 308 86 308 c 1
 84 308 l 1
 84 308 87 271 87 254 c 2
 87 0 l 1
 41 0 l 1
 41 399 l 1
 85 399 l 1
 233 148 l 2
 243 133 258 95 258 95 c 1
 260 96 l 1
 260 96 258 136 258 148 c 2
 258 399 l 1
 304 399 l 1
 304 0 l 1
EndSplineSet
Position2: "'cpsp' Capital Spacing lookup 0 subtable" dx=5 dy=0 dh=10 dv=0
EndChar

StartChar: Ncaron
Encoding: 327 327 69
Width: 345
VWidth: 659
GlyphClass: 2
Flags: MW
HStem: 0 21G<41 87 41 41 262 304 262 262> 379 20G<41 85 85 85 258 304 304 304> 436 79<100 194 100 149>
VStem: 41 46<0 254 0 399> 258 46<95 95 148 399>
LayerCount: 2
Back
Fore
SplineSet
194 436 m 1
 149 436 l 1
 100 515 l 1
 146 515 l 1
 173 469 l 1
 198 515 l 1
 245 515 l 1
 194 436 l 1
304 0 m 1
 262 0 l 1
 112 254 l 2
 102 272 86 308 86 308 c 1
 84 308 l 1
 84 308 87 271 87 254 c 2
 87 0 l 1
 41 0 l 1
 41 399 l 1
 85 399 l 1
 233 148 l 2
 243 133 258 95 258 95 c 1
 260 96 l 1
 260 96 258 136 258 148 c 2
 258 399 l 1
 304 399 l 1
 304 0 l 1
EndSplineSet
Position2: "'cpsp' Capital Spacing lookup 0 subtable" dx=5 dy=0 dh=10 dv=0
EndChar

StartChar: Ncommaaccent
Encoding: 325 325 70
Width: 345
VWidth: 659
GlyphClass: 2
Flags: MW
HStem: -88 53<148 168 148 198> 0 21G<41 87 41 41 262 304 262 262> 379 20G<41 85 85 85 258 304 304 304>
VStem: 41 46<0 254 0 399> 148 50<-84 -84 -84 -35 -84 -35> 258 46<95 95 148 399>
LayerCount: 2
Back
Fore
SplineSet
304 0 m 1
 262 0 l 1
 112 254 l 2
 102 272 86 308 86 308 c 1
 84 308 l 1
 84 308 87 271 87 254 c 2
 87 0 l 1
 41 0 l 1
 41 399 l 1
 85 399 l 1
 233 148 l 2
 243 133 258 95 258 95 c 1
 260 96 l 1
 260 96 258 136 258 148 c 2
 258 399 l 1
 304 399 l 1
 304 0 l 1
198 -84 m 1
 181 -129 l 1
 154 -129 l 1
 168 -88 l 1
 148 -88 l 1
 148 -35 l 1
 198 -35 l 1
 198 -84 l 1
EndSplineSet
Position2: "'cpsp' Capital Spacing lookup 0 subtable" dx=5 dy=0 dh=10 dv=0
EndChar

StartChar: Eng
Encoding: 330 330 71
Width: 345
VWidth: 659
GlyphClass: 2
Flags: MW
HStem: -106 40<236.5 238 204 267> 0 21G<41 87 41 41> 379 20G<41 85 85 85 256 304 304 304>
VStem: 41 46<0 254 0 399> 258 46<95 95 142 148>
LayerCount: 2
Back
Fore
SplineSet
304 -36 m 2
 304 -71 290 -106 244 -106 c 0
 229 -106 214 -103 204 -99 c 1
 204 -66 l 1
 229 -66 l 2
 247 -66 256 -56 256 -38 c 2
 256 9 l 1
 112 254 l 2
 102 272 86 308 86 308 c 1
 84 308 l 1
 84 308 87 271 87 254 c 2
 87 0 l 1
 41 0 l 1
 41 399 l 1
 85 399 l 1
 233 148 l 2
 243 133 258 95 258 95 c 1
 260 96 l 1
 260 96 258 136 258 148 c 2
 256 399 l 1
 304 399 l 1
 304 -36 l 2
EndSplineSet
Position2: "'cpsp' Capital Spacing lookup 0 subtable" dx=5 dy=0 dh=10 dv=0
EndChar

StartChar: Ntilde
Encoding: 209 209 72
Width: 345
VWidth: 659
GlyphClass: 2
Flags: MW
HStem: 0 21G<41 87 41 41 262 304 262 262> 379 20G<41 85 85 85 258 304 304 304> 454 43<201.5 209 198.5 225.5> 472 43<135.5 143.5 119.5 146.5>
VStem: 41 46<0 254 0 399> 258 46<95 95 148 399>
LayerCount: 2
Back
Fore
SplineSet
258 515 m 1xdc
 258 488 243 454 208 454 c 0xec
 195 454 184 459 172 463 c 0
 162 468 152 472 141 472 c 0xdc
 130 472 123 467 121 454 c 1
 88 454 l 1xec
 88 480 102 515 137 515 c 0xdc
 150 515 161 510 172 506 c 0
 182 501 193 497 204 497 c 0xec
 214 497 222 501 223 515 c 1
 258 515 l 1xdc
304 0 m 1
 262 0 l 1
 112 254 l 2
 102 272 86 308 86 308 c 1
 84 308 l 1
 84 308 87 271 87 254 c 2
 87 0 l 1
 41 0 l 1
 41 399 l 1
 85 399 l 1
 233 148 l 2
 243 133 258 95 258 95 c 1
 260 96 l 1
 260 96 258 136 258 148 c 2
 258 399 l 1
 304 399 l 1
 304 0 l 1
EndSplineSet
Position2: "'cpsp' Capital Spacing lookup 0 subtable" dx=5 dy=0 dh=10 dv=0
EndChar

StartChar: O
Encoding: 79 79 73
Width: 372
VWidth: 659
GlyphClass: 2
Flags: MW
HStem: -7 47<154 218 154 235> 359 48<154 218>
VStem: 28 54<136.5 185 185 214 136.5 269.5> 289 54<185 214 214 263>
AnchorPoint: "Anchor-1" 0 0 basechar 0
AnchorPoint: "Anchor-0" 186 399 basechar 0
LayerCount: 2
Back
Fore
SplineSet
186 407 m 0
 284 407 343 339 343 200 c 0
 343 61 284 -7 186 -7 c 0
 88 -7 28 61 28 200 c 0
 28 339 88 407 186 407 c 0
186 359 m 0
 122 359 82 312 82 214 c 2
 82 185 l 2
 82 88 122 40 186 40 c 0
 250 40 289 88 289 185 c 2
 289 214 l 2
 289 312 250 359 186 359 c 0
EndSplineSet
Substitution2: "Single Substitution lookup 42 subtable" ordmasculine
Substitution2: "'aalt' Access All Alternates lookup 0 subtable" ordmasculine
Position2: "'cpsp' Capital Spacing lookup 0 subtable" dx=5 dy=0 dh=10 dv=0
EndChar

StartChar: Oacute
Encoding: 211 211 74
Width: 372
VWidth: 659
GlyphClass: 2
Flags: MW
HStem: -7 47<154 218 154 235> 359 48<154 218> 438 77<152 254 152 254>
VStem: 28 54<136.5 185 185 214 136.5 269.5> 289 54<185 214 214 263>
LayerCount: 2
Back
Fore
SplineSet
254 513 m 1
 192 438 l 1
 152 438 l 1
 202 515 l 1
 254 515 l 1
 254 513 l 1
186 407 m 0
 284 407 343 339 343 200 c 0
 343 61 284 -7 186 -7 c 0
 88 -7 28 61 28 200 c 0
 28 339 88 407 186 407 c 0
186 359 m 0
 122 359 82 312 82 214 c 2
 82 185 l 2
 82 88 122 40 186 40 c 0
 250 40 289 88 289 185 c 2
 289 214 l 2
 289 312 250 359 186 359 c 0
EndSplineSet
Position2: "'cpsp' Capital Spacing lookup 0 subtable" dx=5 dy=0 dh=10 dv=0
EndChar

StartChar: Obreve
Encoding: 334 334 75
Width: 372
VWidth: 659
GlyphClass: 2
Flags: MW
HStem: -7 47<154 218 154 235> 359 48<154 218> 458 57<114 208.5>
VStem: 28 54<136.5 185 185 214 136.5 269.5> 289 54<185 214 214 263>
LayerCount: 2
Back
Fore
SplineSet
258 515 m 1
 258 488 231 458 186 458 c 0
 142 458 114 488 114 515 c 1
 152 515 l 1
 153 506 167 495 186 495 c 0
 206 495 219 506 221 515 c 1
 258 515 l 1
186 407 m 0
 284 407 343 339 343 200 c 0
 343 61 284 -7 186 -7 c 0
 88 -7 28 61 28 200 c 0
 28 339 88 407 186 407 c 0
186 359 m 0
 122 359 82 312 82 214 c 2
 82 185 l 2
 82 88 122 40 186 40 c 0
 250 40 289 88 289 185 c 2
 289 214 l 2
 289 312 250 359 186 359 c 0
EndSplineSet
Position2: "'cpsp' Capital Spacing lookup 0 subtable" dx=5 dy=0 dh=10 dv=0
EndChar

StartChar: Ocircumflex
Encoding: 212 212 76
Width: 372
VWidth: 659
GlyphClass: 2
Flags: MW
HStem: -7 47<154 218 154 235> 359 48<154 218> 435 79<113 209 113 209 163 258 163 212>
VStem: 28 54<136.5 185 185 214 136.5 269.5> 289 54<185 214 214 263>
LayerCount: 2
Back
Fore
SplineSet
212 435 m 1
 186 481 l 1
 160 435 l 1
 113 435 l 1
 163 514 l 1
 209 514 l 1
 258 435 l 1
 212 435 l 1
186 407 m 0xd8
 284 407 343 339 343 200 c 0
 343 61 284 -7 186 -7 c 0
 88 -7 28 61 28 200 c 0
 28 339 88 407 186 407 c 0xd8
186 359 m 0
 122 359 82 312 82 214 c 2
 82 185 l 2
 82 88 122 40 186 40 c 0
 250 40 289 88 289 185 c 2
 289 214 l 2
 289 312 250 359 186 359 c 0
EndSplineSet
Position2: "'cpsp' Capital Spacing lookup 0 subtable" dx=5 dy=0 dh=10 dv=0
EndChar

StartChar: Odieresis
Encoding: 214 214 77
Width: 372
VWidth: 659
GlyphClass: 2
Flags: MW
HStem: -7 47<154 218 154 235> 359 48<154 218> 459 56<117 168 117 168 117 204 204 255>
VStem: 28 54<136.5 185 185 214 136.5 269.5> 117 51<459 515> 204 51<459 515> 289 54<185 214 214 263>
LayerCount: 2
Back
Fore
SplineSet
168 459 m 1
 117 459 l 1
 117 515 l 1
 168 515 l 1
 168 459 l 1
255 459 m 1
 204 459 l 1
 204 515 l 1
 255 515 l 1
 255 459 l 1
186 407 m 0
 284 407 343 339 343 200 c 0
 343 61 284 -7 186 -7 c 0
 88 -7 28 61 28 200 c 0
 28 339 88 407 186 407 c 0
186 359 m 0
 122 359 82 312 82 214 c 2
 82 185 l 2
 82 88 122 40 186 40 c 0
 250 40 289 88 289 185 c 2
 289 214 l 2
 289 312 250 359 186 359 c 0
EndSplineSet
Position2: "'cpsp' Capital Spacing lookup 0 subtable" dx=5 dy=0 dh=10 dv=0
EndChar

StartChar: Ograve
Encoding: 210 210 78
Width: 372
VWidth: 659
GlyphClass: 2
Flags: MW
HStem: -7 47<154 218 154 235> 359 48<154 218> 438 77<118 221 118 181>
VStem: 28 54<136.5 185 185 214 136.5 269.5> 289 54<185 214 214 263>
LayerCount: 2
Back
Fore
SplineSet
221 438 m 1
 181 438 l 1
 118 513 l 1
 118 515 l 1
 171 515 l 1
 221 438 l 1
186 407 m 0
 284 407 343 339 343 200 c 0
 343 61 284 -7 186 -7 c 0
 88 -7 28 61 28 200 c 0
 28 339 88 407 186 407 c 0
186 359 m 0
 122 359 82 312 82 214 c 2
 82 185 l 2
 82 88 122 40 186 40 c 0
 250 40 289 88 289 185 c 2
 289 214 l 2
 289 312 250 359 186 359 c 0
EndSplineSet
Position2: "'cpsp' Capital Spacing lookup 0 subtable" dx=5 dy=0 dh=10 dv=0
EndChar

StartChar: Ohungarumlaut
Encoding: 336 336 79
Width: 372
VWidth: 659
GlyphClass: 2
Flags: MW
HStem: -7 47<154 218 154 235> 359 48<154 218> 438 77<167 170 130 218 206 206 206 218 243 246>
VStem: 28 54<136.5 185 185 214 136.5 269.5> 289 54<185 214 214 263>
LayerCount: 2
Back
Fore
SplineSet
219 513 m 1
 170 438 l 1
 130 438 l 1
 167 515 l 1
 218 515 l 1
 219 513 l 1
295 513 m 1
 246 438 l 1
 206 438 l 1
 243 515 l 1
 295 515 l 1
 295 513 l 1
186 407 m 0
 284 407 343 339 343 200 c 0
 343 61 284 -7 186 -7 c 0
 88 -7 28 61 28 200 c 0
 28 339 88 407 186 407 c 0
186 359 m 0
 122 359 82 312 82 214 c 2
 82 185 l 2
 82 88 122 40 186 40 c 0
 250 40 289 88 289 185 c 2
 289 214 l 2
 289 312 250 359 186 359 c 0
EndSplineSet
Position2: "'cpsp' Capital Spacing lookup 0 subtable" dx=5 dy=0 dh=10 dv=0
EndChar

StartChar: Omacron
Encoding: 332 332 80
Width: 372
VWidth: 659
GlyphClass: 2
Flags: MW
HStem: -7 47<154 218 154 235> 359 48<154 218> 442 42<113 259 113 259>
VStem: 28 54<136.5 185 185 214 136.5 269.5> 113 146<442 484 442 484> 289 54<185 214 214 263>
LayerCount: 2
Back
Fore
SplineSet
113 442 m 1
 113 484 l 1
 259 484 l 1
 259 442 l 1
 113 442 l 1
186 407 m 0xf4
 284 407 343 339 343 200 c 0
 343 61 284 -7 186 -7 c 0
 88 -7 28 61 28 200 c 0
 28 339 88 407 186 407 c 0xf4
186 359 m 0
 122 359 82 312 82 214 c 2
 82 185 l 2
 82 88 122 40 186 40 c 0
 250 40 289 88 289 185 c 2
 289 214 l 2
 289 312 250 359 186 359 c 0
EndSplineSet
Position2: "'cpsp' Capital Spacing lookup 0 subtable" dx=5 dy=0 dh=10 dv=0
EndChar

StartChar: Oslash
Encoding: 216 216 81
Width: 372
VWidth: 659
GlyphClass: 2
Flags: MW
HStem: -7 47<172.5 218 172.5 235> 359 48<154 199> 401 20G<306 343 343 343>
VStem: 28 54<165.5 185 185 214 165.5 269.5> 289 54<185 214 214 233.5>
AnchorPoint: "Anchor-1" 0 0 basechar 0
AnchorPoint: "Anchor-0" 186 399 basechar 0
LayerCount: 2
Back
Fore
SplineSet
301 355 m 1xb8
 328 320 343 269 343 200 c 0
 343 61 284 -7 186 -7 c 0
 149 -7 118 3 93 22 c 1
 67 -22 l 1
 29 -22 l 1
 71 44 l 1
 43 78 28 130 28 200 c 0
 28 339 88 407 186 407 c 0
 223 407 254 397 279 378 c 1xd8
 306 421 l 1
 343 421 l 1
 301 355 l 1xb8
186 359 m 0xd8
 122 359 82 312 82 214 c 2
 82 185 l 2
 82 146 88 115 100 92 c 1
 252 334 l 1
 234 351 212 359 186 359 c 0xd8
120 65 m 1
 137 48 159 40 186 40 c 0
 250 40 289 88 289 185 c 2
 289 214 l 2
 289 253 283 284 272 307 c 1
 120 65 l 1
EndSplineSet
Position2: "'cpsp' Capital Spacing lookup 0 subtable" dx=5 dy=0 dh=10 dv=0
EndChar

StartChar: Oslashacute
Encoding: 510 510 82
Width: 372
VWidth: 659
GlyphClass: 2
Flags: MW
HStem: -7 47<172.5 218 172.5 235> 359 48<154 199> 401 20G<306 343 343 343> 438 77<152 254 152 254>
VStem: 28 54<165.5 185 185 214 165.5 269.5> 289 54<185 214 214 233.5>
LayerCount: 2
Back
Fore
SplineSet
254 513 m 1xdc
 192 438 l 1
 152 438 l 1
 202 515 l 1
 254 515 l 1
 254 513 l 1xdc
301 355 m 1xbc
 328 320 343 269 343 200 c 0
 343 61 284 -7 186 -7 c 0
 149 -7 118 3 93 22 c 1
 67 -22 l 1
 29 -22 l 1
 71 44 l 1
 43 78 28 130 28 200 c 0
 28 339 88 407 186 407 c 0
 223 407 254 397 279 378 c 1xdc
 306 421 l 1
 343 421 l 1
 301 355 l 1xbc
186 359 m 0xdc
 122 359 82 312 82 214 c 2
 82 185 l 2
 82 146 88 115 100 92 c 1
 252 334 l 1
 234 351 212 359 186 359 c 0xdc
120 65 m 1
 137 48 159 40 186 40 c 0
 250 40 289 88 289 185 c 2
 289 214 l 2
 289 253 283 284 272 307 c 1
 120 65 l 1
EndSplineSet
Position2: "'cpsp' Capital Spacing lookup 0 subtable" dx=5 dy=0 dh=10 dv=0
EndChar

StartChar: Otilde
Encoding: 213 213 83
Width: 372
VWidth: 659
GlyphClass: 2
Flags: MW
HStem: -7 47<154 218 154 235> 359 48<154 218> 454 43<214.5 222.5 211.5 238.5> 472 43<149 156.5 132.5 159.5>
VStem: 28 54<136.5 185 185 214 136.5 269.5> 289 54<185 214 214 263>
LayerCount: 2
Back
Fore
SplineSet
271 515 m 1xdc
 271 488 256 454 221 454 c 0xec
 208 454 197 459 186 463 c 0
 176 468 165 472 154 472 c 0xdc
 144 472 136 467 134 454 c 1
 101 454 l 1xec
 101 480 115 515 150 515 c 0xdc
 163 515 174 510 185 506 c 0
 195 501 206 497 217 497 c 0xec
 228 497 235 501 237 515 c 1
 271 515 l 1xdc
186 407 m 0xec
 284 407 343 339 343 200 c 0
 343 61 284 -7 186 -7 c 0
 88 -7 28 61 28 200 c 0
 28 339 88 407 186 407 c 0xec
186 359 m 0
 122 359 82 312 82 214 c 2
 82 185 l 2
 82 88 122 40 186 40 c 0
 250 40 289 88 289 185 c 2
 289 214 l 2
 289 312 250 359 186 359 c 0
EndSplineSet
Position2: "'cpsp' Capital Spacing lookup 0 subtable" dx=5 dy=0 dh=10 dv=0
EndChar

StartChar: OE
Encoding: 338 338 84
Width: 478
VWidth: 659
GlyphClass: 2
Flags: MW
HStem: -7 47<139 177.5> 0 47<299 457 299 457> 181 47<299 427 299 427> 353 46<299 453 299 299> 359 48<139 177.5 118 190.5>
VStem: 28 54<136.5 185 185 214 136.5 269.5> 248 51<0 181 40 181 47 214 228 263>
AnchorPoint: "Anchor-1" 0 0 basechar 0
AnchorPoint: "Anchor-0" 239 399 basechar 0
LayerCount: 2
Back
Fore
SplineSet
159 407 m 0xae
 196 407 226 391 248 360 c 1x6e
 248 399 l 1
 453 399 l 1
 453 353 l 1
 299 353 l 1
 299 228 l 1
 427 228 l 1
 427 181 l 1
 299 181 l 1
 299 47 l 1
 457 47 l 1
 457 0 l 1
 248 0 l 1x76
 248 40 l 1
 226 8 196 -7 159 -7 c 0
 77 -7 28 61 28 200 c 0
 28 339 77 407 159 407 c 0xae
165 359 m 0
 113 359 82 312 82 214 c 2
 82 185 l 2
 82 88 113 40 165 40 c 0
 216 40 248 88 248 185 c 2
 248 214 l 2
 248 312 216 359 165 359 c 0
EndSplineSet
Position2: "'cpsp' Capital Spacing lookup 0 subtable" dx=5 dy=0 dh=10 dv=0
EndChar

StartChar: P
Encoding: 80 80 85
Width: 319
VWidth: 659
GlyphClass: 2
Flags: MW
HStem: 0 21G<41 92 41 41> 165 47<92 182 182 183 92 182> 353 46<92 182 92 92>
VStem: 41 51<0 165 212 353> 249 54<261.5 304.5>
LayerCount: 2
Back
Fore
SplineSet
92 0 m 1
 41 0 l 1
 41 399 l 1
 183 399 l 2
 262 399 303 353 303 283 c 0
 303 213 258 165 183 165 c 2
 92 165 l 1
 92 0 l 1
92 212 m 1
 182 212 l 2
 223 212 249 240 249 283 c 0
 249 326 225 353 182 353 c 2
 92 353 l 1
 92 212 l 1
EndSplineSet
Position2: "'cpsp' Capital Spacing lookup 0 subtable" dx=5 dy=0 dh=10 dv=0
EndChar

StartChar: Thorn
Encoding: 222 222 86
Width: 319
VWidth: 659
GlyphClass: 2
Flags: MW
HStem: 0 132<41 182 41 182> 86 46<92 182 182 183 92 182> 273 47<92 183 92 182> 273 126<41 92 41 182>
VStem: 41 51<0 86 0 132 132 273 320 399> 249 54<182.5 225.5>
LayerCount: 2
Back
Fore
SplineSet
92 320 m 1x6c
 183 320 l 2
 262 320 303 273 303 204 c 0
 303 133 258 86 183 86 c 2
 92 86 l 1x6c
 92 0 l 1
 41 0 l 1
 41 399 l 1
 92 399 l 1x9c
 92 320 l 1x6c
92 273 m 1
 92 132 l 1
 182 132 l 2
 223 132 249 161 249 204 c 0
 249 247 225 273 182 273 c 2
 92 273 l 1
EndSplineSet
Position2: "'cpsp' Capital Spacing lookup 0 subtable" dx=5 dy=0 dh=10 dv=0
EndChar

StartChar: Q
Encoding: 81 81 87
Width: 372
VWidth: 659
GlyphClass: 2
Flags: MW
HStem: -7 47<154 186 186 193> 359 48<154 218>
VStem: 28 54<136.5 185 185 214 136.5 269.5> 289 54<185 214 214 263>
LayerCount: 2
Back
Fore
SplineSet
28 200 m 0
 28 339 88 407 186 407 c 0
 284 407 343 339 343 200 c 0
 343 94 308 28 248 4 c 1
 331 -72 l 1
 262 -72 l 1
 193 -7 l 1
 186 -7 l 2
 88 -7 28 61 28 200 c 0
82 185 m 2
 82 88 122 40 186 40 c 0
 250 40 289 88 289 185 c 2
 289 214 l 2
 289 312 250 359 186 359 c 0
 122 359 82 312 82 214 c 2
 82 185 l 2
EndSplineSet
Position2: "'cpsp' Capital Spacing lookup 0 subtable" dx=5 dy=0 dh=10 dv=0
EndChar

StartChar: R
Encoding: 82 82 88
Width: 345
VWidth: 659
GlyphClass: 2
Flags: MW
HStem: 0 21G<41 92 41 41 273 330 273 273> 177 46<92 199 92 200> 353 46<92 92 92 200>
VStem: 41 51<0 177 0 223 223 353> 268 53<269 309>
AnchorPoint: "Anchor-1" 173 0 basechar 0
AnchorPoint: "Anchor-0" 173 399 basechar 0
LayerCount: 2
Back
Fore
SplineSet
202 399 m 2
 280 399 321 355 321 289 c 0
 321 239 295 201 250 186 c 1
 330 0 l 1
 273 0 l 1
 199 177 l 1
 92 177 l 1
 92 0 l 1
 41 0 l 1
 41 399 l 1
 202 399 l 2
92 353 m 1
 92 223 l 1
 200 223 l 2
 241 223 268 249 268 289 c 0
 268 329 244 353 200 353 c 2
 92 353 l 1
EndSplineSet
Position2: "'cpsp' Capital Spacing lookup 0 subtable" dx=5 dy=0 dh=10 dv=0
EndChar

StartChar: Racute
Encoding: 340 340 89
Width: 345
VWidth: 659
GlyphClass: 2
Flags: MW
HStem: 0 21G<41 92 41 41 273 330 273 273> 177 46<92 199 92 200> 353 46<92 92 92 200> 438 77<125 227 125 227>
VStem: 41 51<0 177 0 223 223 353> 268 53<269 309>
LayerCount: 2
Back
Fore
SplineSet
228 513 m 1
 165 438 l 1
 125 438 l 1
 175 515 l 1
 227 515 l 1
 228 513 l 1
202 399 m 2
 280 399 321 355 321 289 c 0
 321 239 295 201 250 186 c 1
 330 0 l 1
 273 0 l 1
 199 177 l 1
 92 177 l 1
 92 0 l 1
 41 0 l 1
 41 399 l 1
 202 399 l 2
92 353 m 1
 92 223 l 1
 200 223 l 2
 241 223 268 249 268 289 c 0
 268 329 244 353 200 353 c 2
 92 353 l 1
EndSplineSet
Position2: "'cpsp' Capital Spacing lookup 0 subtable" dx=5 dy=0 dh=10 dv=0
EndChar

StartChar: Rcaron
Encoding: 344 344 90
Width: 345
VWidth: 659
GlyphClass: 2
Flags: MW
HStem: 0 21G<41 92 41 41 273 330 273 273> 177 46<92 199 92 200> 353 46<92 92 92 200> 436 79<100 194 100 149>
VStem: 41 51<0 177 0 223 223 353> 268 53<269 309>
LayerCount: 2
Back
Fore
SplineSet
194 436 m 1
 149 436 l 1
 100 515 l 1
 146 515 l 1
 173 469 l 1
 198 515 l 1
 245 515 l 1
 194 436 l 1
202 399 m 2
 280 399 321 355 321 289 c 0
 321 239 295 201 250 186 c 1
 330 0 l 1
 273 0 l 1
 199 177 l 1
 92 177 l 1
 92 0 l 1
 41 0 l 1
 41 399 l 1
 202 399 l 2
92 353 m 1
 92 223 l 1
 200 223 l 2
 241 223 268 249 268 289 c 0
 268 329 244 353 200 353 c 2
 92 353 l 1
EndSplineSet
Position2: "'cpsp' Capital Spacing lookup 0 subtable" dx=5 dy=0 dh=10 dv=0
EndChar

StartChar: Rcommaaccent
Encoding: 342 342 91
Width: 345
VWidth: 659
GlyphClass: 2
Flags: MW
HStem: -88 53<148 168 148 198> 0 21G<41 92 41 41 273 330 273 273> 177 46<92 199 92 200> 353 46<92 92 92 200>
VStem: 41 51<0 177 0 223 223 353> 148 50<-84 -84 -84 -35 -84 -35> 268 53<269 309>
LayerCount: 2
Back
Fore
SplineSet
202 399 m 2
 280 399 321 355 321 289 c 0
 321 239 295 201 250 186 c 1
 330 0 l 1
 273 0 l 1
 199 177 l 1
 92 177 l 1
 92 0 l 1
 41 0 l 1
 41 399 l 1
 202 399 l 2
92 353 m 1
 92 223 l 1
 200 223 l 2
 241 223 268 249 268 289 c 0
 268 329 244 353 200 353 c 2
 92 353 l 1
198 -84 m 1
 181 -129 l 1
 154 -129 l 1
 168 -88 l 1
 148 -88 l 1
 148 -35 l 1
 198 -35 l 1
 198 -84 l 1
EndSplineSet
Position2: "'cpsp' Capital Spacing lookup 0 subtable" dx=5 dy=0 dh=10 dv=0
EndChar

StartChar: S
Encoding: 83 83 92
Width: 319
VWidth: 659
GlyphClass: 2
Flags: MW
HStem: -7 47<133.5 183 133.5 197> 359 48<139 180>
VStem: 24 53<88 125 88 125> 32 54<282.5 323 282.5 336> 231 53<287 294 287 296 287 316.5> 240 54<85 130>
AnchorPoint: "Anchor-1" 159 0 basechar 0
AnchorPoint: "Anchor-0" 159 399 basechar 0
LayerCount: 2
Back
Fore
SplineSet
159 407 m 0xe8
 229 407 284 374 284 294 c 2
 284 287 l 1
 231 287 l 1
 231 296 l 2
 231 337 200 359 160 359 c 0
 118 359 86 342 86 304 c 0xd8
 86 261 129 247 175 231 c 0
 232 213 294 192 294 115 c 0
 294 26 236 -7 158 -7 c 0
 86 -7 24 25 24 113 c 2
 24 125 l 1
 78 125 l 1
 77 113 l 1xe4
 77 63 111 40 156 40 c 0
 210 40 240 63 240 107 c 0
 240 153 197 167 150 182 c 0
 94 201 32 221 32 299 c 0xd4
 32 373 89 407 159 407 c 0xe8
EndSplineSet
Position2: "'cpsp' Capital Spacing lookup 0 subtable" dx=5 dy=0 dh=10 dv=0
EndChar

StartChar: Sacute
Encoding: 346 346 93
Width: 319
VWidth: 659
GlyphClass: 2
Flags: MW
HStem: -7 47<133.5 183 133.5 197> 359 48<139 180> 438 77<125 227 125 227>
VStem: 24 53<88 125 88 125> 32 54<282.5 323 282.5 336> 231 53<287 294 287 296 287 316.5> 240 54<85 130>
LayerCount: 2
Back
Fore
SplineSet
228 513 m 1xf4
 165 438 l 1
 125 438 l 1
 175 515 l 1
 227 515 l 1
 228 513 l 1xf4
159 407 m 0
 229 407 284 374 284 294 c 2
 284 287 l 1
 231 287 l 1
 231 296 l 2
 231 337 200 359 160 359 c 0
 118 359 86 342 86 304 c 0xec
 86 261 129 247 175 231 c 0
 232 213 294 192 294 115 c 0
 294 26 236 -7 158 -7 c 0
 86 -7 24 25 24 113 c 2
 24 125 l 1
 78 125 l 1
 77 113 l 1xf2
 77 63 111 40 156 40 c 0
 210 40 240 63 240 107 c 0
 240 153 197 167 150 182 c 0
 94 201 32 221 32 299 c 0xea
 32 373 89 407 159 407 c 0
EndSplineSet
Position2: "'cpsp' Capital Spacing lookup 0 subtable" dx=5 dy=0 dh=10 dv=0
EndChar

StartChar: Scaron
Encoding: 352 352 94
Width: 319
VWidth: 659
GlyphClass: 2
Flags: MW
HStem: -7 47<133.5 183 133.5 197> 359 48<139 180> 436 79<87 136 87 182>
VStem: 24 53<88 125 88 125> 32 54<282.5 323 282.5 336> 231 53<287 294 287 296 287 316.5> 240 54<85 130>
LayerCount: 2
Back
Fore
SplineSet
136 436 m 1xf4
 87 515 l 1
 133 515 l 1
 159 469 l 1
 185 515 l 1
 232 515 l 1
 182 436 l 1
 136 436 l 1xf4
159 407 m 0xcc
 229 407 284 374 284 294 c 2
 284 287 l 1
 231 287 l 1
 231 296 l 2
 231 337 200 359 160 359 c 0
 118 359 86 342 86 304 c 0xcc
 86 261 129 247 175 231 c 0
 232 213 294 192 294 115 c 0
 294 26 236 -7 158 -7 c 0
 86 -7 24 25 24 113 c 2
 24 125 l 1
 78 125 l 1
 77 113 l 1
 77 63 111 40 156 40 c 0
 210 40 240 63 240 107 c 0xd2
 240 153 197 167 150 182 c 0
 94 201 32 221 32 299 c 0
 32 373 89 407 159 407 c 0xcc
EndSplineSet
Position2: "'cpsp' Capital Spacing lookup 0 subtable" dx=5 dy=0 dh=10 dv=0
EndChar

StartChar: Scedilla
Encoding: 350 350 95
Width: 319
VWidth: 659
GlyphClass: 2
Flags: MW
HStem: -106 33<145.5 149 149 155.5 105 165.5> -45 24<131 167> -6 46<137 137> 359 48<139 180>
VStem: 24 53<88 125 88 125> 32 54<282.5 323 282.5 336> 134 34 170 44<-64.5 -54> 231 53<287 294 287 296 287 316.5> 240 54<85 130>
LayerCount: 2
Back
Fore
SplineSet
159 407 m 0xb880
 229 407 284 374 284 294 c 2
 284 287 l 1
 231 287 l 1
 231 296 l 2xb880
 231 337 200 359 160 359 c 0
 118 359 86 342 86 304 c 0
 86 261 129 247 175 231 c 0
 232 213 294 192 294 115 c 0
 294 30 241 -3 169 -7 c 1xb640
 167 -21 l 1xf980
 192 -22 214 -32 214 -59 c 0
 214 -98 177 -106 154 -106 c 0xb980
 137 -106 119 -104 105 -101 c 1
 105 -73 l 1xba80
 149 -73 l 2xb980
 162 -73 170 -70 170 -59 c 0
 170 -49 165 -45 150 -45 c 2xf980
 131 -45 l 1xfa80
 137 -6 l 1
 73 0 24 34 24 113 c 2
 24 125 l 1
 78 125 l 1
 77 113 l 1xb880
 77 63 111 40 156 40 c 0
 210 40 240 63 240 107 c 0
 240 153 197 167 150 182 c 0
 94 201 32 221 32 299 c 0xb440
 32 373 89 407 159 407 c 0xb880
EndSplineSet
Substitution2: "'locl' Localized Forms in Latin lookup 6 subtable" Scommaaccent
Substitution2: "'locl' Localized Forms in Latin lookup 5 subtable" Scommaaccent
Substitution2: "'aalt' Access All Alternates lookup 0 subtable" Scommaaccent
Position2: "'cpsp' Capital Spacing lookup 0 subtable" dx=5 dy=0 dh=10 dv=0
EndChar

StartChar: Scircumflex
Encoding: 348 348 96
Width: 319
VWidth: 659
GlyphClass: 2
Flags: MW
HStem: -7 47<133.5 183 133.5 197> 359 48<139 180> 435 79<87 183 87 183 137 232 137 185>
VStem: 24 53<88 125 88 125> 32 54<282.5 323 282.5 336> 231 53<287 294 287 296 287 316.5> 240 54<85 130>
LayerCount: 2
Back
Fore
SplineSet
185 435 m 1xf4
 159 481 l 1
 133 435 l 1
 87 435 l 1
 137 514 l 1
 183 514 l 1
 232 435 l 1
 185 435 l 1xf4
159 407 m 0xcc
 229 407 284 374 284 294 c 2
 284 287 l 1
 231 287 l 1
 231 296 l 2
 231 337 200 359 160 359 c 0
 118 359 86 342 86 304 c 0xcc
 86 261 129 247 175 231 c 0
 232 213 294 192 294 115 c 0
 294 26 236 -7 158 -7 c 0
 86 -7 24 25 24 113 c 2
 24 125 l 1
 78 125 l 1
 77 113 l 1
 77 63 111 40 156 40 c 0
 210 40 240 63 240 107 c 0xd2
 240 153 197 167 150 182 c 0
 94 201 32 221 32 299 c 0
 32 373 89 407 159 407 c 0xcc
EndSplineSet
Position2: "'cpsp' Capital Spacing lookup 0 subtable" dx=5 dy=0 dh=10 dv=0
EndChar

StartChar: Scommaaccent
Encoding: 536 536 97
Width: 319
VWidth: 659
GlyphClass: 2
Flags: MW
HStem: -88 53<134 154 134 184> -7 47<133.5 183 133.5 197> 359 48<139 180>
VStem: 24 53<88 125 88 125> 32 54<282.5 323 282.5 336> 134 50<-84 -35 -84 -35 -84 -35> 231 53<287 294 287 296 287 316.5> 240 54<85 130>
AnchorPoint: "Anchor-1" 159 0 basechar 0
AnchorPoint: "Anchor-0" 159 399 basechar 0
LayerCount: 2
Back
Fore
SplineSet
159 407 m 0x76
 229 407 284 374 284 294 c 2
 284 287 l 1
 231 287 l 1
 231 296 l 2
 231 337 200 359 160 359 c 0
 118 359 86 342 86 304 c 0x6e
 86 261 129 247 175 231 c 0
 232 213 294 192 294 115 c 0
 294 26 236 -7 158 -7 c 0
 86 -7 24 25 24 113 c 2
 24 125 l 1
 78 125 l 1
 77 113 l 1x75
 77 63 111 40 156 40 c 0
 210 40 240 63 240 107 c 0
 240 153 197 167 150 182 c 0
 94 201 32 221 32 299 c 0x6d
 32 373 89 407 159 407 c 0x76
166 -129 m 1xf6
 140 -129 l 1
 154 -88 l 1
 134 -88 l 1
 134 -35 l 1
 184 -35 l 1
 184 -84 l 1
 166 -129 l 1xf6
EndSplineSet
Position2: "'cpsp' Capital Spacing lookup 0 subtable" dx=5 dy=0 dh=10 dv=0
EndChar

StartChar: T
Encoding: 84 84 98
Width: 292
VWidth: 659
GlyphClass: 2
Flags: MW
HStem: 0 21G<120 171 120 120> 353 46<11 120 11 280 171 280 171 171>
VStem: 120 51<0 353 0 353>
AnchorPoint: "Anchor-1" 146 0 basechar 0
AnchorPoint: "Anchor-0" 146 399 basechar 0
LayerCount: 2
Back
Fore
SplineSet
280 353 m 1
 171 353 l 1
 171 0 l 1
 120 0 l 1
 120 353 l 1
 11 353 l 1
 11 399 l 1
 280 399 l 1
 280 353 l 1
EndSplineSet
Position2: "'cpsp' Capital Spacing lookup 0 subtable" dx=5 dy=0 dh=10 dv=0
EndChar

StartChar: Tbar
Encoding: 358 358 99
Width: 292
VWidth: 659
GlyphClass: 2
Flags: MW
HStem: 0 21G<120 171 120 120> 186 43<45 120 45 120 171 248> 353 46<11 120 11 280 171 280 171 171>
VStem: 120 51<0 186 0 186 229 353>
LayerCount: 2
Back
Fore
SplineSet
280 353 m 1
 171 353 l 1
 171 229 l 1
 248 229 l 1
 248 186 l 1
 171 186 l 1
 171 0 l 1
 120 0 l 1
 120 186 l 1
 45 186 l 1
 45 229 l 1
 120 229 l 1
 120 353 l 1
 11 353 l 1
 11 399 l 1
 280 399 l 1
 280 353 l 1
EndSplineSet
Position2: "'cpsp' Capital Spacing lookup 0 subtable" dx=5 dy=0 dh=10 dv=0
EndChar

StartChar: Tcaron
Encoding: 356 356 100
Width: 292
VWidth: 659
GlyphClass: 2
Flags: MW
HStem: 0 21G<120 171 120 120> 353 46<11 120 11 280 171 280 171 171> 436 79<73 168 73 123>
VStem: 120 51<0 353 0 353>
LayerCount: 2
Back
Fore
SplineSet
168 436 m 1
 123 436 l 1
 73 515 l 1
 120 515 l 1
 146 469 l 1
 172 515 l 1
 218 515 l 1
 168 436 l 1
280 353 m 1
 171 353 l 1
 171 0 l 1
 120 0 l 1
 120 353 l 1
 11 353 l 1
 11 399 l 1
 280 399 l 1
 280 353 l 1
EndSplineSet
Position2: "'cpsp' Capital Spacing lookup 0 subtable" dx=5 dy=0 dh=10 dv=0
EndChar

StartChar: uni0162
Encoding: 354 354 101
Width: 292
VWidth: 659
GlyphClass: 2
Flags: MW
HStem: -106 33<131.5 135 135 141.5 91 152> -45 24<117 153> 0 21G<120 124 120 120 157 171 157 157> 353 46<11 120 11 280 171 171 171 280>
VStem: 120 51<0 353> 156 44<-64.5 -54>
AnchorPoint: "Anchor-1" 146 0 basechar 0
AnchorPoint: "Anchor-0" 146 399 basechar 0
LayerCount: 2
Back
Fore
SplineSet
171 0 m 1xb8
 157 0 l 1xb8
 153 -21 l 1xf8
 178 -22 200 -32 200 -59 c 0
 200 -98 164 -106 140 -106 c 0
 123 -106 105 -104 91 -101 c 1
 91 -73 l 1
 135 -73 l 2xb4
 148 -73 156 -70 156 -59 c 0
 156 -49 152 -45 137 -45 c 2xf4
 117 -45 l 1xf8
 124 0 l 1
 120 0 l 1
 120 353 l 1
 11 353 l 1
 11 399 l 1
 280 399 l 1
 280 353 l 1
 171 353 l 1
 171 0 l 1xb8
EndSplineSet
Substitution2: "'locl' Localized Forms in Latin lookup 6 subtable" uni021A
Substitution2: "'locl' Localized Forms in Latin lookup 5 subtable" uni021A
Substitution2: "'aalt' Access All Alternates lookup 0 subtable" uni021A
Position2: "'cpsp' Capital Spacing lookup 0 subtable" dx=5 dy=0 dh=10 dv=0
EndChar

StartChar: uni021A
Encoding: 538 538 102
Width: 292
VWidth: 659
GlyphClass: 2
Flags: MW
HStem: -88 53<121 141 121 171> 0 21G<120 171 120 120> 353 46<11 120 11 280 171 280 171 171>
VStem: 120 51<0 353>
LayerCount: 2
Back
Fore
SplineSet
280 353 m 1
 171 353 l 1
 171 0 l 1
 120 0 l 1
 120 353 l 1
 11 353 l 1
 11 399 l 1
 280 399 l 1
 280 353 l 1
171 -84 m 1
 154 -129 l 1
 128 -129 l 1
 141 -88 l 1
 121 -88 l 1
 121 -35 l 1
 171 -35 l 1
 171 -84 l 1
EndSplineSet
Position2: "'cpsp' Capital Spacing lookup 0 subtable" dx=5 dy=0 dh=10 dv=0
EndChar

StartChar: U
Encoding: 85 85 103
Width: 345
VWidth: 659
GlyphClass: 2
Flags: MW
HStem: -7 47<148 198 148 213.5> 379 20G<41 92 92 92 253 304 304 304>
VStem: 41 51<130 399> 253 51<127 130 130 399>
AnchorPoint: "Anchor-1" 0 0 basechar 0
AnchorPoint: "Anchor-0" 173 399 basechar 0
LayerCount: 2
Back
Fore
SplineSet
304 130 m 2
 304 40 254 -7 173 -7 c 0
 90 -7 41 40 41 130 c 2
 41 399 l 1
 92 399 l 1
 92 127 l 2
 92 71 123 40 173 40 c 0
 223 40 253 71 253 127 c 2
 253 399 l 1
 304 399 l 1
 304 130 l 2
EndSplineSet
Position2: "'cpsp' Capital Spacing lookup 0 subtable" dx=5 dy=0 dh=10 dv=0
EndChar

StartChar: Uacute
Encoding: 218 218 104
Width: 345
VWidth: 659
GlyphClass: 2
Flags: MW
HStem: -7 47<148 198 148 213.5> 379 20G<41 92 92 92 253 304 304 304> 438 77<138 240 138 240>
VStem: 41 51<130 399> 253 51<127 130 130 399>
LayerCount: 2
Back
Fore
SplineSet
241 513 m 1
 179 438 l 1
 138 438 l 1
 188 515 l 1
 240 515 l 1
 241 513 l 1
304 130 m 2
 304 40 254 -7 173 -7 c 0
 90 -7 41 40 41 130 c 2
 41 399 l 1
 92 399 l 1
 92 127 l 2
 92 71 123 40 173 40 c 0
 223 40 253 71 253 127 c 2
 253 399 l 1
 304 399 l 1
 304 130 l 2
EndSplineSet
Position2: "'cpsp' Capital Spacing lookup 0 subtable" dx=5 dy=0 dh=10 dv=0
EndChar

StartChar: Ubreve
Encoding: 364 364 105
Width: 345
VWidth: 659
GlyphClass: 2
Flags: MW
HStem: -7 47<148 198 148 213.5> 379 20G<41 92 92 92 253 304 304 304> 458 57<100 195>
VStem: 41 51<130 399> 253 51<127 130 130 399>
LayerCount: 2
Back
Fore
SplineSet
244 515 m 1
 244 488 217 458 173 458 c 0
 128 458 100 488 100 515 c 1
 138 515 l 1
 140 506 153 495 173 495 c 0
 192 495 206 506 208 515 c 1
 244 515 l 1
304 130 m 2
 304 40 254 -7 173 -7 c 0
 90 -7 41 40 41 130 c 2
 41 399 l 1
 92 399 l 1
 92 127 l 2
 92 71 123 40 173 40 c 0
 223 40 253 71 253 127 c 2
 253 399 l 1
 304 399 l 1
 304 130 l 2
EndSplineSet
Position2: "'cpsp' Capital Spacing lookup 0 subtable" dx=5 dy=0 dh=10 dv=0
EndChar

StartChar: Ucircumflex
Encoding: 219 219 106
Width: 345
VWidth: 659
GlyphClass: 2
Flags: MW
HStem: -7 47<148 198 148 213.5> 379 20G<41 92 92 92 253 304 304 304> 435 79<100 195 100 195 150 245 150 198>
VStem: 41 51<130 399> 253 51<127 130 130 399>
LayerCount: 2
Back
Fore
SplineSet
245 435 m 1
 198 435 l 1
 173 481 l 1
 146 435 l 1
 100 435 l 1
 150 514 l 1
 195 514 l 1
 245 435 l 1
304 130 m 2
 304 40 254 -7 173 -7 c 0
 90 -7 41 40 41 130 c 2
 41 399 l 1
 92 399 l 1
 92 127 l 2
 92 71 123 40 173 40 c 0
 223 40 253 71 253 127 c 2
 253 399 l 1
 304 399 l 1
 304 130 l 2
EndSplineSet
Position2: "'cpsp' Capital Spacing lookup 0 subtable" dx=5 dy=0 dh=10 dv=0
EndChar

StartChar: Udieresis
Encoding: 220 220 107
Width: 345
VWidth: 659
GlyphClass: 2
Flags: MW
HStem: -7 47<148 198 148 213.5> 379 20G<41 92 92 92 253 304 304 304> 459 56<103 154 103 154 103 190 190 242>
VStem: 41 51<130 399> 103 51<459 515> 190 52<459 515> 253 51<127 130 130 399>
LayerCount: 2
Back
Fore
SplineSet
154 459 m 1
 103 459 l 1
 103 515 l 1
 154 515 l 1
 154 459 l 1
242 459 m 1
 190 459 l 1
 190 515 l 1
 242 515 l 1
 242 459 l 1
304 130 m 2xf2
 304 40 254 -7 173 -7 c 0
 90 -7 41 40 41 130 c 2
 41 399 l 1
 92 399 l 1
 92 127 l 2
 92 71 123 40 173 40 c 0
 223 40 253 71 253 127 c 2
 253 399 l 1
 304 399 l 1
 304 130 l 2xf2
EndSplineSet
Position2: "'cpsp' Capital Spacing lookup 0 subtable" dx=5 dy=0 dh=10 dv=0
EndChar

StartChar: Ugrave
Encoding: 217 217 108
Width: 345
VWidth: 659
GlyphClass: 2
Flags: MW
HStem: -7 47<148 198 148 213.5> 379 20G<41 92 92 92 253 304 304 304> 438 77<104 207 104 167>
VStem: 41 51<130 399> 253 51<127 130 130 399>
LayerCount: 2
Back
Fore
SplineSet
207 438 m 1
 167 438 l 1
 103 513 l 1
 104 515 l 1
 158 515 l 1
 207 438 l 1
304 130 m 2
 304 40 254 -7 173 -7 c 0
 90 -7 41 40 41 130 c 2
 41 399 l 1
 92 399 l 1
 92 127 l 2
 92 71 123 40 173 40 c 0
 223 40 253 71 253 127 c 2
 253 399 l 1
 304 399 l 1
 304 130 l 2
EndSplineSet
Position2: "'cpsp' Capital Spacing lookup 0 subtable" dx=5 dy=0 dh=10 dv=0
EndChar

StartChar: Uhungarumlaut
Encoding: 368 368 109
Width: 345
VWidth: 659
GlyphClass: 2
Flags: MW
HStem: -7 47<148 198 148 213.5> 379 20G<41 92 92 92 253 304 304 304> 438 77<153 157 117 205 193 193 193 205 229 233>
VStem: 41 51<130 399> 253 51<127 130 130 399>
LayerCount: 2
Back
Fore
SplineSet
206 513 m 1
 157 438 l 1
 117 438 l 1
 153 515 l 1
 205 515 l 1
 206 513 l 1
281 513 m 1
 233 438 l 1
 193 438 l 1
 229 515 l 1
 281 515 l 1
 281 513 l 1
304 130 m 2
 304 40 254 -7 173 -7 c 0
 90 -7 41 40 41 130 c 2
 41 399 l 1
 92 399 l 1
 92 127 l 2
 92 71 123 40 173 40 c 0
 223 40 253 71 253 127 c 2
 253 399 l 1
 304 399 l 1
 304 130 l 2
EndSplineSet
Position2: "'cpsp' Capital Spacing lookup 0 subtable" dx=5 dy=0 dh=10 dv=0
EndChar

StartChar: Umacron
Encoding: 362 362 110
Width: 345
VWidth: 659
GlyphClass: 2
Flags: MW
HStem: -7 47<148 198 148 213.5> 379 20G<41 92 92 92 253 304 304 304> 442 42<100 245 100 245>
VStem: 41 51<130 399> 100 145<442 484 442 484> 253 51<127 130 130 399>
LayerCount: 2
Back
Fore
SplineSet
245 442 m 1
 100 442 l 1
 100 484 l 1
 245 484 l 1
 245 442 l 1
304 130 m 2xf4
 304 40 254 -7 173 -7 c 0
 90 -7 41 40 41 130 c 2
 41 399 l 1
 92 399 l 1
 92 127 l 2
 92 71 123 40 173 40 c 0
 223 40 253 71 253 127 c 2
 253 399 l 1
 304 399 l 1
 304 130 l 2xf4
EndSplineSet
Position2: "'cpsp' Capital Spacing lookup 0 subtable" dx=5 dy=0 dh=10 dv=0
EndChar

StartChar: Uogonek
Encoding: 370 370 111
Width: 345
VWidth: 659
GlyphClass: 2
Flags: MW
HStem: -106 38<212.5 260> -7 47<148 173 173 186> 379 20G<41 92 92 92 253 304 304 304>
VStem: 41 51<130 399> 170 45<-44.5 -43.5> 253 51<127 130 130 399>
LayerCount: 2
Back
Fore
SplineSet
253 399 m 1
 304 399 l 1
 304 130 l 2
 304 64 277 22 231 3 c 1
 224 -5 215 -20 215 -36 c 0
 215 -53 223 -68 243 -68 c 2
 260 -68 l 1
 260 -98 l 1
 248 -103 237 -106 225 -106 c 0
 200 -106 170 -94 170 -53 c 0
 170 -34 177 -19 186 -7 c 1
 173 -7 l 2
 90 -7 41 40 41 130 c 2
 41 399 l 1
 92 399 l 1
 92 127 l 2
 92 71 123 40 173 40 c 0
 223 40 253 71 253 127 c 2
 253 399 l 1
EndSplineSet
Position2: "'cpsp' Capital Spacing lookup 0 subtable" dx=5 dy=0 dh=10 dv=0
EndChar

StartChar: Uring
Encoding: 366 366 112
Width: 345
VWidth: 659
GlyphClass: 2
Flags: MW
HStem: -7 47<148 198 148 213.5> 379 20G<41 92 92 92 253 304 304 304> 421 26<164.5 180.5 164.5 188.5> 507 26<164.5 180.5>
VStem: 41 51<130 399> 117 26<469 485.5 469 492.5> 202 27<469 485.5> 253 51<127 130 130 399>
LayerCount: 2
Back
Fore
SplineSet
173 533 m 0
 204 533 229 507 229 477 c 0
 229 446 204 421 173 421 c 0
 142 421 117 445 117 477 c 0
 117 508 142 533 173 533 c 0
173 507 m 0
 156 507 143 494 143 477 c 0
 143 461 156 447 173 447 c 0
 188 447 202 461 202 477 c 0
 202 494 188 507 173 507 c 0
304 130 m 2xd9
 304 40 254 -7 173 -7 c 0
 90 -7 41 40 41 130 c 2
 41 399 l 1
 92 399 l 1
 92 127 l 2
 92 71 123 40 173 40 c 0
 223 40 253 71 253 127 c 2
 253 399 l 1
 304 399 l 1
 304 130 l 2xd9
EndSplineSet
Position2: "'cpsp' Capital Spacing lookup 0 subtable" dx=5 dy=0 dh=10 dv=0
EndChar

StartChar: Utilde
Encoding: 360 360 113
Width: 345
VWidth: 659
GlyphClass: 2
Flags: MW
HStem: -7 47<148 198 148 213.5> 379 20G<41 92 92 92 253 304 304 304> 454 43<201.5 209 198.5 225.5> 472 43<135.5 143.5 119.5 146.5>
VStem: 41 51<130 399> 253 51<127 130 130 399>
LayerCount: 2
Back
Fore
SplineSet
258 515 m 1xdc
 258 488 243 454 208 454 c 0xec
 195 454 184 459 172 463 c 0
 162 468 152 472 141 472 c 0xdc
 130 472 123 467 121 454 c 1
 88 454 l 1xec
 88 480 102 515 137 515 c 0xdc
 150 515 161 510 172 506 c 0
 182 501 193 497 204 497 c 0xec
 214 497 222 501 223 515 c 1
 258 515 l 1xdc
304 130 m 2
 304 40 254 -7 173 -7 c 0
 90 -7 41 40 41 130 c 2
 41 399 l 1
 92 399 l 1
 92 127 l 2
 92 71 123 40 173 40 c 0
 223 40 253 71 253 127 c 2
 253 399 l 1
 304 399 l 1
 304 130 l 2
EndSplineSet
Position2: "'cpsp' Capital Spacing lookup 0 subtable" dx=5 dy=0 dh=10 dv=0
EndChar

StartChar: V
Encoding: 86 86 114
Width: 319
VWidth: 659
GlyphClass: 2
Flags: MW
HStem: 0 57<127 163 160 163 160 192> 379 20G<5 61 61 61 264 314 314 314>
VStem: 5 309<399 399>
LayerCount: 2
Back
Fore
SplineSet
127 0 m 1
 5 399 l 1
 61 399 l 1
 160 57 l 1
 163 57 l 1
 264 399 l 1
 314 399 l 1
 192 0 l 1
 127 0 l 1
EndSplineSet
Position2: "'cpsp' Capital Spacing lookup 0 subtable" dx=5 dy=0 dh=10 dv=0
EndChar

StartChar: W
Encoding: 87 87 115
Width: 451
VWidth: 659
GlyphClass: 2
Flags: MW
HStem: 0 53<133 136 133 165 98 136 323 325> 351 48<223 226 223 223>
VStem: 6 439<399 399>
AnchorPoint: "Anchor-1" 0 0 basechar 0
AnchorPoint: "Anchor-0" 225 399 basechar 0
LayerCount: 2
Back
Fore
SplineSet
286 0 m 1
 237 271 l 1
 226 351 l 1
 223 351 l 1
 223 351 217 298 213 271 c 2
 165 0 l 1
 98 0 l 1
 6 399 l 1
 60 399 l 1
 121 123 l 2
 127 100 133 53 133 53 c 1
 136 53 l 1
 136 53 140 88 146 123 c 2
 192 399 l 1
 263 399 l 1
 312 123 l 2
 318 94 323 53 323 53 c 1
 325 53 l 1
 325 53 331 98 337 123 c 2
 399 399 l 1
 445 399 l 1
 353 0 l 1
 286 0 l 1
EndSplineSet
Position2: "'cpsp' Capital Spacing lookup 0 subtable" dx=5 dy=0 dh=10 dv=0
EndChar

StartChar: Wacute
Encoding: 7810 7810 116
Width: 451
VWidth: 659
GlyphClass: 2
Flags: MW
HStem: 0 53<133 136 133 165 98 136 323 325> 351 48<223 226 223 223> 438 77<191 293 191 293>
VStem: 6 439<399 399>
LayerCount: 2
Back
Fore
SplineSet
294 513 m 1
 231 438 l 1
 191 438 l 1
 241 515 l 1
 293 515 l 1
 294 513 l 1
353 0 m 1
 286 0 l 1
 237 271 l 1
 226 351 l 1
 223 351 l 1
 223 351 217 298 213 271 c 2
 165 0 l 1
 98 0 l 1
 6 399 l 1
 60 399 l 1
 121 123 l 2
 127 100 133 53 133 53 c 1
 136 53 l 1
 136 53 140 88 146 123 c 2
 192 399 l 1
 263 399 l 1
 312 123 l 2
 318 94 323 53 323 53 c 1
 325 53 l 1
 325 53 331 98 337 123 c 2
 399 399 l 1
 445 399 l 1
 353 0 l 1
EndSplineSet
Position2: "'cpsp' Capital Spacing lookup 0 subtable" dx=5 dy=0 dh=10 dv=0
EndChar

StartChar: Wcircumflex
Encoding: 372 372 117
Width: 451
VWidth: 659
GlyphClass: 2
Flags: MW
HStem: 0 53<133 136 133 165 98 136 323 325> 351 48<223 226 223 223> 435 79<153 248 153 248 204 299 204 252>
VStem: 6 439<399 399>
LayerCount: 2
Back
Fore
SplineSet
252 435 m 1
 226 481 l 1
 200 435 l 1
 153 435 l 1
 204 514 l 1
 248 514 l 1
 299 435 l 1
 252 435 l 1
286 0 m 1
 237 271 l 1
 226 351 l 1
 223 351 l 1
 223 351 217 298 213 271 c 2
 165 0 l 1
 98 0 l 1
 6 399 l 1
 60 399 l 1
 121 123 l 2
 127 100 133 53 133 53 c 1
 136 53 l 1
 136 53 140 88 146 123 c 2
 192 399 l 1
 263 399 l 1
 312 123 l 2
 318 94 323 53 323 53 c 1
 325 53 l 1
 325 53 331 98 337 123 c 2
 399 399 l 1
 445 399 l 1
 353 0 l 1
 286 0 l 1
EndSplineSet
Position2: "'cpsp' Capital Spacing lookup 0 subtable" dx=5 dy=0 dh=10 dv=0
EndChar

StartChar: Wdieresis
Encoding: 7812 7812 118
Width: 451
VWidth: 659
GlyphClass: 2
Flags: MW
HStem: 0 53<133 136 133 165 98 136 323 325> 351 48<223 226 223 223> 459 56<157 207 157 207 157 244 244 295>
VStem: 157 50<459 515> 244 51<459 515>
LayerCount: 2
Back
Fore
SplineSet
207 459 m 1
 157 459 l 1
 157 515 l 1
 207 515 l 1
 207 459 l 1
295 459 m 1
 244 459 l 1
 244 515 l 1
 295 515 l 1
 295 459 l 1
353 0 m 1
 286 0 l 1
 237 271 l 1
 226 351 l 1
 223 351 l 1
 223 351 217 298 213 271 c 2
 165 0 l 1
 98 0 l 1
 6 399 l 1
 60 399 l 1
 121 123 l 2
 127 100 133 53 133 53 c 1
 136 53 l 1
 136 53 140 88 146 123 c 2
 192 399 l 1
 263 399 l 1
 312 123 l 2
 318 94 323 53 323 53 c 1
 325 53 l 1
 325 53 331 98 337 123 c 2
 399 399 l 1
 445 399 l 1
 353 0 l 1
EndSplineSet
Position2: "'cpsp' Capital Spacing lookup 0 subtable" dx=5 dy=0 dh=10 dv=0
EndChar

StartChar: Wgrave
Encoding: 7808 7808 119
Width: 451
VWidth: 659
GlyphClass: 2
Flags: MW
HStem: 0 53<133 136 133 165 98 136 323 325> 351 48<223 226 223 223> 438 77<158 260 158 220>
VStem: 6 439<399 399>
LayerCount: 2
Back
Fore
SplineSet
260 438 m 1
 220 438 l 1
 158 513 l 1
 158 515 l 1
 210 515 l 1
 260 438 l 1
353 0 m 1
 286 0 l 1
 237 271 l 1
 226 351 l 1
 223 351 l 1
 223 351 217 298 213 271 c 2
 165 0 l 1
 98 0 l 1
 6 399 l 1
 60 399 l 1
 121 123 l 2
 127 100 133 53 133 53 c 1
 136 53 l 1
 136 53 140 88 146 123 c 2
 192 399 l 1
 263 399 l 1
 312 123 l 2
 318 94 323 53 323 53 c 1
 325 53 l 1
 325 53 331 98 337 123 c 2
 399 399 l 1
 445 399 l 1
 353 0 l 1
EndSplineSet
Position2: "'cpsp' Capital Spacing lookup 0 subtable" dx=5 dy=0 dh=10 dv=0
EndChar

StartChar: X
Encoding: 88 88 120
Width: 319
VWidth: 659
GlyphClass: 2
Flags: MW
HStem: 0 21G<3 57 3 3 256 316 256 256> 379 20G<14 74 74 74 248 304 304 304>
VStem: 3 313<0 0>
LayerCount: 2
Back
Fore
SplineSet
316 0 m 1
 256 0 l 1
 157 163 l 1
 57 0 l 1
 3 0 l 1
 130 208 l 1
 14 399 l 1
 74 399 l 1
 161 257 l 1
 248 399 l 1
 304 399 l 1
 188 212 l 1
 316 0 l 1
EndSplineSet
Position2: "'cpsp' Capital Spacing lookup 0 subtable" dx=5 dy=0 dh=10 dv=0
EndChar

StartChar: Y
Encoding: 89 89 121
Width: 319
VWidth: 659
GlyphClass: 2
Flags: MW
HStem: 0 21G<134 185 134 134> 379 20G<5 61 61 61 264 314 314 314>
VStem: 134 51<0 165>
AnchorPoint: "Anchor-1" 0 0 basechar 0
AnchorPoint: "Anchor-0" 159 399 basechar 0
LayerCount: 2
Back
Fore
SplineSet
185 0 m 1
 134 0 l 1
 134 165 l 1
 5 399 l 1
 61 399 l 1
 163 214 l 1
 165 214 l 1
 264 399 l 1
 314 399 l 1
 185 165 l 1
 185 0 l 1
EndSplineSet
Position2: "'cpsp' Capital Spacing lookup 0 subtable" dx=5 dy=0 dh=10 dv=0
EndChar

StartChar: Yacute
Encoding: 221 221 122
Width: 319
VWidth: 659
GlyphClass: 2
Flags: MW
HStem: 0 21G<134 185 134 134> 379 20G<5 61 61 61 264 314 314 314> 438 77<125 227 125 227>
VStem: 134 51<0 165 0 165>
LayerCount: 2
Back
Fore
SplineSet
228 513 m 1
 165 438 l 1
 125 438 l 1
 175 515 l 1
 227 515 l 1
 228 513 l 1
185 165 m 1
 185 0 l 1
 134 0 l 1
 134 165 l 1
 5 399 l 1
 61 399 l 1
 163 214 l 1
 165 214 l 1
 264 399 l 1
 314 399 l 1
 185 165 l 1
EndSplineSet
Position2: "'cpsp' Capital Spacing lookup 0 subtable" dx=5 dy=0 dh=10 dv=0
EndChar

StartChar: Ycircumflex
Encoding: 374 374 123
Width: 319
VWidth: 659
GlyphClass: 2
Flags: MW
HStem: 0 21G<134 185 134 134> 379 20G<5 61 61 61 264 314 314 314> 435 79<87 183 87 183 137 232 137 185>
VStem: 134 51<0 165>
LayerCount: 2
Back
Fore
SplineSet
185 435 m 1
 159 481 l 1
 133 435 l 1
 87 435 l 1
 137 514 l 1
 183 514 l 1
 232 435 l 1
 185 435 l 1
185 0 m 1
 134 0 l 1
 134 165 l 1
 5 399 l 1
 61 399 l 1
 163 214 l 1
 165 214 l 1
 264 399 l 1
 314 399 l 1
 185 165 l 1
 185 0 l 1
EndSplineSet
Position2: "'cpsp' Capital Spacing lookup 0 subtable" dx=5 dy=0 dh=10 dv=0
EndChar

StartChar: Ydieresis
Encoding: 376 376 124
Width: 319
VWidth: 659
GlyphClass: 2
Flags: MW
HStem: 0 21G<134 185 134 134> 379 20G<5 61 61 61 264 314 314 314> 459 56<90 141 90 141 90 178 178 229>
VStem: 90 51<459 515> 134 51<0 165 0 165> 178 51<459 515>
LayerCount: 2
Back
Fore
SplineSet
141 459 m 1xf4
 90 459 l 1
 90 515 l 1
 141 515 l 1
 141 459 l 1xf4
229 459 m 1
 178 459 l 1
 178 515 l 1
 229 515 l 1
 229 459 l 1
185 165 m 1xe8
 185 0 l 1
 134 0 l 1
 134 165 l 1
 5 399 l 1
 61 399 l 1
 163 214 l 1
 165 214 l 1
 264 399 l 1
 314 399 l 1
 185 165 l 1xe8
EndSplineSet
Position2: "'cpsp' Capital Spacing lookup 0 subtable" dx=5 dy=0 dh=10 dv=0
EndChar

StartChar: Ygrave
Encoding: 7922 7922 125
Width: 319
VWidth: 659
GlyphClass: 2
Flags: MW
HStem: 0 21G<134 185 134 134> 379 20G<5 61 61 61 264 314 314 314> 438 77<92 194 92 154>
VStem: 134 51<0 165 0 165>
LayerCount: 2
Back
Fore
SplineSet
194 438 m 1
 154 438 l 1
 91 513 l 1
 92 515 l 1
 144 515 l 1
 194 438 l 1
185 165 m 1
 185 0 l 1
 134 0 l 1
 134 165 l 1
 5 399 l 1
 61 399 l 1
 163 214 l 1
 165 214 l 1
 264 399 l 1
 314 399 l 1
 185 165 l 1
EndSplineSet
Position2: "'cpsp' Capital Spacing lookup 0 subtable" dx=5 dy=0 dh=10 dv=0
EndChar

StartChar: Z
Encoding: 90 90 126
Width: 292
VWidth: 659
GlyphClass: 2
Flags: MW
HStem: 0 47<84 279 84 279> 353 46<24 202 24 275>
VStem: 12 267<0 22 22 22>
AnchorPoint: "Anchor-1" 0 0 basechar 0
AnchorPoint: "Anchor-0" 146 399 basechar 0
LayerCount: 2
Back
Fore
SplineSet
275 378 m 1
 84 47 l 1
 279 47 l 1
 279 0 l 1
 12 0 l 1
 12 22 l 1
 202 353 l 1
 24 353 l 1
 24 399 l 1
 275 399 l 1
 275 378 l 1
EndSplineSet
Position2: "'cpsp' Capital Spacing lookup 0 subtable" dx=5 dy=0 dh=10 dv=0
EndChar

StartChar: Zacute
Encoding: 377 377 127
Width: 292
VWidth: 659
GlyphClass: 2
Flags: MW
HStem: 0 47<84 279 84 279> 353 46<24 202 24 275> 438 77<111 214 111 214>
VStem: 12 267<0 22 22 22>
LayerCount: 2
Back
Fore
SplineSet
214 513 m 1
 152 438 l 1
 111 438 l 1
 161 515 l 1
 214 515 l 1
 214 513 l 1
275 378 m 1
 84 47 l 1
 279 47 l 1
 279 0 l 1
 12 0 l 1
 12 22 l 1
 202 353 l 1
 24 353 l 1
 24 399 l 1
 275 399 l 1
 275 378 l 1
EndSplineSet
Position2: "'cpsp' Capital Spacing lookup 0 subtable" dx=5 dy=0 dh=10 dv=0
EndChar

StartChar: Zcaron
Encoding: 381 381 128
Width: 292
VWidth: 659
GlyphClass: 2
Flags: MW
HStem: 0 47<84 279 84 279> 353 46<24 202 24 275> 436 79<73 168 73 123>
VStem: 12 267<0 22 22 22>
LayerCount: 2
Back
Fore
SplineSet
168 436 m 1
 123 436 l 1
 73 515 l 1
 120 515 l 1
 146 469 l 1
 172 515 l 1
 218 515 l 1
 168 436 l 1
275 378 m 1
 84 47 l 1
 279 47 l 1
 279 0 l 1
 12 0 l 1
 12 22 l 1
 202 353 l 1
 24 353 l 1
 24 399 l 1
 275 399 l 1
 275 378 l 1
EndSplineSet
Position2: "'cpsp' Capital Spacing lookup 0 subtable" dx=5 dy=0 dh=10 dv=0
EndChar

StartChar: Zdotaccent
Encoding: 379 379 129
Width: 292
VWidth: 659
GlyphClass: 2
Flags: MW
HStem: 0 47<84 279 84 279> 353 46<24 202 24 275> 459 56<121 171 121 171>
VStem: 121 50<459 515>
LayerCount: 2
Back
Fore
SplineSet
171 459 m 1
 121 459 l 1
 121 515 l 1
 171 515 l 1
 171 459 l 1
275 378 m 1
 84 47 l 1
 279 47 l 1
 279 0 l 1
 12 0 l 1
 12 22 l 1
 202 353 l 1
 24 353 l 1
 24 399 l 1
 275 399 l 1
 275 378 l 1
EndSplineSet
Position2: "'cpsp' Capital Spacing lookup 0 subtable" dx=5 dy=0 dh=10 dv=0
EndChar

StartChar: a
Encoding: 97 97 130
Width: 266
VWidth: 659
GlyphClass: 2
Flags: MW
HStem: -7 43<97.5 116> -5 41 139 43<144 175> 271 43<108.5 146>
VStem: 20 50<64.5 106 64.5 121> 32 47<215 223 215 229 215 256.5> 175 48<33 56 111 139 139 139 182 221 221 228>
AnchorPoint: "Anchor-1" 0 0 basechar 0
AnchorPoint: "Anchor-0" 133 306 basechar 0
LayerCount: 2
Back
Fore
SplineSet
130 314 m 0xb6
 192 314 223 282 223 228 c 2
 223 56 l 2
 223 42 231 36 239 36 c 2
 258 36 l 1xba
 258 3 l 1
 252 -1 241 -5 226 -5 c 0x7a
 201 -5 183 11 178 33 c 1
 175 33 l 1
 159 8 132 -7 100 -7 c 0
 70 -7 20 5 20 79 c 0xba
 20 163 86 182 175 182 c 1
 175 221 l 2
 175 250 165 271 127 271 c 0
 90 271 79 246 79 223 c 2
 79 215 l 1
 32 215 l 1
 32 229 l 2
 32 284 72 314 130 314 c 0xb6
175 139 m 1xba
 113 139 70 130 70 82 c 0
 70 47 84 36 111 36 c 0
 142 36 175 61 175 111 c 2
 175 139 l 1xba
EndSplineSet
Substitution2: "Single Substitution lookup 42 subtable" ordfeminine
Substitution2: "'aalt' Access All Alternates lookup 0 subtable" ordfeminine
EndChar

StartChar: aacute
Encoding: 225 225 131
Width: 266
VWidth: 659
GlyphClass: 2
Flags: MW
HStem: -7 43<97.5 116> -5 41 139 43<144 175> 271 43<108.5 146> 344 77<96 198 96 198>
VStem: 20 50<64.5 106 64.5 121> 32 47<215 223 215 229 215 256.5> 175 48<33 56 111 139 139 139 182 221 221 228>
LayerCount: 2
Back
Fore
SplineSet
198 419 m 1xbd
 136 344 l 1
 96 344 l 1
 146 421 l 1
 198 421 l 1
 198 419 l 1xbd
130 314 m 0xb3
 192 314 223 282 223 228 c 2
 223 56 l 2
 223 42 231 36 239 36 c 2
 258 36 l 1xb5
 258 3 l 1
 252 -1 241 -5 226 -5 c 0x75
 201 -5 183 11 178 33 c 1
 175 33 l 1
 159 8 132 -7 100 -7 c 0
 70 -7 20 5 20 79 c 0xb5
 20 163 86 182 175 182 c 1
 175 221 l 2
 175 250 165 271 127 271 c 0
 90 271 79 246 79 223 c 2
 79 215 l 1
 32 215 l 1
 32 229 l 2
 32 284 72 314 130 314 c 0xb3
175 139 m 1xb5
 113 139 70 130 70 82 c 0
 70 47 84 36 111 36 c 0
 142 36 175 61 175 111 c 2
 175 139 l 1xb5
EndSplineSet
EndChar

StartChar: abreve
Encoding: 259 259 132
Width: 266
VWidth: 659
GlyphClass: 2
Flags: MW
HStem: -7 43<97.5 116> -5 41 139 43<144 175> 271 43<108.5 146> 364 57<61 155.5>
VStem: 20 50<64.5 106 64.5 121> 32 47<215 223 215 229 215 256.5> 175 48<33 56 111 139 139 139 182 221 221 228>
LayerCount: 2
Back
Fore
SplineSet
205 421 m 1xbd
 205 395 178 364 133 364 c 0
 88 364 61 395 61 421 c 1
 98 421 l 1
 100 413 113 402 133 402 c 0
 153 402 167 413 168 421 c 1
 205 421 l 1xbd
130 314 m 0xbb
 192 314 223 282 223 228 c 2
 223 56 l 2
 223 42 231 36 239 36 c 2
 258 36 l 1xbd
 258 3 l 1
 252 -1 241 -5 226 -5 c 0x7d
 201 -5 183 11 178 33 c 1
 175 33 l 1
 159 8 132 -7 100 -7 c 0
 70 -7 20 5 20 79 c 0xbd
 20 163 86 182 175 182 c 1
 175 221 l 2
 175 250 165 271 127 271 c 0
 90 271 79 246 79 223 c 2
 79 215 l 1
 32 215 l 1
 32 229 l 2
 32 284 72 314 130 314 c 0xbb
175 139 m 1xbd
 113 139 70 130 70 82 c 0
 70 47 84 36 111 36 c 0
 142 36 175 61 175 111 c 2
 175 139 l 1xbd
EndSplineSet
EndChar

StartChar: acircumflex
Encoding: 226 226 133
Width: 266
VWidth: 659
GlyphClass: 2
Flags: MW
HStem: -7 43<97.5 116> -5 41 139 43<144 175> 271 43<108.5 146> 342 78<61 156 61 156 110 206 110 159> 388 32<133 133>
VStem: 20 50<64.5 106 64.5 121> 32 47<215 223 215 229 215 256.5> 175 48<33 56 111 139 139 139 182 221 221 228>
LayerCount: 2
Back
Fore
SplineSet
159 342 m 1xba80
 133 388 l 1xb580
 107 342 l 1
 61 342 l 1
 110 420 l 1
 156 420 l 1
 206 342 l 1
 159 342 l 1xba80
130 314 m 0
 192 314 223 282 223 228 c 2
 223 56 l 2
 223 42 231 36 239 36 c 2
 258 36 l 1xb680
 258 3 l 1
 252 -1 241 -5 226 -5 c 0x7680
 201 -5 183 11 178 33 c 1
 175 33 l 1
 159 8 132 -7 100 -7 c 0
 70 -7 20 5 20 79 c 0xb680
 20 163 86 182 175 182 c 1
 175 221 l 2
 175 250 165 271 127 271 c 0
 90 271 79 246 79 223 c 2
 79 215 l 1
 32 215 l 1
 32 229 l 2
 32 284 72 314 130 314 c 0
175 139 m 1xb680
 113 139 70 130 70 82 c 0
 70 47 84 36 111 36 c 0
 142 36 175 61 175 111 c 2
 175 139 l 1xb680
EndSplineSet
EndChar

StartChar: adieresis
Encoding: 228 228 134
Width: 266
VWidth: 659
GlyphClass: 2
Flags: MW
HStem: -7 43<97.5 116> -5 41 139 43<144 175> 271 43<108.5 146> 366 55<63 114 63 114 63 151 151 202>
VStem: 20 50<64.5 106 64.5 121> 32 47<215 223 215 229 215 256.5> 63 51<366 421> 151 51<366 421> 175 48<33 56 111 139 139 139 182 221 221 228>
LayerCount: 2
Back
Fore
SplineSet
114 366 m 1xb980
 63 366 l 1
 63 421 l 1
 114 421 l 1
 114 366 l 1xb980
202 366 m 1
 151 366 l 1
 151 421 l 1
 202 421 l 1
 202 366 l 1
130 314 m 0xba40
 192 314 223 282 223 228 c 2
 223 56 l 2
 223 42 231 36 239 36 c 2
 258 36 l 1xb940
 258 3 l 1
 252 -1 241 -5 226 -5 c 0x7940
 201 -5 183 11 178 33 c 1
 175 33 l 1
 159 8 132 -7 100 -7 c 0
 70 -7 20 5 20 79 c 0xbc40
 20 163 86 182 175 182 c 1
 175 221 l 2
 175 250 165 271 127 271 c 0
 90 271 79 246 79 223 c 2
 79 215 l 1
 32 215 l 1
 32 229 l 2
 32 284 72 314 130 314 c 0xba40
175 139 m 1xbc40
 113 139 70 130 70 82 c 0
 70 47 84 36 111 36 c 0
 142 36 175 61 175 111 c 2
 175 139 l 1xbc40
EndSplineSet
EndChar

StartChar: agrave
Encoding: 224 224 135
Width: 266
VWidth: 659
GlyphClass: 2
Flags: MW
HStem: -7 43<97.5 116> -5 41 139 43<144 175> 271 43<108.5 146> 344 77<63 165 63 125>
VStem: 20 50<64.5 106 64.5 121> 32 47<215 223 215 229 215 256.5> 175 48<33 56 111 139 139 139 182 221 221 228>
LayerCount: 2
Back
Fore
SplineSet
165 344 m 1xbd
 125 344 l 1
 62 419 l 1
 63 421 l 1
 115 421 l 1
 165 344 l 1xbd
130 314 m 0xb3
 192 314 223 282 223 228 c 2
 223 56 l 2
 223 42 231 36 239 36 c 2
 258 36 l 1xb5
 258 3 l 1
 252 -1 241 -5 226 -5 c 0x75
 201 -5 183 11 178 33 c 1
 175 33 l 1
 159 8 132 -7 100 -7 c 0
 70 -7 20 5 20 79 c 0xb5
 20 163 86 182 175 182 c 1
 175 221 l 2
 175 250 165 271 127 271 c 0
 90 271 79 246 79 223 c 2
 79 215 l 1
 32 215 l 1
 32 229 l 2
 32 284 72 314 130 314 c 0xb3
175 139 m 1xb5
 113 139 70 130 70 82 c 0
 70 47 84 36 111 36 c 0
 142 36 175 61 175 111 c 2
 175 139 l 1xb5
EndSplineSet
EndChar

StartChar: amacron
Encoding: 257 257 136
Width: 266
VWidth: 659
GlyphClass: 2
Flags: MW
HStem: -7 43<97.5 116> -5 41 139 43<144 175> 271 43<108.5 146> 349 42<60 206 60 206>
VStem: 20 50<64.5 106 64.5 121> 32 47<215 223 215 229 215 256.5> 60 146<349 391 349 391> 175 48<33 56 111 139 139 139 182 221 221 228>
LayerCount: 2
Back
Fore
SplineSet
60 349 m 1xb9
 60 391 l 1
 206 391 l 1
 206 349 l 1
 60 349 l 1xb9
130 314 m 0xba80
 192 314 223 282 223 228 c 2
 223 56 l 2
 223 42 231 36 239 36 c 2
 258 36 l 1xbc80
 258 3 l 1
 252 -1 241 -5 226 -5 c 0x7c80
 201 -5 183 11 178 33 c 1
 175 33 l 1
 159 8 132 -7 100 -7 c 0
 70 -7 20 5 20 79 c 0xbc80
 20 163 86 182 175 182 c 1
 175 221 l 2
 175 250 165 271 127 271 c 0
 90 271 79 246 79 223 c 2
 79 215 l 1
 32 215 l 1
 32 229 l 2
 32 284 72 314 130 314 c 0xba80
175 139 m 1xbc80
 113 139 70 130 70 82 c 0
 70 47 84 36 111 36 c 0
 142 36 175 61 175 111 c 2
 175 139 l 1xbc80
EndSplineSet
EndChar

StartChar: aogonek
Encoding: 261 261 137
Width: 266
VWidth: 659
GlyphClass: 2
Flags: MW
HStem: -106 38<239.5 287> -7 43<97.5 116> -3 21G 139 43<144 175> 271 43<108.5 146>
VStem: 20 50<64.5 106 64.5 121> 32 47<215 223 215 229 215 256.5> 175 48<33 56 111 139 139 139 182 221 221 228> 197 46<-44.5 -42>
LayerCount: 2
Back
Fore
SplineSet
287 -98 m 1xdc80
 275 -103 264 -106 252 -106 c 0
 227 -106 197 -94 197 -53 c 0xbc80
 197 -31 204 -16 214 -3 c 1xbd
 196 1 183 14 178 33 c 1
 175 33 l 1
 159 8 132 -7 100 -7 c 0
 70 -7 20 5 20 79 c 0xdd
 20 163 86 182 175 182 c 1
 175 221 l 2
 175 250 165 271 127 271 c 0
 90 271 79 246 79 223 c 2
 79 215 l 1
 32 215 l 1
 32 229 l 2
 32 284 72 314 130 314 c 0
 192 314 223 282 223 228 c 2
 223 56 l 2
 223 42 231 36 239 36 c 2
 258 36 l 1xdb
 258 3 l 1
 250 -7 243 -21 243 -36 c 0
 243 -53 249 -68 269 -68 c 2
 287 -68 l 1
 287 -98 l 1xdc80
175 139 m 1xdd
 113 139 70 130 70 82 c 0
 70 47 84 36 111 36 c 0
 142 36 175 61 175 111 c 2
 175 139 l 1xdd
EndSplineSet
EndChar

StartChar: aring
Encoding: 229 229 138
Width: 266
VWidth: 659
GlyphClass: 2
Flags: MW
HStem: -7 43<97.5 116> -5 41 139 43<144 175> 271 43<108.5 146> 328 26<125 140.5 125 148> 413 27<125 140.5>
VStem: 20 50<64.5 106 64.5 121> 32 47<215 223 215 229 215 256.5> 77 26<376 392 376 399.5> 163 25<376 392> 175 48<33 56 111 139 139 139 182 221 221 228>
LayerCount: 2
Back
Fore
SplineSet
133 440 m 0xbcc0
 164 440 188 414 188 384 c 0
 188 353 163 328 133 328 c 0
 103 328 77 352 77 384 c 0
 77 415 102 440 133 440 c 0xbcc0
133 413 m 0
 117 413 103 400 103 384 c 0
 103 368 117 354 133 354 c 0
 148 354 163 368 163 384 c 0
 163 400 148 413 133 413 c 0
130 314 m 0xb520
 192 314 223 282 223 228 c 2
 223 56 l 2
 223 42 231 36 239 36 c 2
 258 36 l 1xb620
 258 3 l 1
 252 -1 241 -5 226 -5 c 0x7620
 201 -5 183 11 178 33 c 1
 175 33 l 1
 159 8 132 -7 100 -7 c 0
 70 -7 20 5 20 79 c 0xb620
 20 163 86 182 175 182 c 1
 175 221 l 2
 175 250 165 271 127 271 c 0
 90 271 79 246 79 223 c 2
 79 215 l 1
 32 215 l 1
 32 229 l 2
 32 284 72 314 130 314 c 0xb520
175 139 m 1xb620
 113 139 70 130 70 82 c 0
 70 47 84 36 111 36 c 0
 142 36 175 61 175 111 c 2
 175 139 l 1xb620
EndSplineSet
EndChar

StartChar: aringacute
Encoding: 507 507 139
Width: 266
VWidth: 659
GlyphClass: 2
Flags: MW
HStem: -7 43<97.5 116> -5 41 139 43<144 175> 271 43<108.5 146> 329 25<125 140.5 125 148.5> 409 25<125 140.5> 447 68<114 210 114 210>
VStem: 20 50<64.5 106 64.5 121> 32 47<215 223 215 229 215 256.5> 77 26<374 389.5 374 396.5> 163 25<374 389.5> 175 48<33 56 111 139 139 139 182 221 221 228>
LayerCount: 2
Back
Fore
SplineSet
211 513 m 1xb710
 154 447 l 1
 114 447 l 1
 158 515 l 1
 210 515 l 1
 211 513 l 1xb710
133 434 m 0xbc60
 165 434 188 411 188 382 c 0
 188 352 164 329 133 329 c 0
 103 329 77 351 77 382 c 0
 77 411 102 434 133 434 c 0xbc60
133 409 m 0
 117 409 103 397 103 382 c 0
 103 366 117 354 133 354 c 0
 148 354 163 366 163 382 c 0
 163 397 148 409 133 409 c 0
130 314 m 0xb490
 192 314 223 282 223 228 c 2
 223 56 l 2
 223 42 231 36 239 36 c 2
 258 36 l 1xb510
 258 3 l 1
 252 -1 241 -5 226 -5 c 0x7510
 201 -5 183 11 178 33 c 1
 175 33 l 1
 159 8 132 -7 100 -7 c 0
 70 -7 20 5 20 79 c 0xb510
 20 163 86 182 175 182 c 1
 175 221 l 2
 175 250 165 271 127 271 c 0
 90 271 79 246 79 223 c 2
 79 215 l 1
 32 215 l 1
 32 229 l 2
 32 284 72 314 130 314 c 0xb490
175 139 m 1xb510
 113 139 70 130 70 82 c 0
 70 47 84 36 111 36 c 0
 142 36 175 61 175 111 c 2
 175 139 l 1xb510
EndSplineSet
EndChar

StartChar: atilde
Encoding: 227 227 140
Width: 266
VWidth: 659
GlyphClass: 2
Flags: MW
HStem: -7 43<97.5 116> -5 41 139 43<144 175> 271 43<108.5 146> 360 43<161.5 169.5 158.5 186> 360 61<80.5 82 47 104.5 184 186> 379 42<96 104.5 80.5 106.5>
VStem: 20 50<64.5 106 64.5 121> 32 47<215 223 215 229 215 256.5> 47 35<360 373.5> 175 48<33 56 111 139 139 139 182 221 221 228>
LayerCount: 2
Back
Fore
SplineSet
218 421 m 1xb520
 218 394 204 360 168 360 c 0xb520
 155 360 144 365 133 370 c 0
 123 374 112 379 101 379 c 0xb260
 91 379 83 374 82 360 c 1
 47 360 l 1
 47 387 63 421 98 421 c 0xb460
 111 421 122 416 133 412 c 0
 143 407 153 403 164 403 c 0xb860
 175 403 183 408 184 421 c 1
 218 421 l 1xb520
130 314 m 0xb4a0
 192 314 223 282 223 228 c 2
 223 56 l 2
 223 42 231 36 239 36 c 2
 258 36 l 1xb520
 258 3 l 1
 252 -1 241 -5 226 -5 c 0x7520
 201 -5 183 11 178 33 c 1
 175 33 l 1
 159 8 132 -7 100 -7 c 0
 70 -7 20 5 20 79 c 0xb520
 20 163 86 182 175 182 c 1
 175 221 l 2
 175 250 165 271 127 271 c 0
 90 271 79 246 79 223 c 2
 79 215 l 1
 32 215 l 1
 32 229 l 2
 32 284 72 314 130 314 c 0xb4a0
175 139 m 1xb520
 113 139 70 130 70 82 c 0
 70 47 84 36 111 36 c 0
 142 36 175 61 175 111 c 2
 175 139 l 1xb520
EndSplineSet
EndChar

StartChar: ae
Encoding: 230 230 141
Width: 424
VWidth: 659
GlyphClass: 2
Flags: MW
HStem: -7 43<101.5 130 101.5 130.5 273 310.5> 139 43<147.5 179 229 344> 271 43<112 149.5 276 310.5>
VStem: 23 50<64.5 106 64.5 121> 35 48<215 256.5> 179 50<107 139 103.5 139 103.5 221> 344 50
AnchorPoint: "Anchor-1" 0 0 basechar 0
AnchorPoint: "Anchor-0" 213 306 basechar 0
LayerCount: 2
Back
Fore
SplineSet
294 314 m 0xf6
 360 314 394 272 394 169 c 2
 394 139 l 1
 229 139 l 1
 229 68 250 36 295 36 c 0
 326 36 347 62 347 104 c 1
 394 104 l 1
 394 36 354 -7 294 -7 c 0
 252 -7 220 7 201 40 c 1
 179 11 148 -7 113 -7 c 0
 74 -7 23 5 23 79 c 0xf6
 23 163 89 182 179 182 c 1
 179 221 l 2
 179 250 169 271 130 271 c 0
 94 271 83 246 83 223 c 2
 83 215 l 1
 36 215 l 1
 35 219 35 223 35 229 c 0
 35 284 76 314 133 314 c 0xee
 171 314 198 301 212 279 c 1
 231 302 258 314 294 314 c 0xf6
294 271 m 0
 251 271 233 241 229 182 c 1
 344 182 l 1
 344 240 327 271 294 271 c 0
179 139 m 1
 116 139 73 130 73 82 c 0
 73 47 88 36 115 36 c 0
 145 36 179 59 179 107 c 2
 179 139 l 1
EndSplineSet
EndChar

StartChar: aeacute
Encoding: 509 509 142
Width: 424
VWidth: 659
GlyphClass: 2
Flags: MW
HStem: -7 43<101.5 130 101.5 130.5 273 310.5> 139 43<147.5 179 229 344> 271 43<112 149.5 276 310.5> 344 77<178 280 178 280>
VStem: 23 50<64.5 106 64.5 121> 35 48<215 256.5> 179 50<107 139 103.5 139 103.5 221> 344 50
LayerCount: 2
Back
Fore
SplineSet
281 419 m 1xfb
 218 344 l 1
 178 344 l 1
 228 421 l 1
 280 421 l 1
 281 419 l 1xfb
294 314 m 0xe7
 360 314 394 272 394 169 c 2
 394 139 l 1
 229 139 l 1
 229 68 250 36 295 36 c 0
 326 36 347 62 347 104 c 1
 394 104 l 1
 394 36 354 -7 294 -7 c 0
 252 -7 220 7 201 40 c 1
 179 11 148 -7 113 -7 c 0
 74 -7 23 5 23 79 c 0xeb
 23 163 89 182 179 182 c 1
 179 221 l 2
 179 250 169 271 130 271 c 0
 94 271 83 246 83 223 c 2
 83 215 l 1
 36 215 l 1
 35 219 35 223 35 229 c 0
 35 284 76 314 133 314 c 0
 171 314 198 301 212 279 c 1
 231 302 258 314 294 314 c 0xe7
294 271 m 0
 251 271 233 241 229 182 c 1
 344 182 l 1
 344 240 327 271 294 271 c 0
179 139 m 1xeb
 116 139 73 130 73 82 c 0
 73 47 88 36 115 36 c 0
 145 36 179 59 179 107 c 2
 179 139 l 1xeb
EndSplineSet
EndChar

StartChar: b
Encoding: 98 98 143
Width: 266
VWidth: 659
GlyphClass: 2
Flags: MW
HStem: -7 43<133.5 156> 0 36<35 80> 271 43<136 156> 401 20G<35 83 83 83>
VStem: 35 48<107 142 142 162 277 421> 192 51<142 164 164 202.5>
LayerCount: 2
Back
Fore
SplineSet
83 277 m 1xbc
 86 277 l 1
 96 300 121 314 151 314 c 0
 202 314 243 265 243 154 c 0
 243 42 206 -7 148 -7 c 0
 119 -7 95 7 80 36 c 1
 78 36 l 1xbc
 71 0 l 1
 35 0 l 1x7c
 35 421 l 1
 83 421 l 1
 83 277 l 1xbc
138 271 m 0
 101 271 83 234 83 162 c 2
 83 142 l 2
 83 72 101 36 138 36 c 0
 174 36 192 66 192 142 c 2
 192 164 l 2
 192 241 174 271 138 271 c 0
EndSplineSet
EndChar

StartChar: c
Encoding: 99 99 144
Width: 239
VWidth: 659
GlyphClass: 2
Flags: MW
HStem: -7 43<107 143 107 159.5> 271 43<107 143>
VStem: 21 50<107 142 142 164 107 208.5> 170 49<193 219.5>
AnchorPoint: "Anchor-1" 119 0 basechar 0
AnchorPoint: "Anchor-0" 119 306 basechar 0
LayerCount: 2
Back
Fore
SplineSet
126 314 m 0
 192 314 219 271 219 193 c 1
 170 193 l 1
 170 246 160 271 126 271 c 0
 88 271 71 235 71 164 c 2
 71 142 l 2
 71 72 88 36 126 36 c 0
 160 36 173 63 173 113 c 1
 219 113 l 1
 219 49 193 -7 126 -7 c 0
 53 -7 21 43 21 153 c 0
 21 264 54 314 126 314 c 0
EndSplineSet
EndChar

StartChar: cacute
Encoding: 263 263 145
Width: 239
VWidth: 659
GlyphClass: 2
Flags: MW
HStem: -7 43<107 143 107 159.5> 271 43<107 143> 344 77<90 193 90 193>
VStem: 21 50<107 142 142 164 107 208.5> 170 49<193 219.5>
LayerCount: 2
Back
Fore
SplineSet
193 419 m 1
 131 344 l 1
 90 344 l 1
 140 421 l 1
 193 421 l 1
 193 419 l 1
126 314 m 0xd8
 192 314 219 271 219 193 c 1
 170 193 l 1
 170 246 160 271 126 271 c 0
 88 271 71 235 71 164 c 2
 71 142 l 2
 71 72 88 36 126 36 c 0
 160 36 173 63 173 113 c 1
 219 113 l 1
 219 49 193 -7 126 -7 c 0
 53 -7 21 43 21 153 c 0
 21 264 54 314 126 314 c 0xd8
EndSplineSet
EndChar

StartChar: ccaron
Encoding: 269 269 146
Width: 239
VWidth: 659
GlyphClass: 2
Flags: MW
HStem: -7 43<107 143 107 159.5> 271 43<107 143> 343 78<47 97 47 142>
VStem: 21 50<107 142 142 164 107 208.5> 170 49<193 219.5>
LayerCount: 2
Back
Fore
SplineSet
97 343 m 1
 47 421 l 1
 94 421 l 1
 119 375 l 1
 146 421 l 1
 192 421 l 1
 142 343 l 1
 97 343 l 1
126 314 m 0xd8
 192 314 219 271 219 193 c 1
 170 193 l 1
 170 246 160 271 126 271 c 0
 88 271 71 235 71 164 c 2
 71 142 l 2
 71 72 88 36 126 36 c 0
 160 36 173 63 173 113 c 1
 219 113 l 1
 219 49 193 -7 126 -7 c 0
 53 -7 21 43 21 153 c 0
 21 264 54 314 126 314 c 0xd8
EndSplineSet
EndChar

StartChar: ccedilla
Encoding: 231 231 147
Width: 239
VWidth: 659
GlyphClass: 2
Flags: MW
HStem: -106 33<105.5 109 109 115.5 65 125.5> -45 24<91 127> -7 21G<129 129> -7 43<129 129> -3 21G<98 98> 271 43<107 143>
VStem: 21 50<107 142 142 164 107 208.5> 94.5 33.5 130 44<-64.5 -54> 170 49<193 219.5>
LayerCount: 2
Back
Fore
SplineSet
126 314 m 0x8e40
 192 314 219 271 219 193 c 1
 170 193 l 1
 170 246 160 271 126 271 c 0
 88 271 71 235 71 164 c 2
 71 142 l 2
 71 72 88 36 126 36 c 0
 160 36 173 63 173 113 c 1
 219 113 l 1x9640
 219 51 194 -5 129 -7 c 1xa740
 127 -21 l 1xce80
 152 -22 174 -32 174 -59 c 0
 174 -98 138 -106 113 -106 c 0x8e80
 98 -106 78 -104 65 -101 c 1
 65 -73 l 1x8f40
 109 -73 l 2x8e80
 122 -73 130 -70 130 -59 c 0
 130 -49 125 -45 110 -45 c 2xce80
 91 -45 l 1xcf40
 98 -3 l 1
 45 9 21 59 21 153 c 0
 21 264 54 314 126 314 c 0x8e40
EndSplineSet
EndChar

StartChar: ccircumflex
Encoding: 265 265 148
Width: 239
VWidth: 659
GlyphClass: 2
Flags: MW
HStem: -7 43<107 143 107 159.5> 271 43<107 143> 342 78<47 143 47 143 98 192 98 146> 388 32<120 120>
VStem: 21 50<107 142 142 164 107 208.5> 170 49<193 219.5>
LayerCount: 2
Back
Fore
SplineSet
146 342 m 1xec
 120 388 l 1xdc
 94 342 l 1
 47 342 l 1
 98 420 l 1
 143 420 l 1
 192 342 l 1
 146 342 l 1xec
126 314 m 0
 192 314 219 271 219 193 c 1
 170 193 l 1
 170 246 160 271 126 271 c 0
 88 271 71 235 71 164 c 2
 71 142 l 2
 71 72 88 36 126 36 c 0
 160 36 173 63 173 113 c 1
 219 113 l 1
 219 49 193 -7 126 -7 c 0
 53 -7 21 43 21 153 c 0
 21 264 54 314 126 314 c 0
EndSplineSet
EndChar

StartChar: cdotaccent
Encoding: 267 267 149
Width: 239
VWidth: 659
GlyphClass: 2
Flags: MW
HStem: -7 43<107 143 107 159.5> 271 43<107 143> 366 55<94 145 94 145>
VStem: 21 50<107 142 142 164 107 208.5> 94 51<366 421 366 421> 170 49<193 219.5>
LayerCount: 2
Back
Fore
SplineSet
94 366 m 1
 94 421 l 1
 145 421 l 1
 145 366 l 1
 94 366 l 1
126 314 m 0xf4
 192 314 219 271 219 193 c 1
 170 193 l 1
 170 246 160 271 126 271 c 0
 88 271 71 235 71 164 c 2
 71 142 l 2
 71 72 88 36 126 36 c 0
 160 36 173 63 173 113 c 1
 219 113 l 1
 219 49 193 -7 126 -7 c 0
 53 -7 21 43 21 153 c 0
 21 264 54 314 126 314 c 0xf4
EndSplineSet
EndChar

StartChar: d
Encoding: 100 100 150
Width: 266
VWidth: 659
GlyphClass: 2
Flags: MW
HStem: -7 43<110 132> 0 36 271 43<110 129.5 89.5 146.5> 401 20G<183 231 231 231>
VStem: 23 50<104 142 142 164 104 209.5> 183 48<142 162 162 198 277 421 0 421>
LayerCount: 2
Back
Fore
SplineSet
194 0 m 1x7c
 188 36 l 1
 185 36 l 1
 171 7 146 -7 118 -7 c 0xbc
 60 -7 23 42 23 154 c 0
 23 265 64 314 115 314 c 0
 144 314 169 300 180 277 c 1
 183 277 l 1
 183 421 l 1
 231 421 l 1
 231 0 l 1
 194 0 l 1x7c
128 271 m 0
 92 271 73 241 73 164 c 2
 73 142 l 2
 73 66 92 36 128 36 c 0
 165 36 183 72 183 142 c 2
 183 162 l 2
 183 234 165 271 128 271 c 0
EndSplineSet
EndChar

StartChar: eth
Encoding: 240 240 151
Width: 266
VWidth: 659
GlyphClass: 2
Flags: MW
HStem: -7 43<113 153 113 168.5> 271 43<113 132 97 152.5> 286 20G 352 34 352 69 362 37 388 33<96 96>
VStem: 23 50<107 142 142 164 107 209.5> 54 161<364 384 384 384> 192 51<142 164 164 195.5 98 199.5>
LayerCount: 2
Back
Fore
SplineSet
173 360 m 1xc540
 215 304 243 238 243 153 c 0
 243 43 204 -7 133 -7 c 0
 61 -7 23 43 23 153 c 0xc940
 23 266 67 314 127 314 c 0xc880
 137 314 147 311 156 306 c 1
 147 323 136 339 123 355 c 1
 54 349 l 1xa880
 54 384 l 1xd080
 96 388 l 2
 93 391 90 394 87 398 c 0xc280
 81 405 75 412 68 419 c 1
 69 421 l 1
 121 421 l 1xc880
 147 393 l 1
 215 399 l 1
 215 364 l 1xc480
 173 360 l 1xc540
192 142 m 2
 192 164 l 2
 192 235 172 271 133 271 c 0
 93 271 73 235 73 164 c 2
 73 142 l 2
 73 72 93 36 133 36 c 0xc940
 173 36 192 72 192 142 c 2
EndSplineSet
EndChar

StartChar: dcaron
Encoding: 271 271 152
Width: 294
VWidth: 659
GlyphClass: 2
Flags: MW
HStem: -7 43<110 132> 0 36 271 43<110 129.5 89.5 146.5> 337 62<254 277 254 312> 337 84<183 277 183 254>
VStem: 23 50<104 142 142 164 104 209.5> 183 48<142 162 162 198 277 421 0 421> 254 58<342 399 342 399 342 399>
LayerCount: 2
Back
Fore
SplineSet
194 0 m 1x4e
 188 36 l 1
 185 36 l 1
 171 7 146 -7 118 -7 c 0
 60 -7 23 42 23 154 c 0
 23 265 64 314 115 314 c 0
 144 314 169 300 180 277 c 1
 183 277 l 1xb6
 183 421 l 1
 231 421 l 1
 231 0 l 1
 194 0 l 1x4e
284 264 m 1xb7
 254 264 l 1
 277 337 l 1
 254 337 l 1
 254 399 l 1
 312 399 l 1
 312 342 l 1x97
 284 264 l 1xb7
128 271 m 0xb6
 92 271 73 241 73 164 c 2
 73 142 l 2
 73 66 92 36 128 36 c 0
 165 36 183 72 183 142 c 2
 183 162 l 2
 183 234 165 271 128 271 c 0xb6
EndSplineSet
EndChar

StartChar: dcroat
Encoding: 273 273 153
Width: 264
VWidth: 659
GlyphClass: 2
Flags: MW
HStem: -7 43<110 132> 0 36 271 43<110 129.5 89.5 146.5> 339 40<118 183 118 183 231 264> 339 82<118 231 118 231 183 264 183 231>
VStem: 23 50<104 142 142 164 104 209.5> 183 48<142 162 162 198 277 339 0 339 379 421>
LayerCount: 2
Back
Fore
SplineSet
231 379 m 1x96
 264 379 l 1x96
 264 339 l 1
 231 339 l 1
 231 0 l 1
 194 0 l 1x4e
 188 36 l 1
 185 36 l 1
 171 7 146 -7 118 -7 c 0
 60 -7 23 42 23 154 c 0
 23 265 64 314 115 314 c 0
 144 314 169 300 180 277 c 1
 183 277 l 1xae
 183 339 l 1
 118 339 l 1x8e
 118 379 l 1
 183 379 l 1x96
 183 421 l 1
 231 421 l 1x8e
 231 379 l 1x96
128 271 m 0xae
 92 271 73 241 73 164 c 2
 73 142 l 2
 73 66 92 36 128 36 c 0
 165 36 183 72 183 142 c 2
 183 162 l 2
 183 234 165 271 128 271 c 0xae
EndSplineSet
EndChar

StartChar: e
Encoding: 101 101 154
Width: 266
VWidth: 659
GlyphClass: 2
Flags: MW
HStem: -7 43<119 157 119 170> 139 43<75 190 75 241 74 190> 271 43<119 156.5>
VStem: 24 50<139 139 139 208.5> 190 51
AnchorPoint: "Anchor-1" 133 0 basechar 0
AnchorPoint: "Anchor-0" 133 306 basechar 0
LayerCount: 2
Back
Fore
SplineSet
140 314 m 0
 207 314 241 272 241 169 c 2
 241 139 l 1
 74 139 l 1
 75 68 96 36 142 36 c 0
 172 36 193 62 193 104 c 1
 241 104 l 1
 241 36 200 -7 140 -7 c 0
 64 -7 24 40 24 153 c 0
 24 264 63 314 140 314 c 0
140 271 m 0
 98 271 79 241 75 182 c 1
 190 182 l 1
 190 240 173 271 140 271 c 0
EndSplineSet
EndChar

StartChar: eacute
Encoding: 233 233 155
Width: 266
VWidth: 659
GlyphClass: 2
Flags: MW
HStem: -7 43<119 157 119 170> 139 43<75 190 75 241 74 190> 271 43<119 156.5> 344 77<105 208 105 208>
VStem: 24 50<139 139 139 208.5> 190 51
LayerCount: 2
Back
Fore
SplineSet
208 419 m 1
 146 344 l 1
 105 344 l 1
 155 421 l 1
 208 421 l 1
 208 419 l 1
140 314 m 0xec
 207 314 241 272 241 169 c 2
 241 139 l 1
 74 139 l 1
 75 68 96 36 142 36 c 0
 172 36 193 62 193 104 c 1
 241 104 l 1
 241 36 200 -7 140 -7 c 0
 64 -7 24 40 24 153 c 0
 24 264 63 314 140 314 c 0xec
140 271 m 0
 98 271 79 241 75 182 c 1
 190 182 l 1
 190 240 173 271 140 271 c 0
EndSplineSet
EndChar

StartChar: ebreve
Encoding: 277 277 156
Width: 266
VWidth: 659
GlyphClass: 2
Flags: MW
HStem: -7 43<119 157 119 170> 139 43<75 190 75 241 74 190> 271 43<119 156.5> 364 57<61 155.5>
VStem: 24 50<139 139 139 208.5> 190 51
LayerCount: 2
Back
Fore
SplineSet
205 421 m 1
 205 395 178 364 133 364 c 0
 88 364 61 395 61 421 c 1
 98 421 l 1
 100 413 113 402 133 402 c 0
 153 402 167 413 168 421 c 1
 205 421 l 1
140 314 m 0
 207 314 241 272 241 169 c 2
 241 139 l 1
 74 139 l 1
 75 68 96 36 142 36 c 0
 172 36 193 62 193 104 c 1
 241 104 l 1
 241 36 200 -7 140 -7 c 0
 64 -7 24 40 24 153 c 0
 24 264 63 314 140 314 c 0
140 271 m 0
 98 271 79 241 75 182 c 1
 190 182 l 1
 190 240 173 271 140 271 c 0
EndSplineSet
EndChar

StartChar: ecaron
Encoding: 283 283 157
Width: 266
VWidth: 659
GlyphClass: 2
Flags: MW
HStem: -7 43<119 157 119 170> 139 43<75 190 75 241 74 190> 271 43<119 156.5> 343 78<61 109 61 156>
VStem: 24 50<139 139 139 208.5> 190 51
LayerCount: 2
Back
Fore
SplineSet
109 343 m 1
 61 421 l 1
 107 421 l 1
 133 375 l 1
 159 421 l 1
 206 421 l 1
 156 343 l 1
 109 343 l 1
140 314 m 0xec
 207 314 241 272 241 169 c 2
 241 139 l 1
 74 139 l 1
 75 68 96 36 142 36 c 0
 172 36 193 62 193 104 c 1
 241 104 l 1
 241 36 200 -7 140 -7 c 0
 64 -7 24 40 24 153 c 0
 24 264 63 314 140 314 c 0xec
140 271 m 0
 98 271 79 241 75 182 c 1
 190 182 l 1
 190 240 173 271 140 271 c 0
EndSplineSet
EndChar

StartChar: ecircumflex
Encoding: 234 234 158
Width: 266
VWidth: 659
GlyphClass: 2
Flags: MW
HStem: -7 43<119 157 119 170> 139 43<75 190 75 241 74 190> 271 43<119 156.5> 342 78<61 156 61 156 110 206 110 159> 388 32<133 133>
VStem: 24 50<139 139 139 208.5> 190 51
LayerCount: 2
Back
Fore
SplineSet
159 342 m 1xf6
 133 388 l 1xee
 107 342 l 1
 61 342 l 1
 110 420 l 1
 156 420 l 1
 206 342 l 1
 159 342 l 1xf6
140 314 m 0
 207 314 241 272 241 169 c 2
 241 139 l 1
 74 139 l 1
 75 68 96 36 142 36 c 0
 172 36 193 62 193 104 c 1
 241 104 l 1
 241 36 200 -7 140 -7 c 0
 64 -7 24 40 24 153 c 0
 24 264 63 314 140 314 c 0
140 271 m 0
 98 271 79 241 75 182 c 1
 190 182 l 1
 190 240 173 271 140 271 c 0
EndSplineSet
EndChar

StartChar: edieresis
Encoding: 235 235 159
Width: 266
VWidth: 659
GlyphClass: 2
Flags: MW
HStem: -7 43<119 157 119 170> 139 43<75 190 75 241 74 190> 271 43<119 156.5> 366 55<63 114 63 114 63 151 151 202>
VStem: 24 50<139 139 139 208.5> 63 51<366 421> 151 51<366 421> 190 51
LayerCount: 2
Back
Fore
SplineSet
114 366 m 1xf6
 63 366 l 1
 63 421 l 1
 114 421 l 1
 114 366 l 1xf6
202 366 m 1
 151 366 l 1
 151 421 l 1
 202 421 l 1
 202 366 l 1
140 314 m 0xf9
 207 314 241 272 241 169 c 2
 241 139 l 1
 74 139 l 1
 75 68 96 36 142 36 c 0
 172 36 193 62 193 104 c 1
 241 104 l 1
 241 36 200 -7 140 -7 c 0
 64 -7 24 40 24 153 c 0
 24 264 63 314 140 314 c 0xf9
140 271 m 0
 98 271 79 241 75 182 c 1
 190 182 l 1
 190 240 173 271 140 271 c 0
EndSplineSet
EndChar

StartChar: edotaccent
Encoding: 279 279 160
Width: 266
VWidth: 659
GlyphClass: 2
Flags: MW
HStem: -7 43<119 157 119 170> 139 43<75 190 75 241 74 190> 271 43<119 156.5> 366 55<108 158 108 158>
VStem: 24 50<139 139 139 208.5> 108 50<366 421 366 421> 190 51
LayerCount: 2
Back
Fore
SplineSet
108 366 m 1
 108 421 l 1
 158 421 l 1
 158 366 l 1
 108 366 l 1
140 314 m 0
 207 314 241 272 241 169 c 2
 241 139 l 1
 74 139 l 1
 75 68 96 36 142 36 c 0
 172 36 193 62 193 104 c 1
 241 104 l 1
 241 36 200 -7 140 -7 c 0
 64 -7 24 40 24 153 c 0
 24 264 63 314 140 314 c 0
140 271 m 0
 98 271 79 241 75 182 c 1
 190 182 l 1
 190 240 173 271 140 271 c 0
EndSplineSet
EndChar

StartChar: egrave
Encoding: 232 232 161
Width: 266
VWidth: 659
GlyphClass: 2
Flags: MW
HStem: -7 43<119 157 119 170> 139 43<75 190 75 241 74 190> 271 43<119 156.5> 344 77<72 174 72 134>
VStem: 24 50<139 139 139 208.5> 190 51
LayerCount: 2
Back
Fore
SplineSet
174 344 m 1
 134 344 l 1
 71 419 l 1
 72 421 l 1
 124 421 l 1
 174 344 l 1
140 314 m 0xec
 207 314 241 272 241 169 c 2
 241 139 l 1
 74 139 l 1
 75 68 96 36 142 36 c 0
 172 36 193 62 193 104 c 1
 241 104 l 1
 241 36 200 -7 140 -7 c 0
 64 -7 24 40 24 153 c 0
 24 264 63 314 140 314 c 0xec
140 271 m 0
 98 271 79 241 75 182 c 1
 190 182 l 1
 190 240 173 271 140 271 c 0
EndSplineSet
EndChar

StartChar: emacron
Encoding: 275 275 162
Width: 266
VWidth: 659
GlyphClass: 2
Flags: MW
HStem: -7 43<119 157 119 170> 139 43<75 190 75 241 74 190> 271 43<119 156.5> 349 42<60 206 60 206>
VStem: 24 50<139 139 139 208.5> 60 146<349 391 349 391> 190 51
LayerCount: 2
Back
Fore
SplineSet
60 349 m 1xf4
 60 391 l 1
 206 391 l 1
 206 349 l 1
 60 349 l 1xf4
140 314 m 0xfa
 207 314 241 272 241 169 c 2
 241 139 l 1
 74 139 l 1
 75 68 96 36 142 36 c 0
 172 36 193 62 193 104 c 1
 241 104 l 1
 241 36 200 -7 140 -7 c 0
 64 -7 24 40 24 153 c 0
 24 264 63 314 140 314 c 0xfa
140 271 m 0
 98 271 79 241 75 182 c 1
 190 182 l 1
 190 240 173 271 140 271 c 0
EndSplineSet
EndChar

StartChar: eogonek
Encoding: 281 281 163
Width: 266
VWidth: 659
GlyphClass: 2
Flags: MW
HStem: -106 38<168.5 216> -7 43<119 140> 139 43<75 190 75 241 74 190> 271 43<119 156.5>
VStem: 24 50<139 139 139 208.5> 126 45<-44.5 -43.5> 190 51
LayerCount: 2
Back
Fore
SplineSet
241 169 m 2
 241 139 l 1
 74 139 l 1
 75 68 96 36 142 36 c 0
 172 36 193 62 193 104 c 1
 241 104 l 1xfa
 241 56 220 21 188 4 c 0
 181 -4 171 -20 171 -36 c 0
 171 -53 179 -68 198 -68 c 2
 216 -68 l 1
 216 -98 l 1
 204 -103 192 -106 181 -106 c 0
 156 -106 126 -94 126 -53 c 0xfe
 126 -34 132 -19 140 -7 c 1
 64 -7 24 40 24 153 c 0
 24 264 63 314 140 314 c 0
 207 314 241 272 241 169 c 2
75 182 m 1
 190 182 l 1
 190 240 173 271 140 271 c 0
 98 271 79 241 75 182 c 1
EndSplineSet
EndChar

StartChar: f
Encoding: 102 102 164
Width: 133
VWidth: 659
GlyphClass: 2
Flags: MW
HStem: 0 21G<32 80 32 32> 264 42<5 32 5 32 80 133> 386 40<98 100 69.5 107 69.5 133>
VStem: 32 48<0 264 0 264 306 355 355 358>
LayerCount: 2
Back
Fore
SplineSet
93 426 m 0
 107 426 123 422 133 419 c 1
 133 386 l 1
 107 386 l 2
 89 386 80 376 80 358 c 2
 80 306 l 1
 133 306 l 1
 133 264 l 1
 80 264 l 1
 80 0 l 1
 32 0 l 1
 32 264 l 1
 5 264 l 1
 5 306 l 1
 32 306 l 1
 32 355 l 2
 32 390 46 426 93 426 c 0
EndSplineSet
EndChar

StartChar: g
Encoding: 103 103 165
Width: 266
VWidth: 659
GlyphClass: 2
Flags: MW
HStem: -106 41<58 175 91 170> 7 46<79 188 100 175> 107 40<92 146 112.5 132> 273 41<112.5 138 99 146>
VStem: 7 48<-38 -18.5 -38 -18> 22 50<72.5 87.5 72.5 90.5> 30 48<193 229.5 189.5 242> 182 48<190.5 225.5 178.5 230.5> 212 42<337.5 356> 212 48<-38 -18.5>
AnchorPoint: "Anchor-1" 0 0 basechar 0
AnchorPoint: "Anchor-0" 133 306 basechar 0
LayerCount: 2
Back
Fore
SplineSet
254 356 m 1xf280
 254 319 235 291 203 283 c 1
 219 265 230 241 230 210 c 0
 230 147 192 108 132 107 c 2
 100 107 l 2
 84 107 72 95 72 80 c 0
 72 65 85 53 100 53 c 2xf5
 188 53 l 2
 232 53 260 20 260 -19 c 0
 260 -68 229 -106 170 -106 c 2
 83 -106 l 2
 33 -106 7 -73 7 -33 c 0xf840
 7 -3 22 22 47 32 c 1
 32 42 22 60 22 78 c 0xf5
 22 103 40 122 65 131 c 1
 43 149 30 176 30 210 c 0
 30 274 68 314 130 314 c 0
 146 314 161 309 174 302 c 1
 202 317 209 337 212 356 c 1
 254 356 l 1xf280
129 273 m 0xf3
 96 273 78 249 78 210 c 0
 78 169 96 147 129 147 c 0
 163 147 182 171 182 210 c 0
 182 251 163 273 129 273 c 0xf3
91 7 m 2xf840
 67 7 55 -9 55 -28 c 0
 55 -48 67 -65 91 -65 c 2
 175 -65 l 2
 196 -65 212 -48 212 -28 c 0
 212 -9 200 7 175 7 c 2
 91 7 l 2xf840
EndSplineSet
EndChar

StartChar: gbreve
Encoding: 287 287 166
Width: 266
VWidth: 659
GlyphClass: 2
Flags: MW
HStem: -106 41<58 175 91 170> 7 46<79 188 100 175> 107 40<92 146 112.5 132> 273 41<112.5 138 99 146> 364 57<61 155.5>
VStem: 7 48<-38 -18.5 -38 -18> 22 50<72.5 87.5 72.5 90.5> 30 48<193 229.5 189.5 242> 182 48<190.5 225.5 178.5 230.5> 212 42<337.5 356> 212 48<-38 -18.5>
LayerCount: 2
Back
Fore
SplineSet
205 421 m 1xfa80
 205 395 178 364 133 364 c 0
 88 364 61 395 61 421 c 1
 98 421 l 1
 100 413 113 402 133 402 c 0
 153 402 167 413 168 421 c 1
 205 421 l 1xfa80
254 356 m 1xf940
 254 319 235 291 203 283 c 1
 219 265 230 241 230 210 c 0
 230 147 192 108 132 107 c 2
 100 107 l 2
 84 107 72 95 72 80 c 0
 72 65 85 53 100 53 c 2xfa80
 188 53 l 2
 232 53 260 20 260 -19 c 0
 260 -68 229 -106 170 -106 c 2
 83 -106 l 2
 33 -106 7 -73 7 -33 c 0xfc20
 7 -3 22 22 47 32 c 1
 32 42 22 60 22 78 c 0xfa80
 22 103 40 122 65 131 c 1
 43 149 30 176 30 210 c 0
 30 274 68 314 130 314 c 0
 146 314 161 309 174 302 c 1
 202 317 209 337 212 356 c 1
 254 356 l 1xf940
129 273 m 0xf980
 96 273 78 249 78 210 c 0
 78 169 96 147 129 147 c 0
 163 147 182 171 182 210 c 0
 182 251 163 273 129 273 c 0xf980
91 7 m 2xfc20
 67 7 55 -9 55 -28 c 0
 55 -48 67 -65 91 -65 c 2
 175 -65 l 2
 196 -65 212 -48 212 -28 c 0
 212 -9 200 7 175 7 c 2
 91 7 l 2xfc20
EndSplineSet
EndChar

StartChar: gcircumflex
Encoding: 285 285 167
Width: 266
VWidth: 659
GlyphClass: 2
Flags: MW
HStem: -106 41<58 175 91 170> 7 46<79 188 100 175> 107 40<92 146 112.5 132> 273 41<112.5 138 99 146> 342 14<159 254> 342 78<61 156 61 156 110 206 110 159> 388 32<133 133>
VStem: 7 48<-38 -18.5 -38 -18> 22 50<72.5 87.5 72.5 90.5> 30 48<193 229.5 189.5 242> 182 48<190.5 225.5 178.5 230.5> 212 48<-38 -18.5> 215 39<337.5 356>
LayerCount: 2
Back
Fore
SplineSet
159 342 m 1xf4a0
 133 388 l 1xfa88
 107 342 l 1
 61 342 l 1
 110 420 l 1
 156 420 l 1
 206 342 l 1
 159 342 l 1xf4a0
254 356 m 1
 254 319 235 291 203 283 c 1
 219 265 230 241 230 210 c 0
 230 147 192 108 132 107 c 2
 100 107 l 2
 84 107 72 95 72 80 c 0
 72 65 85 53 100 53 c 2xfaa0
 188 53 l 2
 232 53 260 20 260 -19 c 0
 260 -68 229 -106 170 -106 c 2
 83 -106 l 2
 33 -106 7 -73 7 -33 c 0xf310
 7 -3 22 22 47 32 c 1
 32 42 22 60 22 78 c 0xf2a0
 22 103 40 122 65 131 c 1
 43 149 30 176 30 210 c 0
 30 274 68 314 130 314 c 0
 146 314 161 309 174 302 c 1xf248
 204 317 214 328 215 356 c 1
 254 356 l 1
129 273 m 0xf260
 96 273 78 249 78 210 c 0
 78 169 96 147 129 147 c 0
 163 147 182 171 182 210 c 0
 182 251 163 273 129 273 c 0xf260
91 7 m 2xf310
 67 7 55 -9 55 -28 c 0
 55 -48 67 -65 91 -65 c 2
 175 -65 l 2
 196 -65 212 -48 212 -28 c 0
 212 -9 200 7 175 7 c 2
 91 7 l 2xf310
EndSplineSet
EndChar

StartChar: gcommaaccent
Encoding: 291 291 168
Width: 266
VWidth: 659
GlyphClass: 2
Flags: MW
HStem: -106 41<58 175 91 170> 7 46<79 188 100 175> 107 40<92 146 112.5 132> 273 41<112.5 138 99 146> 347 52<129 149 129 149 99 149>
VStem: 7 48<-38 -18.5 -38 -18> 22 50<72.5 87.5 72.5 90.5> 30 48<193 229.5 189.5 242> 99 50<347 395 395 395> 182 48<190.5 225.5 178.5 230.5> 212 42<337.5 356> 212 48<-38 -18.5>
LayerCount: 2
Back
Fore
SplineSet
129 399 m 1xfcc0
 149 399 l 1
 149 347 l 1
 99 347 l 1
 99 395 l 1
 117 441 l 1
 142 441 l 1
 129 399 l 1xfcc0
254 356 m 1xf9a0
 254 319 235 291 203 283 c 1
 219 265 230 241 230 210 c 0
 230 147 192 108 132 107 c 2
 100 107 l 2
 84 107 72 95 72 80 c 0
 72 65 85 53 100 53 c 2xfac0
 188 53 l 2
 232 53 260 20 260 -19 c 0
 260 -68 229 -106 170 -106 c 2
 83 -106 l 2
 33 -106 7 -73 7 -33 c 0xfc90
 7 -3 22 22 47 32 c 1
 32 42 22 60 22 78 c 0xfac0
 22 103 40 122 65 131 c 1
 43 149 30 176 30 210 c 0
 30 274 68 314 130 314 c 0
 146 314 161 309 174 302 c 1
 202 317 209 337 212 356 c 1
 254 356 l 1xf9a0
129 273 m 0xf9c0
 96 273 78 249 78 210 c 0
 78 169 96 147 129 147 c 0
 163 147 182 171 182 210 c 0
 182 251 163 273 129 273 c 0xf9c0
91 7 m 2xfc90
 67 7 55 -9 55 -28 c 0
 55 -48 67 -65 91 -65 c 2
 175 -65 l 2
 196 -65 212 -48 212 -28 c 0
 212 -9 200 7 175 7 c 2
 91 7 l 2xfc90
EndSplineSet
EndChar

StartChar: gdotaccent
Encoding: 289 289 169
Width: 266
VWidth: 659
GlyphClass: 2
Flags: MW
HStem: -106 41<58 175 91 170> 7 46<79 188 100 175> 107 40<92 146 112.5 132> 273 41<112.5 138 99 146> 366 55<108 158 108 158>
VStem: 7 48<-38 -18.5 -38 -18> 22 50<72.5 87.5 72.5 90.5> 30 48<193 229.5 189.5 242> 108 50<366 421 366 421> 182 48<190.5 225.5 178.5 230.5> 212 42<337.5 356> 212 48<-38 -18.5>
LayerCount: 2
Back
Fore
SplineSet
108 366 m 1xfa90
 108 421 l 1
 158 421 l 1
 158 366 l 1
 108 366 l 1xfa90
254 356 m 1xf9a0
 254 319 235 291 203 283 c 1
 219 265 230 241 230 210 c 0
 230 147 192 108 132 107 c 2
 100 107 l 2
 84 107 72 95 72 80 c 0
 72 65 85 53 100 53 c 2xfac0
 188 53 l 2
 232 53 260 20 260 -19 c 0
 260 -68 229 -106 170 -106 c 2
 83 -106 l 2
 33 -106 7 -73 7 -33 c 0xfc90
 7 -3 22 22 47 32 c 1
 32 42 22 60 22 78 c 0xfa90
 22 103 40 122 65 131 c 1
 43 149 30 176 30 210 c 0
 30 274 68 314 130 314 c 0
 146 314 161 309 174 302 c 1
 202 317 209 337 212 356 c 1
 254 356 l 1xf9a0
129 273 m 0xf9c0
 96 273 78 249 78 210 c 0
 78 169 96 147 129 147 c 0
 163 147 182 171 182 210 c 0
 182 251 163 273 129 273 c 0xf9c0
91 7 m 2xfc90
 67 7 55 -9 55 -28 c 0
 55 -48 67 -65 91 -65 c 2
 175 -65 l 2
 196 -65 212 -48 212 -28 c 0
 212 -9 200 7 175 7 c 2
 91 7 l 2xfc90
EndSplineSet
EndChar

StartChar: h
Encoding: 104 104 170
Width: 266
VWidth: 659
GlyphClass: 2
Flags: MW
HStem: 0 21G<35 83 35 35 183 231 183 183> 271 43<140 152.5> 401 20G<35 83 83 83>
VStem: 35 48<0 187 274 421> 183 48<0 217 217 221 0 238.5>
AnchorPoint: "Anchor-1" 0 0 basechar 0
AnchorPoint: "Anchor-0" 133 306 basechar 0
LayerCount: 2
Back
Fore
SplineSet
86 274 m 1
 102 302 125 314 155 314 c 0
 201 314 231 289 231 221 c 2
 231 0 l 1
 183 0 l 1
 183 217 l 2
 183 260 165 271 140 271 c 0
 109 271 83 240 83 187 c 2
 83 0 l 1
 35 0 l 1
 35 421 l 1
 83 421 l 1
 83 274 l 1
 86 274 l 1
EndSplineSet
EndChar

StartChar: hbar
Encoding: 295 295 171
Width: 266
VWidth: 659
GlyphClass: 2
Flags: MW
HStem: 0 21G<35 83 35 35 183 231 183 183> 271 43<140 152.5> 339 40<0 35 0 35 83 146> 339 82<0 83 0 83 35 146 35 83>
VStem: 35 48<0 187 274 339 379 421> 183 48<0 217 217 221 0 238.5>
LayerCount: 2
Back
Fore
SplineSet
83 379 m 1xac
 146 379 l 1xac
 146 339 l 1
 83 339 l 1x9c
 83 274 l 1
 86 274 l 1
 102 302 125 314 155 314 c 0
 201 314 231 289 231 221 c 2
 231 0 l 1
 183 0 l 1
 183 217 l 2
 183 260 165 271 140 271 c 0
 109 271 83 240 83 187 c 2xdc
 83 0 l 1
 35 0 l 1
 35 339 l 1
 0 339 l 1x9c
 0 379 l 1
 35 379 l 1xac
 35 421 l 1
 83 421 l 1x9c
 83 379 l 1xac
EndSplineSet
EndChar

StartChar: hcircumflex
Encoding: 293 293 172
Width: 266
VWidth: 659
GlyphClass: 2
Flags: MW
HStem: 0 21G<35 83 35 35 183 231 183 183> 271 43<140 152.5> 401 20G<35 83 83 83> 435 79<-13 83 -13 83 38 133 38 86>
VStem: 35 48<0 187 274 421> 183 48<0 217 217 221 0 238.5>
LayerCount: 2
Back
Fore
SplineSet
86 435 m 1
 61 481 l 1
 34 435 l 1
 -13 435 l 1
 38 514 l 1
 83 514 l 1
 133 435 l 1
 86 435 l 1
86 274 m 1
 102 302 125 314 155 314 c 0
 201 314 231 289 231 221 c 2
 231 0 l 1
 183 0 l 1
 183 217 l 2
 183 260 165 271 140 271 c 0
 109 271 83 240 83 187 c 2
 83 0 l 1
 35 0 l 1
 35 421 l 1
 83 421 l 1xec
 83 274 l 1
 86 274 l 1
EndSplineSet
EndChar

StartChar: i
Encoding: 105 105 173
Width: 106
VWidth: 659
GlyphClass: 2
Flags: MW
HStem: 0 21G<29 29 29 77> 286 20G<29 77 77 77> 364 57<29 77 29 77>
VStem: 29 48<0 306 0 306 364 421>
LayerCount: 2
Back
Fore
SplineSet
29 364 m 1
 29 421 l 1
 77 421 l 1
 77 364 l 1
 29 364 l 1
29 0 m 1
 29 306 l 1
 77 306 l 1
 77 0 l 1
 29 0 l 1
EndSplineSet
EndChar

StartChar: dotlessi
Encoding: 305 305 174
Width: 133
VWidth: 659
GlyphClass: 2
Flags: MW
HStem: 0 21G<43 43 43 90> 286 20G<43 90 90 90>
VStem: 43 47<0 306 0 306>
AnchorPoint: "Anchor-1" 0 0 basechar 0
AnchorPoint: "Anchor-0" 67 306 basechar 0
LayerCount: 2
Back
Fore
SplineSet
43 0 m 1
 43 306 l 1
 90 306 l 1
 90 0 l 1
 43 0 l 1
EndSplineSet
EndChar

StartChar: iacute
Encoding: 237 237 175
Width: 133
VWidth: 659
GlyphClass: 2
Flags: MW
HStem: 0 21G<43 90 43 43> 286 20G<43 90 90 90> 344 77<32 134 32 134>
VStem: 43 47<0 306>
LayerCount: 2
Back
Fore
SplineSet
134 419 m 1
 72 344 l 1
 32 344 l 1
 82 421 l 1
 134 421 l 1
 134 419 l 1
90 0 m 1
 43 0 l 1
 43 306 l 1
 90 306 l 1
 90 0 l 1
EndSplineSet
EndChar

StartChar: ibreve
Encoding: 301 301 176
Width: 133
VWidth: 659
GlyphClass: 2
Flags: MW
HStem: 0 21G<43 43 43 90> 286 20G<43 90 90 90> 364 57<-6 89>
VStem: 43 47<0 306 0 306>
LayerCount: 2
Back
Fore
SplineSet
138 421 m 1
 138 395 111 364 67 364 c 0
 22 364 -6 395 -6 421 c 1
 32 421 l 1
 34 413 47 402 67 402 c 0
 86 402 100 413 101 421 c 1
 138 421 l 1
43 0 m 1
 43 306 l 1
 90 306 l 1
 90 0 l 1
 43 0 l 1
EndSplineSet
EndChar

StartChar: icircumflex
Encoding: 238 238 177
Width: 133
VWidth: 659
GlyphClass: 2
Flags: MW
HStem: 0 21G<43 43 43 90> 286 20G<43 90 90 90> 342 78<-7 90 -7 90 44 139 44 93> 388 32<67 67>
VStem: 43 47<0 306 0 306>
LayerCount: 2
Back
Fore
SplineSet
93 342 m 1xe8
 67 388 l 1xd8
 41 342 l 1
 -7 342 l 1
 44 420 l 1
 90 420 l 1
 139 342 l 1
 93 342 l 1xe8
43 0 m 1
 43 306 l 1
 90 306 l 1
 90 0 l 1
 43 0 l 1
EndSplineSet
EndChar

StartChar: idieresis
Encoding: 239 239 178
Width: 133
VWidth: 659
GlyphClass: 2
Flags: MW
HStem: 0 21G<43 90 43 43> 286 20G<43 90 90 90> 366 55<-3 48 -3 48 -3 85 85 136>
VStem: -3 51<366 421> 43 47<0 306> 85 51<366 421>
LayerCount: 2
Back
Fore
SplineSet
48 366 m 1xf4
 -3 366 l 1
 -3 421 l 1
 48 421 l 1
 48 366 l 1xf4
136 366 m 1
 85 366 l 1
 85 421 l 1
 136 421 l 1
 136 366 l 1
90 0 m 1xe8
 43 0 l 1
 43 306 l 1
 90 306 l 1
 90 0 l 1xe8
EndSplineSet
EndChar

StartChar: igrave
Encoding: 236 236 179
Width: 133
VWidth: 659
GlyphClass: 2
Flags: MW
HStem: 0 21G<43 90 43 43> 286 20G<43 90 90 90> 344 77<-1 101 -1 61>
VStem: 43 47<0 306>
LayerCount: 2
Back
Fore
SplineSet
101 344 m 1
 61 344 l 1
 -2 419 l 1
 -1 421 l 1
 51 421 l 1
 101 344 l 1
90 0 m 1
 43 0 l 1
 43 306 l 1
 90 306 l 1
 90 0 l 1
EndSplineSet
EndChar

StartChar: ij
Encoding: 307 307 180
Width: 212
VWidth: 659
GlyphClass: 2
Flags: MW
HStem: -106 40<115.5 117 82 146> 0 21G<29 77 29 29> 286 20G<29 77 77 77 135 183 183 183> 364 57<29 77 29 77 135 183>
VStem: 29 48<0 306 364 421> 135 48<-38 -36 -36 306 364 421>
LayerCount: 2
Back
Fore
SplineSet
77 364 m 1
 29 364 l 1
 29 421 l 1
 77 421 l 1
 77 364 l 1
183 364 m 1
 135 364 l 1
 135 421 l 1
 183 421 l 1
 183 364 l 1
77 0 m 1
 29 0 l 1
 29 306 l 1
 77 306 l 1
 77 0 l 1
183 -36 m 2
 183 -71 169 -106 123 -106 c 0
 108 -106 92 -103 82 -99 c 1
 82 -66 l 1
 108 -66 l 2
 126 -66 135 -56 135 -38 c 2
 135 306 l 1
 183 306 l 1
 183 -36 l 2
EndSplineSet
EndChar

StartChar: imacron
Encoding: 299 299 181
Width: 133
VWidth: 659
GlyphClass: 2
Flags: MW
HStem: 0 21G<43 43 43 90> 286 20G<43 90 90 90> 349 42<-7 140 -7 140>
VStem: 43 47<0 306 0 306>
LayerCount: 2
Back
Fore
SplineSet
-7 349 m 1
 -7 391 l 1
 140 391 l 1
 140 349 l 1
 -7 349 l 1
43 0 m 1
 43 306 l 1
 90 306 l 1
 90 0 l 1
 43 0 l 1
EndSplineSet
EndChar

StartChar: iogonek
Encoding: 303 303 182
Width: 106
VWidth: 659
GlyphClass: 2
Flags: MW
HStem: -106 38<59.5 108> 0 21G<29 39 29 29 77 77> 286 20G<29 77 77 77> 366 55<28 79 28 79>
VStem: 29 48<0 306>
LayerCount: 2
Back
Fore
SplineSet
79 366 m 1
 28 366 l 1
 28 421 l 1
 79 421 l 1
 79 366 l 1
77 0 m 1
 71 -9 63 -22 63 -36 c 0
 63 -53 70 -68 89 -68 c 2
 108 -68 l 1
 108 -98 l 1
 96 -103 84 -106 72 -106 c 0
 47 -106 18 -94 18 -53 c 0
 18 -29 27 -13 39 0 c 1
 29 0 l 1
 29 306 l 1
 77 306 l 1
 77 0 l 1
EndSplineSet
EndChar

StartChar: itilde
Encoding: 297 297 183
Width: 133
VWidth: 659
GlyphClass: 2
Flags: MW
HStem: 0 21G<43 43 43 90> 286 20G<43 90 90 90> 360 43<95.5 103 92.5 119.5> 360 61<13.5 15 -18 37.5 118 119.5> 379 42<29.5 37.5 13.5 40.5>
VStem: 43 47<0 306 0 306>
LayerCount: 2
Back
Fore
SplineSet
152 421 m 1xd4
 152 394 137 360 102 360 c 0xd4
 89 360 78 365 67 370 c 0
 57 374 46 379 35 379 c 0xcc
 24 379 17 374 15 360 c 1
 -18 360 l 1
 -18 387 -4 421 31 421 c 0xd4
 44 421 55 416 66 412 c 0
 76 407 87 403 98 403 c 0xe4
 108 403 116 408 118 421 c 1
 152 421 l 1xd4
43 0 m 1
 43 306 l 1
 90 306 l 1
 90 0 l 1
 43 0 l 1
EndSplineSet
EndChar

StartChar: j
Encoding: 106 106 184
Width: 106
VWidth: 659
GlyphClass: 2
Flags: MW
HStem: -106 40<9.5 11 -24 39.5> 286 20G<29 77 77 77> 364 57<29 77 29 77>
VStem: 29 48<-38 -36 -36 306 364 421>
LayerCount: 2
Back
Fore
SplineSet
29 364 m 1
 29 421 l 1
 77 421 l 1
 77 364 l 1
 29 364 l 1
77 -36 m 2
 77 -71 63 -106 16 -106 c 0
 3 -106 -14 -103 -24 -99 c 1
 -24 -66 l 1
 2 -66 l 2
 20 -66 29 -56 29 -38 c 2
 29 306 l 1
 77 306 l 1
 77 -36 l 2
EndSplineSet
EndChar

StartChar: jcircumflex
Encoding: 309 309 185
Width: 106
VWidth: 659
GlyphClass: 2
Flags: MW
HStem: -106 40<9.5 11 -24 39.5> 286 20G<29 77 77 77> 342 78<-20 76 -20 76 30 126 30 79> 388 32<53 53>
VStem: 29 48<-38 -36 -36 306>
LayerCount: 2
Back
Fore
SplineSet
79 342 m 1xe8
 53 388 l 1xd8
 27 342 l 1
 -20 342 l 1
 30 420 l 1
 76 420 l 1
 126 342 l 1
 79 342 l 1xe8
77 -36 m 2
 77 -71 63 -106 16 -106 c 0
 3 -106 -14 -103 -24 -99 c 1
 -24 -66 l 1
 2 -66 l 2
 20 -66 29 -56 29 -38 c 2
 29 306 l 1
 77 306 l 1
 77 -36 l 2
EndSplineSet
EndChar

StartChar: k
Encoding: 107 107 186
Width: 239
VWidth: 659
GlyphClass: 2
Flags: MW
HStem: 0 21G<35 83 35 35 185 239 185 185> 286 20G<182 235 235 235> 401 20G<35 83 83 83>
VStem: 35 48<0 104 164 421>
AnchorPoint: "Anchor-1" 119 0 basechar 0
AnchorPoint: "Anchor-0" 0 0 basechar 0
LayerCount: 2
Back
Fore
SplineSet
182 306 m 1
 235 306 l 1
 144 181 l 1
 239 0 l 1
 185 0 l 1
 115 140 l 1
 83 104 l 1
 83 0 l 1
 35 0 l 1
 35 421 l 1
 83 421 l 1
 83 164 l 1
 182 306 l 1
EndSplineSet
EndChar

StartChar: kcommaaccent
Encoding: 311 311 187
Width: 239
VWidth: 659
GlyphClass: 2
Flags: MW
HStem: -88 53<95 115 95 144> 0 21G<35 83 35 35 185 239 185 185> 286 20G<182 235 235 235> 401 20G<35 83 83 83>
VStem: 35 48<0 104 164 421> 95 49<-84 -35 -84 -35 -84 -35>
LayerCount: 2
Back
Fore
SplineSet
182 306 m 1
 235 306 l 1
 144 181 l 1
 239 0 l 1
 185 0 l 1
 115 140 l 1
 83 104 l 1
 83 0 l 1
 35 0 l 1
 35 421 l 1
 83 421 l 1
 83 164 l 1
 182 306 l 1
128 -129 m 1xfc
 101 -129 l 1
 115 -88 l 1
 95 -88 l 1
 95 -35 l 1
 144 -35 l 1
 144 -84 l 1
 128 -129 l 1xfc
EndSplineSet
EndChar

StartChar: kgreenlandic
Encoding: 312 312 188
Width: 238
VWidth: 659
GlyphClass: 2
Flags: MW
HStem: 0 21G<35 83 35 35 185 239 185 185> 286 20G<35 83 83 83 182 235 235 235>
VStem: 35 48<0 104 164 306>
LayerCount: 2
Back
Fore
SplineSet
239 0 m 1
 185 0 l 1
 115 140 l 1
 83 104 l 1
 83 0 l 1
 35 0 l 1
 35 306 l 1
 83 306 l 1
 83 164 l 1
 182 306 l 1
 235 306 l 1
 144 181 l 1
 239 0 l 1
EndSplineSet
EndChar

StartChar: l
Encoding: 108 108 189
Width: 106
VWidth: 659
GlyphClass: 2
Flags: MW
HStem: 0 21G<29 29 29 77> 401 20G<29 77 77 77>
VStem: 29 48<0 421 0 421>
AnchorPoint: "Anchor-1" 53 0 basechar 0
AnchorPoint: "Anchor-0" 53 306 basechar 0
LayerCount: 2
Back
Fore
SplineSet
29 0 m 1
 29 421 l 1
 77 421 l 1
 77 0 l 1
 29 0 l 1
EndSplineSet
EndChar

StartChar: lacute
Encoding: 314 314 190
Width: 106
VWidth: 659
GlyphClass: 2
Flags: MW
HStem: 0 21G<29 77 29 29> 401 20G<29 77 77 77> 438 77<18 121 18 121>
VStem: 29 48<0 421>
LayerCount: 2
Back
Fore
SplineSet
121 513 m 1
 59 438 l 1
 18 438 l 1
 69 515 l 1
 121 515 l 1
 121 513 l 1
77 0 m 1
 29 0 l 1
 29 421 l 1
 77 421 l 1xd0
 77 0 l 1
EndSplineSet
EndChar

StartChar: lcaron
Encoding: 318 318 191
Width: 139
VWidth: 659
GlyphClass: 2
Flags: MW
HStem: 0 21G<29 29 29 77> 337 62<100 123 100 158> 337 84<29 123 29 100>
VStem: 29 48<0 421 0 421> 100 58<342 399 342 399 342 399>
LayerCount: 2
Back
Fore
SplineSet
29 0 m 1xd0
 29 421 l 1
 77 421 l 1xb0
 77 0 l 1
 29 0 l 1xd0
130 264 m 1
 100 264 l 1
 123 337 l 1xd0
 100 337 l 1
 100 399 l 1xd8
 158 399 l 1
 158 342 l 1xd0
 130 264 l 1
EndSplineSet
EndChar

StartChar: lcommaaccent
Encoding: 316 316 192
Width: 106
VWidth: 659
GlyphClass: 2
Flags: MW
HStem: -88 53<28 48 28 78> 0 21G<29 29 29 77> 401 20G<29 77 77 77>
VStem: 29 48<0 421 0 421>
LayerCount: 2
Back
Fore
SplineSet
29 0 m 1
 29 421 l 1
 77 421 l 1
 77 0 l 1
 29 0 l 1
61 -129 m 1
 36 -129 l 1
 48 -88 l 1
 28 -88 l 1
 28 -35 l 1
 78 -35 l 1
 78 -84 l 1
 61 -129 l 1
EndSplineSet
EndChar

StartChar: ldot
Encoding: 320 320 193
Width: 188
VWidth: 659
GlyphClass: 2
Flags: MW
HStem: 0 21G<29 29 29 77> 168 65<100 159 100 159> 401 20G<29 77 77 77>
VStem: 29 48<0 421 0 421> 100 59<168 233 168 233>
LayerCount: 2
Back
Fore
SplineSet
29 0 m 1
 29 421 l 1
 77 421 l 1
 77 0 l 1
 29 0 l 1
100 168 m 1xf8
 100 233 l 1xf8
 159 233 l 1
 159 168 l 1xf0
 100 168 l 1xf8
EndSplineSet
Ligature2: "Ligature Substitution lookup 41 subtable" l periodcentered
EndChar

StartChar: lslash
Encoding: 322 322 194
Width: 106
VWidth: 659
GlyphClass: 2
Flags: MW
HStem: 0 21G<29 77 29 29> 401 20G<29 77 77 77>
VStem: 29 48<0 143 143 143 185 186 0 228 228 421>
LayerCount: 2
Back
Fore
SplineSet
128 273 m 1
 128 231 l 1
 77 186 l 1
 77 0 l 1
 29 0 l 1
 29 143 l 1
 -13 107 l 1
 -13 148 l 1
 29 185 l 1
 29 421 l 1
 77 421 l 1
 77 228 l 1
 128 273 l 1
EndSplineSet
EndChar

StartChar: m
Encoding: 109 109 195
Width: 398
VWidth: 659
GlyphClass: 2
Flags: MW
HStem: 0 21G<35 83 35 35 175 223 175 175 315 363 315 315> 271 35<35 81 35 81> 271 43<136.5 147 276.5 287>
VStem: 35 48<0 187 0 306> 175 48<0 187 0 217 0 238.5> 315 48<0 217 217 221 0 238.5>
LayerCount: 2
Back
Fore
SplineSet
291 314 m 0xbc
 334 314 363 289 363 221 c 2
 363 0 l 1
 315 0 l 1
 315 217 l 2
 315 260 299 271 275 271 c 0
 247 271 223 240 223 187 c 2
 223 0 l 1
 175 0 l 1
 175 217 l 2
 175 260 158 271 136 271 c 0
 107 271 83 240 83 187 c 2xbc
 83 0 l 1
 35 0 l 1
 35 306 l 1
 71 306 l 1xdc
 78 271 l 1
 81 271 l 1
 98 301 122 314 151 314 c 0
 181 314 205 301 216 269 c 1
 233 299 262 314 291 314 c 0xbc
EndSplineSet
EndChar

StartChar: n
Encoding: 110 110 196
Width: 266
VWidth: 659
GlyphClass: 2
Flags: MW
HStem: 0 21G<35 83 35 35 183 231 183 183> 271 35<35 81 35 81> 271 43<140 152.5>
VStem: 35 48<0 187 0 306> 183 48<0 217 217 221 0 238.5>
AnchorPoint: "Anchor-1" 133 0 basechar 0
AnchorPoint: "Anchor-0" 133 306 basechar 0
LayerCount: 2
Back
Fore
SplineSet
155 314 m 0xb8
 201 314 231 289 231 221 c 2
 231 0 l 1
 183 0 l 1
 183 217 l 2
 183 260 165 271 140 271 c 0
 109 271 83 240 83 187 c 2xb8
 83 0 l 1
 35 0 l 1
 35 306 l 1
 71 306 l 1xd8
 78 271 l 1
 81 271 l 1
 98 301 125 314 155 314 c 0xb8
EndSplineSet
Substitution2: "'sups' Superscript lookup 11 subtable" uni207F
Substitution2: "'aalt' Access All Alternates lookup 0 subtable" uni207F
EndChar

StartChar: nacute
Encoding: 324 324 197
Width: 266
VWidth: 659
GlyphClass: 2
Flags: MW
HStem: 0 21G<35 83 35 35 183 231 183 183> 271 35<35 81 35 81> 271 43<140 152.5> 344 77<98 200 98 200>
VStem: 35 48<0 187 0 306> 183 48<0 217 217 221 0 238.5>
LayerCount: 2
Back
Fore
SplineSet
201 419 m 1xbc
 138 344 l 1
 98 344 l 1
 148 421 l 1
 200 421 l 1
 201 419 l 1xbc
155 314 m 0xac
 201 314 231 289 231 221 c 2
 231 0 l 1
 183 0 l 1
 183 217 l 2
 183 260 165 271 140 271 c 0
 109 271 83 240 83 187 c 2xac
 83 0 l 1
 35 0 l 1
 35 306 l 1
 71 306 l 1xcc
 78 271 l 1
 81 271 l 1
 98 301 125 314 155 314 c 0xac
EndSplineSet
EndChar

StartChar: napostrophe
Encoding: 329 329 198
Width: 334
VWidth: 659
GlyphClass: 2
Flags: MW
HStem: 0 21G<103 151 103 103 251 299 251 251> 271 35<103 149 103 149> 271 43<208 220.5> 346 53<28 47 28 78>
VStem: 28 50<350 350 350 399 350 399> 103 48<0 187 0 306> 251 48<0 217 217 221 0 238.5>
LayerCount: 2
Back
Fore
SplineSet
78 350 m 1xba
 61 304 l 1
 34 304 l 1
 47 346 l 1
 28 346 l 1
 28 399 l 1
 78 399 l 1
 78 350 l 1xba
223 314 m 0xbe
 269 314 299 289 299 221 c 2
 299 0 l 1
 251 0 l 1
 251 217 l 2
 251 260 233 271 208 271 c 0
 178 271 151 240 151 187 c 2xbe
 151 0 l 1
 103 0 l 1
 103 306 l 1
 139 306 l 1xde
 146 271 l 1
 149 271 l 1
 166 301 193 314 223 314 c 0xbe
EndSplineSet
EndChar

StartChar: ncaron
Encoding: 328 328 199
Width: 266
VWidth: 659
GlyphClass: 2
Flags: MW
HStem: 0 21G<35 83 35 35 183 231 183 183> 271 35<35 81 35 81> 271 43<140 152.5> 343 78<61 109 61 156>
VStem: 35 48<0 187 0 306> 183 48<0 217 217 221 0 238.5>
LayerCount: 2
Back
Fore
SplineSet
109 343 m 1xdc
 61 421 l 1
 107 421 l 1
 133 375 l 1
 159 421 l 1
 206 421 l 1
 156 343 l 1
 109 343 l 1xdc
155 314 m 0xbc
 201 314 231 289 231 221 c 2
 231 0 l 1
 183 0 l 1
 183 217 l 2
 183 260 165 271 140 271 c 0
 109 271 83 240 83 187 c 2xbc
 83 0 l 1
 35 0 l 1
 35 306 l 1
 71 306 l 1xdc
 78 271 l 1
 81 271 l 1
 98 301 125 314 155 314 c 0xbc
EndSplineSet
EndChar

StartChar: ncommaaccent
Encoding: 326 326 200
Width: 266
VWidth: 659
GlyphClass: 2
Flags: MW
HStem: -88 53<108 128 108 158> 0 21G<35 83 35 35 183 231 183 183> 271 35<35 81 35 81> 271 43<140 152.5>
VStem: 35 48<0 187 0 306> 108 50<-84 -35 -84 -35 -84 -35> 183 48<0 217 217 221 0 238.5>
LayerCount: 2
Back
Fore
SplineSet
155 314 m 0xde
 201 314 231 289 231 221 c 2
 231 0 l 1
 183 0 l 1
 183 217 l 2
 183 260 165 271 140 271 c 0
 109 271 83 240 83 187 c 2xde
 83 0 l 1
 35 0 l 1
 35 306 l 1
 71 306 l 1xec
 78 271 l 1
 81 271 l 1
 98 301 125 314 155 314 c 0xde
141 -129 m 1xd4
 115 -129 l 1
 128 -88 l 1
 108 -88 l 1
 108 -35 l 1
 158 -35 l 1
 158 -84 l 1
 141 -129 l 1xd4
EndSplineSet
EndChar

StartChar: eng
Encoding: 331 331 201
Width: 266
VWidth: 659
GlyphClass: 2
Flags: MW
HStem: -106 40<163 164.5 130 193.5> 0 21G<35 83 35 35> 271 35<35 81 35 81> 271 43<140 152.5>
VStem: 35 48<0 187 0 306> 183 48<-38 -36 -36 217 217 221>
LayerCount: 2
Back
Fore
SplineSet
155 314 m 0xdc
 201 314 231 289 231 221 c 2
 231 -36 l 2
 231 -71 217 -106 170 -106 c 0
 156 -106 140 -103 130 -99 c 1
 130 -66 l 1
 156 -66 l 2
 173 -66 183 -56 183 -38 c 2
 183 217 l 2
 183 260 165 271 140 271 c 0
 109 271 83 240 83 187 c 2xdc
 83 0 l 1
 35 0 l 1
 35 306 l 1
 71 306 l 1xec
 78 271 l 1
 81 271 l 1
 98 301 125 314 155 314 c 0xdc
EndSplineSet
EndChar

StartChar: ntilde
Encoding: 241 241 202
Width: 266
VWidth: 659
GlyphClass: 2
Flags: MW
HStem: 0 21G<35 83 35 35 183 231 183 183> 271 35<35 81 35 81> 271 43<140 152.5> 360 43<161.5 169.5 158.5 186> 360 61<80.5 82 47 104.5 184 186> 379 42<96 104.5 80.5 106.5>
VStem: 35 48<0 187 0 306> 47 35<360 373.5> 183 48<0 217 217 221 0 238.5>
LayerCount: 2
Back
Fore
SplineSet
218 421 m 1xaa80
 218 394 204 360 168 360 c 0xaa80
 155 360 144 365 133 370 c 0
 123 374 112 379 101 379 c 0xa580
 91 379 83 374 82 360 c 1
 47 360 l 1
 47 387 63 421 98 421 c 0xa980
 111 421 122 416 133 412 c 0
 143 407 153 403 164 403 c 0xb180
 175 403 183 408 184 421 c 1
 218 421 l 1xaa80
155 314 m 0
 201 314 231 289 231 221 c 2
 231 0 l 1
 183 0 l 1
 183 217 l 2
 183 260 165 271 140 271 c 0
 109 271 83 240 83 187 c 2xaa80
 83 0 l 1
 35 0 l 1
 35 306 l 1
 71 306 l 1xca80
 78 271 l 1
 81 271 l 1
 98 301 125 314 155 314 c 0
EndSplineSet
EndChar

StartChar: o
Encoding: 111 111 203
Width: 266
VWidth: 659
GlyphClass: 2
Flags: MW
HStem: -7 43<113 153 113 168.5> 271 43<113 153>
VStem: 23 50<107 142 142 164 107 208.5> 192 51<142 164 164 199.5>
AnchorPoint: "Anchor-1" 0 0 basechar 0
AnchorPoint: "Anchor-0" 133 306 basechar 0
LayerCount: 2
Back
Fore
SplineSet
133 314 m 0
 204 314 243 264 243 153 c 0
 243 43 204 -7 133 -7 c 0
 61 -7 23 43 23 153 c 0
 23 264 61 314 133 314 c 0
133 271 m 0
 93 271 73 235 73 164 c 2
 73 142 l 2
 73 72 93 36 133 36 c 0
 173 36 192 72 192 142 c 2
 192 164 l 2
 192 235 173 271 133 271 c 0
EndSplineSet
Substitution2: "Single Substitution lookup 42 subtable" ordmasculine
Substitution2: "'aalt' Access All Alternates lookup 0 subtable" ordmasculine
EndChar

StartChar: oacute
Encoding: 243 243 204
Width: 266
VWidth: 659
GlyphClass: 2
Flags: MW
HStem: -7 43<113 153 113 168.5> 271 43<113 153> 344 77<98 200 98 200>
VStem: 23 50<107 142 142 164 107 208.5> 192 51<142 164 164 199.5>
LayerCount: 2
Back
Fore
SplineSet
201 419 m 1
 138 344 l 1
 98 344 l 1
 148 421 l 1
 200 421 l 1
 201 419 l 1
133 314 m 0xd8
 204 314 243 264 243 153 c 0
 243 43 204 -7 133 -7 c 0
 61 -7 23 43 23 153 c 0
 23 264 61 314 133 314 c 0xd8
133 271 m 0
 93 271 73 235 73 164 c 2
 73 142 l 2
 73 72 93 36 133 36 c 0
 173 36 192 72 192 142 c 2
 192 164 l 2
 192 235 173 271 133 271 c 0
EndSplineSet
EndChar

StartChar: obreve
Encoding: 335 335 205
Width: 266
VWidth: 659
GlyphClass: 2
Flags: MW
HStem: -7 43<113 153 113 168.5> 271 43<113 153> 364 57<61 155.5>
VStem: 23 50<107 142 142 164 107 208.5> 192 51<142 164 164 199.5>
LayerCount: 2
Back
Fore
SplineSet
205 421 m 1
 205 395 178 364 133 364 c 0
 88 364 61 395 61 421 c 1
 98 421 l 1
 100 413 113 402 133 402 c 0
 153 402 167 413 168 421 c 1
 205 421 l 1
133 314 m 0
 204 314 243 264 243 153 c 0
 243 43 204 -7 133 -7 c 0
 61 -7 23 43 23 153 c 0
 23 264 61 314 133 314 c 0
133 271 m 0
 93 271 73 235 73 164 c 2
 73 142 l 2
 73 72 93 36 133 36 c 0
 173 36 192 72 192 142 c 2
 192 164 l 2
 192 235 173 271 133 271 c 0
EndSplineSet
EndChar

StartChar: ocircumflex
Encoding: 244 244 206
Width: 266
VWidth: 659
GlyphClass: 2
Flags: MW
HStem: -7 43<113 153 113 168.5> 271 43<113 153> 342 78<61 156 61 156 110 206 110 159> 388 32<133 133>
VStem: 23 50<107 142 142 164 107 208.5> 192 51<142 164 164 199.5>
LayerCount: 2
Back
Fore
SplineSet
159 342 m 1xec
 133 388 l 1xdc
 107 342 l 1
 61 342 l 1
 110 420 l 1
 156 420 l 1
 206 342 l 1
 159 342 l 1xec
133 314 m 0
 204 314 243 264 243 153 c 0
 243 43 204 -7 133 -7 c 0
 61 -7 23 43 23 153 c 0
 23 264 61 314 133 314 c 0
133 271 m 0
 93 271 73 235 73 164 c 2
 73 142 l 2
 73 72 93 36 133 36 c 0
 173 36 192 72 192 142 c 2
 192 164 l 2
 192 235 173 271 133 271 c 0
EndSplineSet
EndChar

StartChar: odieresis
Encoding: 246 246 207
Width: 266
VWidth: 659
GlyphClass: 2
Flags: MW
HStem: -7 43<113 153 113 168.5> 271 43<113 153> 366 55<63 114 63 114 63 151 151 202>
VStem: 23 50<107 142 142 164 107 208.5> 63 51<366 421> 151 51<366 421> 192 51<142 164 164 199.5>
LayerCount: 2
Back
Fore
SplineSet
114 366 m 1xec
 63 366 l 1
 63 421 l 1
 114 421 l 1
 114 366 l 1xec
202 366 m 1
 151 366 l 1
 151 421 l 1
 202 421 l 1
 202 366 l 1
133 314 m 0xf2
 204 314 243 264 243 153 c 0
 243 43 204 -7 133 -7 c 0
 61 -7 23 43 23 153 c 0
 23 264 61 314 133 314 c 0xf2
133 271 m 0
 93 271 73 235 73 164 c 2
 73 142 l 2
 73 72 93 36 133 36 c 0
 173 36 192 72 192 142 c 2
 192 164 l 2
 192 235 173 271 133 271 c 0
EndSplineSet
EndChar

StartChar: ograve
Encoding: 242 242 208
Width: 266
VWidth: 659
GlyphClass: 2
Flags: MW
HStem: -7 43<113 153 113 168.5> 271 43<113 153> 344 77<65 168 65 128>
VStem: 23 50<107 142 142 164 107 208.5> 192 51<142 164 164 199.5>
LayerCount: 2
Back
Fore
SplineSet
168 344 m 1
 128 344 l 1
 64 419 l 1
 65 421 l 1
 118 421 l 1
 168 344 l 1
133 314 m 0xd8
 204 314 243 264 243 153 c 0
 243 43 204 -7 133 -7 c 0
 61 -7 23 43 23 153 c 0
 23 264 61 314 133 314 c 0xd8
133 271 m 0
 93 271 73 235 73 164 c 2
 73 142 l 2
 73 72 93 36 133 36 c 0
 173 36 192 72 192 142 c 2
 192 164 l 2
 192 235 173 271 133 271 c 0
EndSplineSet
EndChar

StartChar: ohungarumlaut
Encoding: 337 337 209
Width: 266
VWidth: 659
GlyphClass: 2
Flags: MW
HStem: -7 43<113 153 113 168.5> 271 43<113 153> 344 77<113 117 77 165 153 153 153 165 189 193>
VStem: 23 50<107 142 142 164 107 208.5> 192 51<142 164 164 199.5>
LayerCount: 2
Back
Fore
SplineSet
117 344 m 1
 77 344 l 1
 113 421 l 1
 165 421 l 1
 166 419 l 1
 117 344 l 1
193 344 m 1
 153 344 l 1
 189 421 l 1
 242 421 l 1
 243 419 l 1
 193 344 l 1
133 314 m 0xd8
 204 314 243 264 243 153 c 0
 243 43 204 -7 133 -7 c 0
 61 -7 23 43 23 153 c 0
 23 264 61 314 133 314 c 0xd8
133 271 m 0
 93 271 73 235 73 164 c 2
 73 142 l 2
 73 72 93 36 133 36 c 0
 173 36 192 72 192 142 c 2
 192 164 l 2
 192 235 173 271 133 271 c 0
EndSplineSet
EndChar

StartChar: omacron
Encoding: 333 333 210
Width: 266
VWidth: 659
GlyphClass: 2
Flags: MW
HStem: -7 43<113 153 113 168.5> 271 43<113 153> 349 42<60 206 60 206>
VStem: 23 50<107 142 142 164 107 208.5> 60 146<349 391 349 391> 192 51<142 164 164 199.5>
LayerCount: 2
Back
Fore
SplineSet
60 349 m 1xe8
 60 391 l 1
 206 391 l 1
 206 349 l 1
 60 349 l 1xe8
133 314 m 0xf4
 204 314 243 264 243 153 c 0
 243 43 204 -7 133 -7 c 0
 61 -7 23 43 23 153 c 0
 23 264 61 314 133 314 c 0xf4
133 271 m 0
 93 271 73 235 73 164 c 2
 73 142 l 2
 73 72 93 36 133 36 c 0
 173 36 192 72 192 142 c 2
 192 164 l 2
 192 235 173 271 133 271 c 0
EndSplineSet
EndChar

StartChar: oslash
Encoding: 248 248 211
Width: 292
VWidth: 659
GlyphClass: 2
Flags: MW
HStem: -7 43<137.5 165.5 137.5 181.5> 271 43<126 153.5>
VStem: 36 50<130.5 142 142 164 130.5 208.5> 205 50<142 164 164 175.5>
AnchorPoint: "Anchor-1" 0 0 basechar 0
AnchorPoint: "Anchor-0" 146 306 basechar 0
LayerCount: 2
Back
Fore
SplineSet
227 274 m 1
 246 248 255 208 255 153 c 0
 255 43 217 -7 146 -7 c 0
 121 -7 100 -1 84 11 c 1
 68 -18 l 1
 36 -18 l 1
 63 32 l 1
 45 58 36 98 36 153 c 0
 36 264 74 314 146 314 c 0
 170 314 190 308 207 295 c 1
 223 325 l 1
 255 325 l 1
 227 274 l 1
146 271 m 0
 106 271 86 235 86 164 c 2
 86 142 l 2
 86 119 88 100 92 84 c 1
 184 254 l 1
 174 265 161 271 146 271 c 0
107 53 m 1
 117 42 129 36 146 36 c 0
 185 36 205 72 205 142 c 2
 205 164 l 2
 205 187 203 206 198 221 c 1
 107 53 l 1
EndSplineSet
EndChar

StartChar: oslashacute
Encoding: 511 511 212
Width: 292
VWidth: 659
GlyphClass: 2
Flags: MW
HStem: -7 43<137.5 165.5 137.5 181.5> 271 43<126 153.5> 344 77<111 214 111 214>
VStem: 36 50<130.5 142 142 164 130.5 208.5> 205 50<142 164 164 175.5>
LayerCount: 2
Back
Fore
SplineSet
214 419 m 1
 152 344 l 1
 111 344 l 1
 161 421 l 1
 214 421 l 1
 214 419 l 1
227 274 m 1xd8
 246 248 255 208 255 153 c 0
 255 43 217 -7 146 -7 c 0
 121 -7 100 -1 84 11 c 1
 68 -18 l 1
 36 -18 l 1
 63 32 l 1
 45 58 36 98 36 153 c 0
 36 264 74 314 146 314 c 0
 170 314 190 308 207 295 c 1
 223 325 l 1
 255 325 l 1
 227 274 l 1xd8
146 271 m 0
 106 271 86 235 86 164 c 2
 86 142 l 2
 86 119 88 100 92 84 c 1
 184 254 l 1
 174 265 161 271 146 271 c 0
107 53 m 1
 117 42 129 36 146 36 c 0
 185 36 205 72 205 142 c 2
 205 164 l 2
 205 187 203 206 198 221 c 1
 107 53 l 1
EndSplineSet
EndChar

StartChar: otilde
Encoding: 245 245 213
Width: 266
VWidth: 659
GlyphClass: 2
Flags: MW
HStem: -7 43<113 153 113 168.5> 271 43<113 153> 360 43<161.5 169.5 158.5 186> 360 61<80.5 82 47 104.5 184 186> 379 42<96 104.5 80.5 106.5>
VStem: 23 50<107 142 142 164 107 208.5> 47 35<360 373.5> 192 51<142 164 164 199.5>
LayerCount: 2
Back
Fore
SplineSet
218 421 m 1xd5
 218 394 204 360 168 360 c 0xd5
 155 360 144 365 133 370 c 0
 123 374 112 379 101 379 c 0xcb
 91 379 83 374 82 360 c 1
 47 360 l 1
 47 387 63 421 98 421 c 0xd3
 111 421 122 416 133 412 c 0
 143 407 153 403 164 403 c 0xe3
 175 403 183 408 184 421 c 1
 218 421 l 1xd5
133 314 m 0
 204 314 243 264 243 153 c 0
 243 43 204 -7 133 -7 c 0
 61 -7 23 43 23 153 c 0
 23 264 61 314 133 314 c 0
133 271 m 0
 93 271 73 235 73 164 c 2
 73 142 l 2
 73 72 93 36 133 36 c 0
 173 36 192 72 192 142 c 2
 192 164 l 2
 192 235 173 271 133 271 c 0
EndSplineSet
EndChar

StartChar: oe
Encoding: 339 339 214
Width: 451
VWidth: 659
GlyphClass: 2
Flags: MW
HStem: -7 43<120.5 159.5 296 333.5> 139 43<252 367 252 417 251 367> 271 43<120.5 159.5 104.5 160 295.5 332.5>
VStem: 31 50<107 142 142 164 107 208.5> 200 51<139 164 139 199.5> 367 50
AnchorPoint: "Anchor-1" 0 0 basechar 0
AnchorPoint: "Anchor-0" 225 306 basechar 0
LayerCount: 2
Back
Fore
SplineSet
316 314 m 0
 384 314 417 272 417 169 c 2
 417 139 l 1
 251 139 l 1
 252 68 273 36 318 36 c 0
 349 36 370 62 370 104 c 1
 417 104 l 1
 417 36 376 -7 317 -7 c 0
 275 -7 244 7 225 38 c 1
 208 7 179 -7 140 -7 c 0
 69 -7 31 43 31 153 c 0
 31 264 69 314 140 314 c 0
 179 314 208 299 225 269 c 1
 244 299 275 314 316 314 c 0
140 271 m 0
 101 271 81 235 81 164 c 2
 81 142 l 2
 81 72 101 36 140 36 c 0
 180 36 200 72 200 142 c 2
 200 164 l 2
 200 235 180 271 140 271 c 0
316 271 m 0
 273 271 256 241 252 182 c 1
 367 182 l 1
 367 240 349 271 316 271 c 0
EndSplineSet
EndChar

StartChar: p
Encoding: 112 112 215
Width: 266
VWidth: 659
GlyphClass: 2
Flags: MW
HStem: -7 43<136 156 119.5 176.5> 271 35<35 80 35 80> 271 43<133.5 156>
VStem: 35 48<-101 27 107 142 142 164> 192 51<142 164 164 202.5>
LayerCount: 2
Back
Fore
SplineSet
148 314 m 0xb8
 206 314 243 265 243 153 c 0
 243 42 202 -7 151 -7 c 0
 121 -7 96 6 86 27 c 1
 83 27 l 1
 83 -101 l 1
 35 -101 l 1
 35 306 l 1
 71 306 l 1xd8
 78 271 l 1
 80 271 l 1
 95 299 119 314 148 314 c 0xb8
138 271 m 0
 101 271 83 235 83 164 c 2
 83 142 l 2
 83 72 101 36 138 36 c 0
 174 36 192 66 192 142 c 2
 192 164 l 2
 192 241 174 271 138 271 c 0
EndSplineSet
EndChar

StartChar: thorn
Encoding: 254 254 216
Width: 266
VWidth: 659
GlyphClass: 2
Flags: MW
HStem: -7 43<136 156 119.5 176.5> 271 43<134.5 156> 401 20G<35 83 83 83>
VStem: 35 48<-101 27 107 142 142 164 279 421> 192 51<142 164 164 202.5>
LayerCount: 2
Back
Fore
SplineSet
83 279 m 1
 85 279 l 1
 98 300 121 314 148 314 c 0
 206 314 243 265 243 153 c 0
 243 42 202 -7 151 -7 c 0
 121 -7 96 6 86 27 c 1
 83 27 l 1
 83 -101 l 1
 35 -101 l 1
 35 421 l 1
 83 421 l 1
 83 279 l 1
138 271 m 0
 101 271 83 235 83 164 c 2
 83 142 l 2
 83 72 101 36 138 36 c 0
 174 36 192 66 192 142 c 2
 192 164 l 2
 192 241 174 271 138 271 c 0
EndSplineSet
EndChar

StartChar: q
Encoding: 113 113 217
Width: 266
VWidth: 659
GlyphClass: 2
Flags: MW
HStem: -7 43<110 129.5> 271 35<185 231 188 231> 271 43<110 132 89 146.5>
VStem: 23 50<104 142 142 164 104 209> 183 48<-101 27 27 27 142 164 164 199.5>
LayerCount: 2
Back
Fore
SplineSet
118 314 m 0xb8
 146 314 171 299 185 271 c 1
 188 271 l 1xb8
 194 306 l 1
 231 306 l 1xd8
 231 -101 l 1
 183 -101 l 1
 183 27 l 1
 180 27 l 1
 169 6 144 -7 115 -7 c 0
 64 -7 23 42 23 153 c 0
 23 265 60 314 118 314 c 0xb8
128 271 m 0
 92 271 73 241 73 164 c 2
 73 142 l 2
 73 66 92 36 128 36 c 0
 165 36 183 72 183 142 c 2
 183 164 l 2
 183 235 165 271 128 271 c 0
EndSplineSet
EndChar

StartChar: r
Encoding: 114 114 218
Width: 159
VWidth: 659
GlyphClass: 2
Flags: MW
HStem: 0 21G<35 83 35 35> 259 47 259 55<124.5 139.5 118 140 118 156> 289 20G<156 156>
VStem: 35 48<0 187 0 306>
AnchorPoint: "Anchor-1" 80 0 basechar 0
AnchorPoint: "Anchor-0" 80 306 basechar 0
LayerCount: 2
Back
Fore
SplineSet
133 314 m 0xa8
 146 314 156 309 156 309 c 1x98
 156 259 l 1
 140 259 l 2
 109 259 83 241 83 187 c 2xa8
 83 0 l 1
 35 0 l 1
 35 306 l 1
 71 306 l 1xc8
 78 266 l 1
 81 266 l 1
 88 289 103 314 133 314 c 0xa8
EndSplineSet
EndChar

StartChar: racute
Encoding: 341 341 219
Width: 159
VWidth: 659
GlyphClass: 2
Flags: MW
HStem: 0 21G<35 83 35 35> 259 47 259 55<124.5 139.5 118 140 118 156> 289 20G<156 156> 344 77<19 122 19 122>
VStem: 35 48<0 187 0 306>
LayerCount: 2
Back
Fore
SplineSet
123 419 m 1x9c
 60 344 l 1
 19 344 l 1
 69 421 l 1
 122 421 l 1
 123 419 l 1x9c
133 314 m 0xac
 146 314 156 309 156 309 c 1x9c
 156 259 l 1
 140 259 l 2
 109 259 83 241 83 187 c 2xac
 83 0 l 1
 35 0 l 1
 35 306 l 1
 71 306 l 1xcc
 78 266 l 1
 81 266 l 1
 88 289 103 314 133 314 c 0xac
EndSplineSet
EndChar

StartChar: rcaron
Encoding: 345 345 220
Width: 159
VWidth: 659
GlyphClass: 2
Flags: MW
HStem: 0 21G<35 83 35 35> 259 47 259 55<124.5 139.5 118 140 118 156> 289 20G<156 156> 343 78<-2 48 -2 94>
VStem: 35 48<0 187 0 306>
LayerCount: 2
Back
Fore
SplineSet
48 343 m 1x9c
 -2 421 l 1
 45 421 l 1
 71 375 l 1
 98 421 l 1
 144 421 l 1
 94 343 l 1
 48 343 l 1x9c
133 314 m 0xac
 146 314 156 309 156 309 c 1x9c
 156 259 l 1
 140 259 l 2
 109 259 83 241 83 187 c 2xac
 83 0 l 1
 35 0 l 1
 35 306 l 1
 71 306 l 1xcc
 78 266 l 1
 81 266 l 1
 88 289 103 314 133 314 c 0xac
EndSplineSet
EndChar

StartChar: rcommaaccent
Encoding: 343 343 221
Width: 159
VWidth: 659
GlyphClass: 2
Flags: MW
HStem: -88 53<38 59 38 88> 0 21G<35 83 35 35> 259 47 259 55<124.5 139.5 118 140 118 156> 289 20G<156 156>
VStem: 35 48<0 187 0 306> 38 50<-84 -35 -84 -35 -84 -35>
LayerCount: 2
Back
Fore
SplineSet
133 314 m 0xd4
 146 314 156 309 156 309 c 1xcc
 156 259 l 1
 140 259 l 2
 109 259 83 241 83 187 c 2xd4
 83 0 l 1
 35 0 l 1
 35 306 l 1
 71 306 l 1xe4
 78 266 l 1
 81 266 l 1
 88 289 103 314 133 314 c 0xd4
72 -129 m 1xcc
 45 -129 l 1
 59 -88 l 1xcc
 38 -88 l 1
 38 -35 l 1xca
 88 -35 l 1
 88 -84 l 1
 72 -129 l 1xcc
EndSplineSet
EndChar

StartChar: s
Encoding: 115 115 222
Width: 239
VWidth: 659
GlyphClass: 2
Flags: MW
HStem: -7 42<106 132.5 106 146> 272 42<100 133.5>
VStem: 19 51<70.5 85.5> 26 50<214.5 237.5 214.5 253> 159 51<218 252 227.5 235.5> 166 49<65.5 98>
AnchorPoint: "Anchor-1" 119 0 basechar 0
AnchorPoint: "Anchor-0" 119 306 basechar 0
LayerCount: 2
Back
Fore
SplineSet
122 314 m 0xd8
 179 314 210 275 210 229 c 0
 210 226 210 223 209 220 c 0
 209 219 209 218 209 218 c 1
 159 218 l 1
 159 223 l 2
 159 248 150 272 117 272 c 0
 83 272 76 246 76 229 c 0xd8
 76 200 102 192 131 181 c 0
 170 168 215 153 215 88 c 0
 215 22 174 -7 118 -7 c 0
 47 -7 19 38 19 83 c 0
 19 88 19 91 20 94 c 0
 20 95 20 95 20 96 c 2
 70 96 l 1
 70 90 l 2
 70 51 92 35 120 35 c 0
 145 35 166 51 166 80 c 0xe4
 166 116 137 126 105 138 c 0
 67 151 26 166 26 226 c 0
 26 280 63 314 122 314 c 0xd8
EndSplineSet
EndChar

StartChar: sacute
Encoding: 347 347 223
Width: 239
VWidth: 659
GlyphClass: 2
Flags: MW
HStem: -7 42<106 132.5 106 146> 272 42<100 133.5> 344 77<85 187 85 187>
VStem: 19 51<70.5 85.5> 26 50<214.5 237.5 214.5 253> 159 51<218 252 227.5 235.5> 166 49<65.5 98>
LayerCount: 2
Back
Fore
SplineSet
188 419 m 1xec
 125 344 l 1
 85 344 l 1
 134 421 l 1
 187 421 l 1
 188 419 l 1xec
122 314 m 0xcc
 179 314 210 275 210 229 c 0
 210 226 210 223 209 220 c 0
 209 219 209 218 209 218 c 1
 159 218 l 1
 159 223 l 2
 159 248 150 272 117 272 c 0
 83 272 76 246 76 229 c 0xcc
 76 200 102 192 131 181 c 0
 170 168 215 153 215 88 c 0
 215 22 174 -7 118 -7 c 0
 47 -7 19 38 19 83 c 0
 19 88 19 91 20 94 c 0
 20 95 20 95 20 96 c 2
 70 96 l 1
 70 90 l 2
 70 51 92 35 120 35 c 0
 145 35 166 51 166 80 c 0xd2
 166 116 137 126 105 138 c 0
 67 151 26 166 26 226 c 0
 26 280 63 314 122 314 c 0xcc
EndSplineSet
EndChar

StartChar: scaron
Encoding: 353 353 224
Width: 239
VWidth: 659
GlyphClass: 2
Flags: MW
HStem: -7 42<106 132.5 106 146> 272 42<100 133.5> 343 78<47 142 47 97>
VStem: 19 51<70.5 85.5> 26 50<214.5 237.5 214.5 253> 159 51<218 252 227.5 235.5> 166 49<65.5 98>
LayerCount: 2
Back
Fore
SplineSet
142 343 m 1xec
 97 343 l 1
 47 421 l 1
 94 421 l 1
 119 375 l 1
 146 421 l 1
 192 421 l 1
 142 343 l 1xec
122 314 m 0xcc
 179 314 210 275 210 229 c 0
 210 226 210 223 209 220 c 0
 209 219 209 218 209 218 c 1
 159 218 l 1
 159 223 l 2
 159 248 150 272 117 272 c 0
 83 272 76 246 76 229 c 0xcc
 76 200 102 192 131 181 c 0
 170 168 215 153 215 88 c 0
 215 22 174 -7 118 -7 c 0
 47 -7 19 38 19 83 c 0
 19 88 19 91 20 94 c 0
 20 95 20 95 20 96 c 2
 70 96 l 1
 70 90 l 2
 70 51 92 35 120 35 c 0
 145 35 166 51 166 80 c 0xd2
 166 116 137 126 105 138 c 0
 67 151 26 166 26 226 c 0
 26 280 63 314 122 314 c 0xcc
EndSplineSet
EndChar

StartChar: scedilla
Encoding: 351 351 225
Width: 239
VWidth: 659
GlyphClass: 2
Flags: MW
HStem: -106 33<105.5 109 109 115.5 65 125.5> -45 24<91 127> -7 21G<129 129> -7 42<129 129> -6 21G<97 97> 272 42<100 133.5>
VStem: 19 51<70.5 85.5> 26 50<214.5 237.5 214.5 253> 94 34 130 44<-64.5 -54> 159 51<218 252 227.5 235.5> 166 49<65.5 98>
LayerCount: 2
Back
Fore
SplineSet
122 314 m 0x8d20
 179 314 210 275 210 229 c 0
 210 226 210 223 209 220 c 0
 209 219 209 218 209 218 c 1
 159 218 l 1
 159 223 l 2
 159 248 150 272 117 272 c 0
 83 272 76 246 76 229 c 0x8d20
 76 200 102 192 131 181 c 0
 170 168 215 153 215 88 c 0
 215 26 179 -3 129 -7 c 1xa590
 127 -21 l 1xcd40
 152 -22 174 -32 174 -59 c 0
 174 -98 138 -106 113 -106 c 0x8d40
 98 -106 78 -104 65 -101 c 1
 65 -73 l 1x8da0
 109 -73 l 2x8d40
 122 -73 130 -70 130 -59 c 0
 130 -49 125 -45 110 -45 c 2xcd40
 91 -45 l 1xcda0
 97 -6 l 1x8e20
 42 2 19 42 19 83 c 0
 19 88 19 91 20 94 c 0
 20 95 20 95 20 96 c 2xce20
 70 96 l 1
 70 90 l 2
 70 51 92 35 120 35 c 0
 145 35 166 51 166 80 c 0x9610
 166 116 137 126 105 138 c 0
 67 151 26 166 26 226 c 0
 26 280 63 314 122 314 c 0x8d20
EndSplineSet
Substitution2: "'locl' Localized Forms in Latin lookup 6 subtable" scommaaccent
Substitution2: "'locl' Localized Forms in Latin lookup 5 subtable" scommaaccent
Substitution2: "'aalt' Access All Alternates lookup 0 subtable" scommaaccent
EndChar

StartChar: scircumflex
Encoding: 349 349 226
Width: 239
VWidth: 659
GlyphClass: 2
Flags: MW
HStem: -7 42<106 132.5 106 146> 272 42<100 133.5> 342 78<47 143 47 143 98 192 98 146> 388 32<120 120>
VStem: 19 51<70.5 85.5> 26 50<214.5 237.5 214.5 253> 159 51<218 252 227.5 235.5> 166 49<65.5 98>
LayerCount: 2
Back
Fore
SplineSet
192 342 m 1xe6
 146 342 l 1xe6
 120 388 l 1xd6
 94 342 l 1
 47 342 l 1
 98 420 l 1
 143 420 l 1
 192 342 l 1xe6
122 314 m 0xd6
 179 314 210 275 210 229 c 0
 210 226 210 223 209 220 c 0
 209 219 209 218 209 218 c 1
 159 218 l 1
 159 223 l 2
 159 248 150 272 117 272 c 0
 83 272 76 246 76 229 c 0xd6
 76 200 102 192 131 181 c 0
 170 168 215 153 215 88 c 0
 215 22 174 -7 118 -7 c 0
 47 -7 19 38 19 83 c 0
 19 88 19 91 20 94 c 0
 20 95 20 95 20 96 c 2
 70 96 l 1
 70 90 l 2
 70 51 92 35 120 35 c 0
 145 35 166 51 166 80 c 0xd9
 166 116 137 126 105 138 c 0
 67 151 26 166 26 226 c 0
 26 280 63 314 122 314 c 0xd6
EndSplineSet
EndChar

StartChar: scommaaccent
Encoding: 537 537 227
Width: 239
VWidth: 659
GlyphClass: 2
Flags: MW
HStem: -88 53<94 114 94 144> -7 42<106 132.5 106 146> 272 42<100 133.5>
VStem: 19 51<70.5 85.5> 26 50<214.5 237.5 214.5 253> 94 50<-84 -35 -84 -35 -84 -35> 159 51<218 252 227.5 235.5> 166 49<65.5 98>
AnchorPoint: "Anchor-1" 119 0 basechar 0
AnchorPoint: "Anchor-0" 119 306 basechar 0
LayerCount: 2
Back
Fore
SplineSet
122 314 m 0x6e
 179 314 210 275 210 229 c 0
 210 226 210 223 209 220 c 0
 209 219 209 218 209 218 c 1
 159 218 l 1
 159 223 l 2
 159 248 150 272 117 272 c 0
 83 272 76 246 76 229 c 0x6e
 76 200 102 192 131 181 c 0
 170 168 215 153 215 88 c 0
 215 22 174 -7 118 -7 c 0
 47 -7 19 38 19 83 c 0
 19 88 19 91 20 94 c 0
 20 95 20 95 20 96 c 2
 70 96 l 1
 70 90 l 2
 70 51 92 35 120 35 c 0
 145 35 166 51 166 80 c 0x75
 166 116 137 126 105 138 c 0
 67 151 26 166 26 226 c 0
 26 280 63 314 122 314 c 0x6e
126 -129 m 1xe4
 100 -129 l 1
 114 -88 l 1
 94 -88 l 1
 94 -35 l 1
 144 -35 l 1
 144 -84 l 1
 126 -129 l 1xe4
EndSplineSet
EndChar

StartChar: germandbls
Encoding: 223 223 228
Width: 292
VWidth: 659
GlyphClass: 2
Flags: MW
HStem: 0 43<29 148 109 148 148 153 109 148> 204 42<109 144 144 148 109 144> 386 42<124 165.5>
VStem: 29 48<0 301 301 302 0 346> 109 93<228 230 228 246 228 246> 208 50<300 338> 221 49<102.5 146.5>
LayerCount: 2
Back
Fore
SplineSet
148 428 m 0xf4
 211 428 258 387 258 319 c 0xf4
 258 281 235 243 202 230 c 1
 202 228 l 1
 242 214 270 169 270 125 c 0
 270 49 218 0 153 0 c 2
 109 0 l 1
 109 43 l 1
 148 43 l 2
 188 43 221 80 221 125 c 0
 221 168 188 204 148 204 c 2xf2
 109 204 l 1
 109 246 l 1xf8
 144 246 l 2
 179 246 208 279 208 318 c 0
 208 358 186 386 145 386 c 0
 103 386 77 357 77 302 c 2
 77 0 l 1
 29 0 l 1
 29 301 l 2
 29 391 82 428 148 428 c 0xf4
EndSplineSet
EndChar

StartChar: longs
Encoding: 383 383 229
Width: 106
VWidth: 659
GlyphClass: 2
Flags: MW
HStem: 0 21G<32 80 32 32> 264 42<5 32 5 32> 386 40<98 100 69.5 107 69.5 133>
VStem: 32 48<0 264 264 264 306 355 355 358 0 372.5>
LayerCount: 2
Back
Fore
SplineSet
93 426 m 0
 107 426 123 422 133 419 c 1
 133 386 l 1
 107 386 l 2
 89 386 80 376 80 358 c 2
 80 0 l 1
 32 0 l 1
 32 264 l 1
 5 264 l 1
 5 306 l 1
 32 306 l 1
 32 355 l 2
 32 390 46 426 93 426 c 0
EndSplineSet
EndChar

StartChar: t
Encoding: 116 116 230
Width: 133
VWidth: 659
GlyphClass: 2
Flags: MW
HStem: -6 42<68 123> 264 42<8 34 8 34 82 123>
VStem: 34 48<65 264>
AnchorPoint: "Anchor-1" 78 0 basechar 0
AnchorPoint: "Anchor-0" 0 0 basechar 0
LayerCount: 2
Back
Fore
SplineSet
123 306 m 1
 123 264 l 1
 82 264 l 1
 82 63 l 2
 82 45 92 36 109 36 c 2
 123 36 l 1
 123 3 l 1
 115 -3 101 -6 89 -6 c 0
 47 -6 34 30 34 65 c 2
 34 264 l 1
 8 264 l 1
 8 306 l 1
 34 306 l 1
 45 391 l 1
 82 391 l 1
 82 306 l 1
 123 306 l 1
EndSplineSet
EndChar

StartChar: tbar
Encoding: 359 359 231
Width: 133
VWidth: 659
GlyphClass: 2
Flags: MW
HStem: -6 42<68 123> 163 41<9 34 9 34 82 121> 264 42<8 34 8 34 82 123>
VStem: 34 48<65 163 204 264>
LayerCount: 2
Back
Fore
SplineSet
82 306 m 1
 123 306 l 1
 123 264 l 1
 82 264 l 1
 82 204 l 1
 121 204 l 1
 121 163 l 1
 82 163 l 1
 82 63 l 2
 82 45 92 36 109 36 c 2
 123 36 l 1
 123 3 l 1
 115 -3 101 -6 89 -6 c 0
 47 -6 34 30 34 65 c 2
 34 163 l 1
 9 163 l 1
 9 204 l 1
 34 204 l 1
 34 264 l 1
 8 264 l 1
 8 306 l 1
 34 306 l 1
 45 391 l 1
 82 391 l 1
 82 306 l 1
EndSplineSet
EndChar

StartChar: tcaron
Encoding: 357 357 232
Width: 179
VWidth: 659
GlyphClass: 2
Flags: MW
HStem: -6 42<68 123> 264 42<8 34 8 34 82 123> 337 62<147 170 147 206>
VStem: 34 48<65 264> 147 59<342 399 342 399 342 399>
LayerCount: 2
Back
Fore
SplineSet
177 264 m 1
 147 264 l 1
 170 337 l 1
 147 337 l 1
 147 399 l 1
 206 399 l 1
 206 342 l 1
 177 264 l 1
123 306 m 1
 123 264 l 1
 82 264 l 1
 82 63 l 2
 82 45 92 36 109 36 c 2
 123 36 l 1
 123 3 l 1
 115 -3 101 -6 89 -6 c 0
 47 -6 34 30 34 65 c 2
 34 264 l 1
 8 264 l 1
 8 306 l 1
 34 306 l 1
 45 391 l 1
 82 391 l 1
 82 306 l 1
 123 306 l 1
EndSplineSet
EndChar

StartChar: uni0163
Encoding: 355 355 233
Width: 133
VWidth: 659
GlyphClass: 2
Flags: MW
HStem: -106 33<63.5 67 67 73.5 23 84> -45 24<49 85> -6 42<88 123> 264 42<8 34 8 34 82 123>
VStem: 34 48<65 264> 53 70 88 44<-64.5 -54 -78.5 -6>
AnchorPoint: "Anchor-1" 78 0 basechar 0
AnchorPoint: "Anchor-0" 0 0 basechar 0
LayerCount: 2
Back
Fore
SplineSet
85 -21 m 1xf2
 110 -22 132 -32 132 -59 c 0
 132 -98 96 -106 72 -106 c 0
 55 -106 37 -104 23 -101 c 1
 23 -73 l 1
 67 -73 l 2xb2
 80 -73 88 -70 88 -59 c 0
 88 -49 84 -45 69 -45 c 2xf2
 49 -45 l 1xf4
 57 4 l 1xf8
 40 17 34 41 34 65 c 2
 34 264 l 1
 8 264 l 1
 8 306 l 1
 34 306 l 1
 45 391 l 1
 82 391 l 1
 82 306 l 1
 123 306 l 1
 123 264 l 1
 82 264 l 1
 82 63 l 2
 82 45 92 36 109 36 c 2xb8
 123 36 l 1
 123 3 l 1
 115 -3 101 -6 88 -6 c 1xb4
 85 -21 l 1xf2
EndSplineSet
Substitution2: "'locl' Localized Forms in Latin lookup 6 subtable" uni021B
Substitution2: "'locl' Localized Forms in Latin lookup 5 subtable" uni021B
Substitution2: "'aalt' Access All Alternates lookup 0 subtable" uni021B
EndChar

StartChar: uni021B
Encoding: 539 539 234
Width: 133
VWidth: 659
GlyphClass: 2
Flags: MW
HStem: -88 53<42 62 42 92> -6 42<68 123> 264 42<8 34 8 34 82 123>
VStem: 34 48<65 264> 42 50<-84 -35 -84 -35 -84 -35>
LayerCount: 2
Back
Fore
SplineSet
123 306 m 1x70
 123 264 l 1
 82 264 l 1
 82 63 l 2
 82 45 92 36 109 36 c 2
 123 36 l 1
 123 3 l 1
 115 -3 101 -6 89 -6 c 0
 47 -6 34 30 34 65 c 2
 34 264 l 1
 8 264 l 1
 8 306 l 1
 34 306 l 1
 45 391 l 1
 82 391 l 1
 82 306 l 1
 123 306 l 1x70
74 -129 m 1xe8
 48 -129 l 1
 62 -88 l 1
 42 -88 l 1
 42 -35 l 1
 92 -35 l 1
 92 -84 l 1
 74 -129 l 1xe8
EndSplineSet
EndChar

StartChar: u
Encoding: 117 117 235
Width: 266
VWidth: 659
GlyphClass: 2
Flags: MW
HStem: -7 43<113 126> 0 36 286 20G<35 83 83 83 183 231 231 231>
VStem: 35 48<86 89 89 306> 183 48<119 306 0 306>
AnchorPoint: "Anchor-1" 0 0 basechar 0
AnchorPoint: "Anchor-0" 133 306 basechar 0
LayerCount: 2
Back
Fore
SplineSet
194 0 m 1x78
 188 36 l 1
 185 36 l 1
 168 5 141 -7 111 -7 c 0
 65 -7 35 18 35 86 c 2
 35 306 l 1
 83 306 l 1
 83 89 l 2
 83 47 100 36 126 36 c 0
 156 36 183 67 183 119 c 2xb8
 183 306 l 1
 231 306 l 1
 231 0 l 1
 194 0 l 1x78
EndSplineSet
EndChar

StartChar: uacute
Encoding: 250 250 236
Width: 266
VWidth: 659
GlyphClass: 2
Flags: MW
HStem: -7 43<113 126> 0 36 286 20G<35 83 83 83 183 231 231 231> 344 77<98 200 98 200>
VStem: 35 48<86 89 89 306> 183 48<119 306>
LayerCount: 2
Back
Fore
SplineSet
201 419 m 1xbc
 138 344 l 1
 98 344 l 1
 148 421 l 1
 200 421 l 1
 201 419 l 1xbc
231 0 m 1x7c
 194 0 l 1x7c
 188 36 l 1
 185 36 l 1
 168 5 141 -7 111 -7 c 0
 65 -7 35 18 35 86 c 2
 35 306 l 1
 83 306 l 1
 83 89 l 2
 83 47 100 36 126 36 c 0
 156 36 183 67 183 119 c 2xbc
 183 306 l 1
 231 306 l 1
 231 0 l 1x7c
EndSplineSet
EndChar

StartChar: ubreve
Encoding: 365 365 237
Width: 266
VWidth: 659
GlyphClass: 2
Flags: MW
HStem: -7 43<113 126> 0 36 286 20G<35 83 83 83 183 231 231 231> 364 57<61 155.5>
VStem: 35 48<86 89 89 306> 183 48<119 306 0 306>
LayerCount: 2
Back
Fore
SplineSet
205 421 m 1xbc
 205 395 178 364 133 364 c 0
 88 364 61 395 61 421 c 1
 98 421 l 1
 100 413 113 402 133 402 c 0
 153 402 167 413 168 421 c 1
 205 421 l 1xbc
194 0 m 1x7c
 188 36 l 1
 185 36 l 1
 168 5 141 -7 111 -7 c 0
 65 -7 35 18 35 86 c 2
 35 306 l 1
 83 306 l 1
 83 89 l 2
 83 47 100 36 126 36 c 0
 156 36 183 67 183 119 c 2xbc
 183 306 l 1
 231 306 l 1
 231 0 l 1
 194 0 l 1x7c
EndSplineSet
EndChar

StartChar: ucircumflex
Encoding: 251 251 238
Width: 266
VWidth: 659
GlyphClass: 2
Flags: MW
HStem: -7 43<113 126> 0 36 286 20G<35 83 83 83 183 231 231 231> 342 78<61 156 61 156 110 206 110 159> 388 32<133 133>
VStem: 35 48<86 89 89 306> 183 48<119 306 0 306>
LayerCount: 2
Back
Fore
SplineSet
159 342 m 1xb6
 133 388 l 1x6e
 107 342 l 1
 61 342 l 1
 110 420 l 1
 156 420 l 1
 206 342 l 1
 159 342 l 1xb6
194 0 m 1
 188 36 l 1
 185 36 l 1
 168 5 141 -7 111 -7 c 0
 65 -7 35 18 35 86 c 2
 35 306 l 1
 83 306 l 1
 83 89 l 2
 83 47 100 36 126 36 c 0
 156 36 183 67 183 119 c 2xb6
 183 306 l 1
 231 306 l 1
 231 0 l 1
 194 0 l 1
EndSplineSet
EndChar

StartChar: udieresis
Encoding: 252 252 239
Width: 266
VWidth: 659
GlyphClass: 2
Flags: MW
HStem: -7 43<113 126> 0 36 286 20G<35 83 83 83 183 231 231 231> 366 55<63 114 63 114 63 151 151 202>
VStem: 35 48<86 89 89 306> 63 51<366 421> 151 51<366 421> 183 48<119 306>
LayerCount: 2
Back
Fore
SplineSet
114 366 m 1xb6
 63 366 l 1
 63 421 l 1
 114 421 l 1
 114 366 l 1xb6
202 366 m 1
 151 366 l 1
 151 421 l 1
 202 421 l 1
 202 366 l 1
231 0 m 1x75
 194 0 l 1x75
 188 36 l 1
 185 36 l 1
 168 5 141 -7 111 -7 c 0
 65 -7 35 18 35 86 c 2
 35 306 l 1
 83 306 l 1
 83 89 l 2
 83 47 100 36 126 36 c 0
 156 36 183 67 183 119 c 2xb9
 183 306 l 1
 231 306 l 1
 231 0 l 1x75
EndSplineSet
EndChar

StartChar: ugrave
Encoding: 249 249 240
Width: 266
VWidth: 659
GlyphClass: 2
Flags: MW
HStem: -7 43<113 126> 0 36 286 20G<35 83 83 83 183 231 231 231> 344 77<65 168 65 128>
VStem: 35 48<86 89 89 306> 183 48<119 306>
LayerCount: 2
Back
Fore
SplineSet
168 344 m 1xbc
 128 344 l 1
 64 419 l 1
 65 421 l 1
 118 421 l 1
 168 344 l 1xbc
231 0 m 1x7c
 194 0 l 1x7c
 188 36 l 1
 185 36 l 1
 168 5 141 -7 111 -7 c 0
 65 -7 35 18 35 86 c 2
 35 306 l 1
 83 306 l 1
 83 89 l 2
 83 47 100 36 126 36 c 0
 156 36 183 67 183 119 c 2xbc
 183 306 l 1
 231 306 l 1
 231 0 l 1x7c
EndSplineSet
EndChar

StartChar: uhungarumlaut
Encoding: 369 369 241
Width: 266
VWidth: 659
GlyphClass: 2
Flags: MW
HStem: -7 43<113 126> 0 36 286 20G<35 83 83 83 183 231 231 231> 344 77<113 117 77 165 153 153 153 165 189 193>
VStem: 35 48<86 89 89 306> 183 48<119 306>
LayerCount: 2
Back
Fore
SplineSet
166 419 m 1xbc
 117 344 l 1
 77 344 l 1
 113 421 l 1
 165 421 l 1
 166 419 l 1xbc
243 419 m 1
 193 344 l 1
 153 344 l 1
 189 421 l 1
 242 421 l 1
 243 419 l 1
231 0 m 1x7c
 194 0 l 1x7c
 188 36 l 1
 185 36 l 1
 168 5 141 -7 111 -7 c 0
 65 -7 35 18 35 86 c 2
 35 306 l 1
 83 306 l 1
 83 89 l 2
 83 47 100 36 126 36 c 0
 156 36 183 67 183 119 c 2xbc
 183 306 l 1
 231 306 l 1
 231 0 l 1x7c
EndSplineSet
EndChar

StartChar: umacron
Encoding: 363 363 242
Width: 266
VWidth: 659
GlyphClass: 2
Flags: MW
HStem: -7 43<113 126> 0 36 286 20G<35 83 83 83 183 231 231 231> 349 42<60 206 60 206>
VStem: 35 48<86 89 89 306> 183 48<119 306 0 306>
LayerCount: 2
Back
Fore
SplineSet
60 349 m 1xbc
 60 391 l 1
 206 391 l 1
 206 349 l 1
 60 349 l 1xbc
194 0 m 1x7c
 188 36 l 1
 185 36 l 1
 168 5 141 -7 111 -7 c 0
 65 -7 35 18 35 86 c 2
 35 306 l 1
 83 306 l 1
 83 89 l 2
 83 47 100 36 126 36 c 0
 156 36 183 67 183 119 c 2xbc
 183 306 l 1
 231 306 l 1
 231 0 l 1
 194 0 l 1x7c
EndSplineSet
EndChar

StartChar: uogonek
Encoding: 371 371 243
Width: 266
VWidth: 659
GlyphClass: 2
Flags: MW
HStem: -106 38<213.5 262> -7 43<113 126> 286 20G<35 83 83 83 183 231 231 231>
VStem: 35 48<86 89 89 306> 171 46<-44.5 -40.5> 183 48<119 306 0 306>
LayerCount: 2
Back
Fore
SplineSet
243 -68 m 2xf8
 262 -68 l 1
 262 -98 l 1
 249 -103 238 -106 226 -106 c 0
 201 -106 171 -94 171 -53 c 0xf8
 171 -28 182 -11 194 3 c 1
 188 36 l 1
 185 36 l 1
 168 5 141 -7 111 -7 c 0
 65 -7 35 18 35 86 c 2
 35 306 l 1
 83 306 l 1
 83 89 l 2
 83 47 100 36 126 36 c 0
 156 36 183 67 183 119 c 2
 183 306 l 1
 231 306 l 1
 231 0 l 1xf4
 224 -9 217 -22 217 -36 c 0
 217 -53 223 -68 243 -68 c 2xf8
EndSplineSet
EndChar

StartChar: uring
Encoding: 367 367 244
Width: 266
VWidth: 659
GlyphClass: 2
Flags: MW
HStem: -7 43<113 126> 0 36 286 20G<35 83 83 83 183 231 231 231> 328 26<125 140.5 125 148> 413 27<125 140.5>
VStem: 35 48<86 89 89 306> 77 26<376 392 376 399.5> 163 25<376 392> 183 48<119 306 0 306>
LayerCount: 2
Back
Fore
SplineSet
133 440 m 0xbb
 164 440 188 414 188 384 c 0
 188 353 163 328 133 328 c 0
 103 328 77 352 77 384 c 0
 77 415 102 440 133 440 c 0xbb
133 413 m 0
 117 413 103 400 103 384 c 0
 103 368 117 354 133 354 c 0
 148 354 163 368 163 384 c 0
 163 400 148 413 133 413 c 0
194 0 m 1x6c80
 188 36 l 1
 185 36 l 1
 168 5 141 -7 111 -7 c 0
 65 -7 35 18 35 86 c 2
 35 306 l 1
 83 306 l 1
 83 89 l 2
 83 47 100 36 126 36 c 0
 156 36 183 67 183 119 c 2xac80
 183 306 l 1
 231 306 l 1
 231 0 l 1
 194 0 l 1x6c80
EndSplineSet
EndChar

StartChar: utilde
Encoding: 361 361 245
Width: 266
VWidth: 659
GlyphClass: 2
Flags: MW
HStem: -7 43<113 126> 0 36 286 20G<35 83 83 83 183 231 231 231> 360 43<161.5 169.5 158.5 186> 360 61<80.5 82 47 104.5 184 186> 379 42<96 104.5 80.5 106.5>
VStem: 35 48<86 89 89 306> 47 35<360 373.5> 183 48<119 306 0 306>
LayerCount: 2
Back
Fore
SplineSet
218 421 m 1xaa80
 218 394 204 360 168 360 c 0xaa80
 155 360 144 365 133 370 c 0
 123 374 112 379 101 379 c 0xa580
 91 379 83 374 82 360 c 1xa980
 47 360 l 1
 47 387 63 421 98 421 c 0xaa80
 111 421 122 416 133 412 c 0
 143 407 153 403 164 403 c 0xb280
 175 403 183 408 184 421 c 1
 218 421 l 1xaa80
194 0 m 1x6a80
 188 36 l 1
 185 36 l 1
 168 5 141 -7 111 -7 c 0
 65 -7 35 18 35 86 c 2
 35 306 l 1
 83 306 l 1
 83 89 l 2
 83 47 100 36 126 36 c 0
 156 36 183 67 183 119 c 2xaa80
 183 306 l 1
 231 306 l 1
 231 0 l 1
 194 0 l 1x6a80
EndSplineSet
EndChar

StartChar: v
Encoding: 118 118 246
Width: 239
VWidth: 659
GlyphClass: 2
Flags: MW
HStem: 0 21G<94 146 94 94> 0 73<121 123 121 146 94 123> 286 20G<6 58 58 58 185 233 233 233>
VStem: 6 227<306 306>
LayerCount: 2
Back
Fore
SplineSet
146 0 m 1xb0
 94 0 l 1
 6 306 l 1
 58 306 l 1
 100 150 l 2
 102 142 104 135 106 127 c 0
 111 109 115 91 121 73 c 1
 123 73 l 1
 129 98 136 123 143 148 c 2x70
 185 306 l 1
 233 306 l 1
 146 0 l 1xb0
EndSplineSet
EndChar

StartChar: w
Encoding: 119 119 247
Width: 345
VWidth: 659
GlyphClass: 2
Flags: MW
HStem: 0 61<103 106 103 130 77 106 243 244> 61 245<1 106 1 106 1 244 1 244> 245 61<171 173 171 171> 286 20G<1 53 53 53 146 202 202 202 295 344 344 344>
VStem: 1 343<306 306>
AnchorPoint: "Anchor-1" 0 0 basechar 0
AnchorPoint: "Anchor-0" 173 306 basechar 0
LayerCount: 2
Back
Fore
SplineSet
214 0 m 1x98
 183 175 l 2
 177 206 173 245 173 245 c 1
 171 245 l 1
 171 245 167 207 161 175 c 2
 130 0 l 1
 77 0 l 1xa8
 1 306 l 1
 53 306 l 1
 92 134 l 2
 98 109 103 61 103 61 c 1
 106 61 l 1
 106 61 110 103 115 134 c 2
 146 306 l 1
 202 306 l 1
 233 134 l 2
 239 103 243 61 243 61 c 1
 244 61 l 1
 244 61 249 99 257 134 c 2x48
 295 306 l 1
 344 306 l 1
 268 0 l 1
 214 0 l 1x98
EndSplineSet
EndChar

StartChar: wacute
Encoding: 7811 7811 248
Width: 345
VWidth: 659
GlyphClass: 2
Flags: MW
HStem: 0 61<103 106 103 130 77 106 243 244> 61 245<1 106 1 106 1 244 1 244> 245 61<171 173 171 171> 286 20G<1 53 53 53 146 202 202 202 295 344 344 344> 344 77<138 240 138 240>
VStem: 1 343<306 306>
LayerCount: 2
Back
Fore
SplineSet
241 419 m 1x9c
 179 344 l 1
 138 344 l 1
 188 421 l 1
 240 421 l 1
 241 419 l 1x9c
268 0 m 1
 214 0 l 1
 183 175 l 2
 177 206 173 245 173 245 c 1
 171 245 l 1
 171 245 167 207 161 175 c 2
 130 0 l 1
 77 0 l 1xac
 1 306 l 1
 53 306 l 1
 92 134 l 2
 98 109 103 61 103 61 c 1
 106 61 l 1
 106 61 110 103 115 134 c 2
 146 306 l 1
 202 306 l 1
 233 134 l 2
 239 103 243 61 243 61 c 1
 244 61 l 1
 244 61 249 99 257 134 c 2x4c
 295 306 l 1
 344 306 l 1
 268 0 l 1
EndSplineSet
EndChar

StartChar: wcircumflex
Encoding: 373 373 249
Width: 345
VWidth: 659
GlyphClass: 2
Flags: MW
HStem: 0 61<103 106 103 130 77 106 243 244> 61 245<1 106 1 106 1 244 1 244> 245 61<171 173 171 171> 286 20G<1 53 53 53 146 202 202 202 295 344 344 344> 342 78<100 195 100 195 150 245 150 198> 388 32<173 173>
VStem: 1 343<306 306>
LayerCount: 2
Back
Fore
SplineSet
198 342 m 1x9a
 173 388 l 1x96
 146 342 l 1
 100 342 l 1
 150 420 l 1
 195 420 l 1
 245 342 l 1
 198 342 l 1x9a
214 0 m 1
 183 175 l 2
 177 206 173 245 173 245 c 1
 171 245 l 1
 171 245 167 207 161 175 c 2
 130 0 l 1
 77 0 l 1xaa
 1 306 l 1
 53 306 l 1
 92 134 l 2
 98 109 103 61 103 61 c 1
 106 61 l 1
 106 61 110 103 115 134 c 2
 146 306 l 1
 202 306 l 1
 233 134 l 2
 239 103 243 61 243 61 c 1
 244 61 l 1
 244 61 249 99 257 134 c 2x4a
 295 306 l 1
 344 306 l 1
 268 0 l 1
 214 0 l 1
EndSplineSet
EndChar

StartChar: wdieresis
Encoding: 7813 7813 250
Width: 345
VWidth: 659
GlyphClass: 2
Flags: MW
HStem: 0 61<103 106 103 130 77 106 243 244> 61 245<1 106 1 106 1 244 1 244> 245 61<171 173 171 171> 286 20G<1 53 53 53 146 202 202 202 295 344 344 344> 366 55<103 154 103 154 103 190 190 242>
VStem: 103 51<366 421> 190 52<366 421>
LayerCount: 2
Back
Fore
SplineSet
154 366 m 1x9e
 103 366 l 1
 103 421 l 1
 154 421 l 1
 154 366 l 1x9e
242 366 m 1
 190 366 l 1
 190 421 l 1
 242 421 l 1
 242 366 l 1
268 0 m 1
 214 0 l 1
 183 175 l 2
 177 206 173 245 173 245 c 1
 171 245 l 1
 171 245 167 207 161 175 c 2
 130 0 l 1
 77 0 l 1xae
 1 306 l 1
 53 306 l 1
 92 134 l 2
 98 109 103 61 103 61 c 1
 106 61 l 1
 106 61 110 103 115 134 c 2
 146 306 l 1
 202 306 l 1
 233 134 l 2
 239 103 243 61 243 61 c 1
 244 61 l 1
 244 61 249 99 257 134 c 2x4e
 295 306 l 1
 344 306 l 1
 268 0 l 1
EndSplineSet
EndChar

StartChar: wgrave
Encoding: 7809 7809 251
Width: 345
VWidth: 659
GlyphClass: 2
Flags: MW
HStem: 0 61<103 106 103 130 77 106 243 244> 61 245<1 106 1 106 1 244 1 244> 245 61<171 173 171 171> 286 20G<1 53 53 53 146 202 202 202 295 344 344 344> 344 77<104 207 104 167>
VStem: 1 343<306 306>
LayerCount: 2
Back
Fore
SplineSet
207 344 m 1x9c
 167 344 l 1
 103 419 l 1
 104 421 l 1
 158 421 l 1
 207 344 l 1x9c
268 0 m 1
 214 0 l 1
 183 175 l 2
 177 206 173 245 173 245 c 1
 171 245 l 1
 171 245 167 207 161 175 c 2
 130 0 l 1
 77 0 l 1xac
 1 306 l 1
 53 306 l 1
 92 134 l 2
 98 109 103 61 103 61 c 1
 106 61 l 1
 106 61 110 103 115 134 c 2
 146 306 l 1
 202 306 l 1
 233 134 l 2
 239 103 243 61 243 61 c 1
 244 61 l 1
 244 61 249 99 257 134 c 2x4c
 295 306 l 1
 344 306 l 1
 268 0 l 1
EndSplineSet
EndChar

StartChar: x
Encoding: 120 120 252
Width: 239
VWidth: 659
GlyphClass: 2
Flags: MW
HStem: 0 21G<3 56 3 3 178 235 178 178> 286 20G<7 65 65 65 178 231 231 231>
VStem: 3 232<0 0>
LayerCount: 2
Back
Fore
SplineSet
235 0 m 1
 178 0 l 1
 118 113 l 1
 56 0 l 1
 3 0 l 1
 93 155 l 1
 7 306 l 1
 65 306 l 1
 121 201 l 1
 178 306 l 1
 231 306 l 1
 146 159 l 1
 235 0 l 1
EndSplineSet
EndChar

StartChar: y
Encoding: 121 121 253
Width: 239
VWidth: 659
GlyphClass: 2
Flags: MW
HStem: -106 38<50 52 22 83.5> 286 20G<6 58 58 58 185 233 233 233>
VStem: 6 227<306 306>
AnchorPoint: "Anchor-1" 0 0 basechar 0
AnchorPoint: "Anchor-0" 119 306 basechar 0
LayerCount: 2
Back
Fore
SplineSet
156 16 m 2
 138 -51 110 -106 57 -106 c 0
 43 -106 32 -105 22 -101 c 1
 22 -68 l 1
 39 -68 l 2
 65 -68 88 -53 100 0 c 1
 6 306 l 1
 58 306 l 1
 103 149 l 2
 107 134 112 119 116 104 c 0
 119 93 122 81 126 69 c 1
 128 69 l 1
 134 96 141 122 148 148 c 2
 185 306 l 1
 233 306 l 1
 156 16 l 2
EndSplineSet
EndChar

StartChar: yacute
Encoding: 253 253 254
Width: 239
VWidth: 659
GlyphClass: 2
Flags: MW
HStem: -106 38<50 52 22 83.5> 286 20G<6 58 58 58 185 233 233 233> 344 77<85 187 85 187>
VStem: 6 227<306 306>
LayerCount: 2
Back
Fore
SplineSet
188 419 m 1
 125 344 l 1
 85 344 l 1
 134 421 l 1
 187 421 l 1
 188 419 l 1
156 16 m 2
 138 -51 110 -106 57 -106 c 0
 43 -106 32 -105 22 -101 c 1
 22 -68 l 1
 39 -68 l 2
 65 -68 88 -53 100 0 c 1
 6 306 l 1
 58 306 l 1
 103 149 l 2
 107 134 112 119 116 104 c 0
 119 93 122 81 126 69 c 1
 128 69 l 1
 134 96 141 122 148 148 c 2
 185 306 l 1
 233 306 l 1
 156 16 l 2
EndSplineSet
EndChar

StartChar: ycircumflex
Encoding: 375 375 255
Width: 239
VWidth: 659
GlyphClass: 2
Flags: MW
HStem: -106 38<50 52 22 83.5> 286 20G<6 58 58 58 185 233 233 233> 342 78<47 143 47 143 98 192 98 146> 388 32<120 120>
VStem: 6 227<306 306>
LayerCount: 2
Back
Fore
SplineSet
146 342 m 1xe8
 120 388 l 1xd8
 94 342 l 1
 47 342 l 1
 98 420 l 1
 143 420 l 1
 192 342 l 1
 146 342 l 1xe8
156 16 m 2
 138 -51 110 -106 57 -106 c 0
 43 -106 32 -105 22 -101 c 1
 22 -68 l 1
 39 -68 l 2
 65 -68 88 -53 100 0 c 1
 6 306 l 1
 58 306 l 1
 103 149 l 2
 107 134 112 119 116 104 c 0
 119 93 122 81 126 69 c 1
 128 69 l 1
 134 96 141 122 148 148 c 2
 185 306 l 1
 233 306 l 1
 156 16 l 2
EndSplineSet
EndChar

StartChar: ydieresis
Encoding: 255 255 256
Width: 239
VWidth: 659
GlyphClass: 2
Flags: MW
HStem: -106 38<50 52 22 83.5> 286 20G<6 58 58 58 185 233 233 233> 366 55<50 101 50 101 50 138 138 188>
VStem: 50 51<366 421> 138 50<366 421>
LayerCount: 2
Back
Fore
SplineSet
101 366 m 1
 50 366 l 1
 50 421 l 1
 101 421 l 1
 101 366 l 1
188 366 m 1
 138 366 l 1
 138 421 l 1
 188 421 l 1
 188 366 l 1
156 16 m 2
 138 -51 110 -106 57 -106 c 0
 43 -106 32 -105 22 -101 c 1
 22 -68 l 1
 39 -68 l 2
 65 -68 88 -53 100 0 c 1
 6 306 l 1
 58 306 l 1
 103 149 l 2
 107 134 112 119 116 104 c 0
 119 93 122 81 126 69 c 1
 128 69 l 1
 134 96 141 122 148 148 c 2
 185 306 l 1
 233 306 l 1
 156 16 l 2
EndSplineSet
EndChar

StartChar: ygrave
Encoding: 7923 7923 257
Width: 239
VWidth: 659
GlyphClass: 2
Flags: MW
HStem: -106 38<50 52 22 83.5> 286 20G<6 58 58 58 185 233 233 233> 344 77<51 154 51 114>
VStem: 6 227<306 306>
LayerCount: 2
Back
Fore
SplineSet
154 344 m 1
 114 344 l 1
 51 419 l 1
 51 421 l 1
 104 421 l 1
 154 344 l 1
156 16 m 2
 138 -51 110 -106 57 -106 c 0
 43 -106 32 -105 22 -101 c 1
 22 -68 l 1
 39 -68 l 2
 65 -68 88 -53 100 0 c 1
 6 306 l 1
 58 306 l 1
 103 149 l 2
 107 134 112 119 116 104 c 0
 119 93 122 81 126 69 c 1
 128 69 l 1
 134 96 141 122 148 148 c 2
 185 306 l 1
 233 306 l 1
 156 16 l 2
EndSplineSet
EndChar

StartChar: z
Encoding: 122 122 258
Width: 239
VWidth: 659
GlyphClass: 2
Flags: MW
HStem: 0 43<80 223 80 223> 264 42<24 150 24 215>
VStem: 15 208<0 22 22 22> 24 191<284 306 284 306 284 306>
AnchorPoint: "Anchor-1" 0 0 basechar 0
AnchorPoint: "Anchor-0" 119 306 basechar 0
LayerCount: 2
Back
Fore
SplineSet
80 43 m 1xe0
 223 43 l 1
 223 0 l 1
 15 0 l 1
 15 22 l 1xe0
 150 264 l 1
 24 264 l 1
 24 306 l 1
 215 306 l 1
 215 284 l 1xd0
 80 43 l 1xe0
EndSplineSet
EndChar

StartChar: zacute
Encoding: 378 378 259
Width: 239
VWidth: 659
GlyphClass: 2
Flags: MW
HStem: 0 43<80 223 80 223> 264 42<24 150 24 215> 344 77<85 187 85 187>
VStem: 15 208<0 22 22 22>
LayerCount: 2
Back
Fore
SplineSet
188 419 m 1
 125 344 l 1
 85 344 l 1
 134 421 l 1
 187 421 l 1
 188 419 l 1
215 284 m 1
 80 43 l 1
 223 43 l 1
 223 0 l 1
 15 0 l 1
 15 22 l 1
 150 264 l 1
 24 264 l 1
 24 306 l 1
 215 306 l 1
 215 284 l 1
EndSplineSet
EndChar

StartChar: zcaron
Encoding: 382 382 260
Width: 239
VWidth: 659
GlyphClass: 2
Flags: MW
HStem: 0 43<80 223 80 223> 264 42<24 150 24 215> 343 78<47 97 47 142>
VStem: 15 208<0 22 22 22> 24 191<284 306 284 306 284 306>
LayerCount: 2
Back
Fore
SplineSet
97 343 m 1xf0
 47 421 l 1
 94 421 l 1
 119 375 l 1
 146 421 l 1
 192 421 l 1
 142 343 l 1
 97 343 l 1xf0
80 43 m 1
 223 43 l 1
 223 0 l 1
 15 0 l 1
 15 22 l 1xf0
 150 264 l 1
 24 264 l 1
 24 306 l 1
 215 306 l 1
 215 284 l 1xe8
 80 43 l 1
EndSplineSet
EndChar

StartChar: zdotaccent
Encoding: 380 380 261
Width: 239
VWidth: 659
GlyphClass: 2
Flags: MW
HStem: 0 43<80 223 80 223> 264 42<24 150 24 215> 366 55<94 145 94 145>
VStem: 15 208<0 22 22 22> 24 191<284 306 284 306 284 306> 94 51<366 421 366 421>
LayerCount: 2
Back
Fore
SplineSet
94 366 m 1xe4
 94 421 l 1
 145 421 l 1
 145 366 l 1
 94 366 l 1xe4
80 43 m 1
 223 43 l 1
 223 0 l 1
 15 0 l 1
 15 22 l 1xf0
 150 264 l 1
 24 264 l 1
 24 306 l 1
 215 306 l 1
 215 284 l 1xe8
 80 43 l 1
EndSplineSet
EndChar

StartChar: uniFB01
Encoding: 64257 64257 262
Width: 239
VWidth: 659
GlyphClass: 3
Flags: MW
HStem: 0 21G<32 80 32 32 162 210 162 162> 264 42<5 32 5 32 80 133> 364 57<162 210 162 210> 386 35<107 210> 386 40<98 100 69.5 107 69.5 133>
VStem: 32 48<0 264 0 264 306 355 355 358> 162 48<0 306 0 306 364 421>
LayerCount: 2
Back
Fore
SplineSet
93 426 m 0xce
 107 426 123 422 133 419 c 1xce
 133 386 l 1
 107 386 l 2
 89 386 80 376 80 358 c 2xd6
 80 306 l 1
 133 306 l 1
 133 264 l 1
 80 264 l 1
 80 0 l 1
 32 0 l 1
 32 264 l 1
 5 264 l 1
 5 306 l 1
 32 306 l 1
 32 355 l 2
 32 390 46 426 93 426 c 0xce
162 364 m 1xe6
 162 421 l 1
 210 421 l 1
 210 364 l 1
 162 364 l 1xe6
162 0 m 1
 162 306 l 1
 210 306 l 1
 210 0 l 1
 162 0 l 1
EndSplineSet
Ligature2: "'liga' Standard Ligatures lookup 15 subtable" f i
EndChar

StartChar: uniFB02
Encoding: 64258 64258 263
Width: 239
VWidth: 659
GlyphClass: 3
Flags: MW
HStem: 0 21G<32 80 32 32 162 210 162 162> 264 42<5 32 5 32 80 133> 386 35<107 210> 386 40<98 100 69.5 107 69.5 133>
VStem: 32 48<0 264 0 264 306 355 355 358> 162 48<0 421 0 421>
LayerCount: 2
Back
Fore
SplineSet
93 426 m 0xdc
 107 426 123 422 133 419 c 1xdc
 133 386 l 1
 107 386 l 2
 89 386 80 376 80 358 c 2xec
 80 306 l 1
 133 306 l 1
 133 264 l 1
 80 264 l 1
 80 0 l 1
 32 0 l 1
 32 264 l 1
 5 264 l 1
 5 306 l 1
 32 306 l 1
 32 355 l 2
 32 390 46 426 93 426 c 0xdc
162 0 m 1xec
 162 421 l 1
 210 421 l 1
 210 0 l 1
 162 0 l 1xec
EndSplineSet
Ligature2: "'liga' Standard Ligatures lookup 15 subtable" f l
EndChar

StartChar: ordfeminine
Encoding: 170 170 264
Width: 177
VWidth: 659
GlyphClass: 2
Flags: MW
HStem: 211 31<65.5 77.5> 309 31<96 116> 398 30<73.5 97>
VStem: 12 35<260.5 287.5 260.5 299> 20 34<360 366 360 370 360 389.5> 116 34<291 309 309 309 340 365 365 370>
LayerCount: 2
Back
Fore
SplineSet
160 242 m 2xf4
 173 242 l 1
 173 218 l 1
 169 215 161 213 152 213 c 0
 135 213 123 222 118 237 c 1
 107 220 88 211 67 211 c 0
 46 211 12 219 12 270 c 0xf4
 12 328 56 340 116 340 c 1
 116 365 l 2
 116 384 109 398 85 398 c 0
 62 398 54 382 54 366 c 2
 54 360 l 1
 20 360 l 1
 20 370 l 2xec
 20 409 47 428 87 428 c 0
 129 428 150 407 150 370 c 2
 150 254 l 2
 150 245 156 242 160 242 c 2xf4
116 291 m 2
 116 309 l 1
 76 309 47 303 47 272 c 0
 47 249 57 242 74 242 c 0
 94 242 116 258 116 291 c 2
EndSplineSet
EndChar

StartChar: ordmasculine
Encoding: 186 186 265
Width: 174
VWidth: 659
GlyphClass: 2
Flags: MW
HStem: 210 31<74 100 74 111.5> 397 31<74 100>
VStem: 13 35<288.5 312 312 327 288.5 356.5> 126 35<312 327 327 350.5>
LayerCount: 2
Back
Fore
SplineSet
87 428 m 0
 136 428 161 394 161 319 c 0
 161 244 136 210 87 210 c 0
 38 210 13 244 13 319 c 0
 13 394 38 428 87 428 c 0
87 397 m 0
 61 397 48 374 48 327 c 2
 48 312 l 2
 48 265 61 241 87 241 c 0
 113 241 126 265 126 312 c 2
 126 327 l 2
 126 374 113 397 87 397 c 0
EndSplineSet
EndChar

StartChar: uni207F
Encoding: 8319 8319 266
Width: 174
VWidth: 659
GlyphClass: 2
Flags: MW
HStem: 380 20G<52 52> 397 27 397 31<92.5 100.5>
VStem: 20 35<215 342 215 424> 120 34<215 362 362 364 215 375.5>
LayerCount: 2
Back
Fore
SplineSet
103 428 m 0x38
 134 428 154 411 154 364 c 2x38
 154 215 l 1
 120 215 l 1
 120 362 l 2
 120 389 109 397 92 397 c 0
 72 397 55 377 55 342 c 2
 55 215 l 1
 20 215 l 1
 20 424 l 1
 47 424 l 1x58
 52 400 l 1x98
 63 420 82 428 103 428 c 0x38
EndSplineSet
EndChar

StartChar: Delta
Encoding: 916 916 267
Width: 326
VWidth: 659
GlyphClass: 2
Flags: MW
HStem: 0 49<68 254 68 319> 343 56<161 161 161 163> 379 20G<131 197 197 197>
VStem: 9 310<0 22 0 22>
LayerCount: 2
Back
Fore
SplineSet
319 22 m 1xb0
 319 0 l 1
 9 0 l 1
 9 22 l 1
 131 399 l 1
 197 399 l 1
 319 22 l 1xb0
161 343 m 1xd0
 68 49 l 1
 254 49 l 1
 163 343 l 1
 161 343 l 1xd0
EndSplineSet
Substitution2: "'mgrk' Mathematical Greek lookup 40 subtable" uni2206
Substitution2: "'aalt' Access All Alternates lookup 0 subtable" uni2206
Position2: "'cpsp' Capital Spacing lookup 0 subtable" dx=5 dy=0 dh=10 dv=0
EndChar

StartChar: Omega
Encoding: 937 937 268
Width: 447
VWidth: 659
GlyphClass: 2
Flags: MW
HStem: 0 49<67 81 81 83 67 204 67 81 366 381> 359 48<191 255.5>
VStem: 67 53<166 178 178 214 136 269.5> 328 53<175 214 214 263>
LayerCount: 2
Back
Fore
SplineSet
223 407 m 0
 322 407 381 339 381 200 c 0
 381 132 361 81 327 47 c 1
 333 47 339 47 345 48 c 0
 352 48 359 49 366 49 c 2
 381 49 l 1
 381 0 l 1
 243 0 l 1
 243 36 l 1
 295 47 328 93 328 175 c 2
 328 214 l 2
 328 312 288 359 223 359 c 0
 159 359 120 312 120 214 c 2
 120 178 l 2
 120 94 152 47 204 36 c 1
 204 0 l 1
 67 0 l 1
 67 49 l 1
 81 49 l 2
 85 49 89 49 95 48 c 0
 102 48 110 47 120 47 c 1
 86 81 67 132 67 200 c 0
 67 339 126 407 223 407 c 0
EndSplineSet
Substitution2: "'mgrk' Mathematical Greek lookup 40 subtable" uni2126
Substitution2: "'aalt' Access All Alternates lookup 0 subtable" uni2126
Position2: "'cpsp' Capital Spacing lookup 0 subtable" dx=5 dy=0 dh=10 dv=0
EndChar

StartChar: mu
Encoding: 956 956 269
Width: 266
VWidth: 659
GlyphClass: 2
Flags: MW
HStem: -7 43<113.5 126> -3 21G<83 83> 0 36 286 20G<35 83 83 83 183 231 231 231>
VStem: 35 48<-101 -3 64 83 83 306> 183 48<119 306 0 306>
LayerCount: 2
Back
Fore
SplineSet
194 0 m 1x3c
 188 36 l 1
 185 36 l 1
 168 5 141 -7 111 -7 c 0x9c
 100 -7 91 -6 83 -3 c 1
 83 -101 l 1
 35 -101 l 1x5c
 35 306 l 1
 83 306 l 1
 83 83 l 2
 83 45 101 36 126 36 c 0
 156 36 183 67 183 119 c 2x9c
 183 306 l 1
 231 306 l 1
 231 0 l 1
 194 0 l 1x3c
EndSplineSet
Substitution2: "'mgrk' Mathematical Greek lookup 40 subtable" uni00B5
Substitution2: "'aalt' Access All Alternates lookup 0 subtable" uni00B5
EndChar

StartChar: pi
Encoding: 960 960 270
Width: 324
VWidth: 659
GlyphClass: 2
Flags: MW
HStem: 0 21G<39 86 39 39 224 271 224 224> 264 42<59.5 314 124 215 124 124 264 309 264 264>
VStem: 76 48<264 264> 215 49<86 91 91 264>
LayerCount: 2
Back
Fore
SplineSet
264 264 m 1
 264 91 l 2
 264 43 266 18 271 0 c 1
 224 0 l 1
 219 9 215 39 215 86 c 2
 215 264 l 1
 124 264 l 1
 121 188 105 52 86 0 c 1
 39 0 l 1
 58 62 74 188 76 264 c 1
 43 264 26 262 14 256 c 1
 7 289 l 1
 20 300 46 306 92 306 c 2
 314 306 l 1
 309 264 l 1
 264 264 l 1
EndSplineSet
EndChar

StartChar: uni0904
Encoding: 2308 2308 271
Width: 389
VWidth: 659
GlyphClass: 2
Flags: MW
HStem: 0 21G<297 344 297 297> 34 42<108.5 140.5 108.5 155.5> 159 43<227 297 227 227> 203 41<96 123 96 124> 357 42<245 296 245 297 245 296 344 395> 365 42<113 139> 462 42<128 266 155 266>
VStem: 25 49<116 129.5> 32 48<302 344.5> 78 48<530 545 521 545> 172 49<299 317 279.5 333> 178 49<131 150 150 159 101 169> 297 47<0 159 159 159 202 357 0 357>
AnchorPoint: "Anchor-7" 320 0 basechar 0
AnchorPoint: "Anchor-6" 203 0 basechar 0
AnchorPoint: "Anchor-5" 13 33 basechar 0
AnchorPoint: "Anchor-3" 320 399 basechar 0
AnchorPoint: "Anchor-2" 194 399 basechar 0
LayerCount: 2
Back
Fore
SplineSet
344 399 m 1xea68
 395 399 l 1
 395 357 l 1
 344 357 l 1
 344 0 l 1
 297 0 l 1
 297 159 l 1
 227 159 l 1xea58
 227 131 l 2
 227 71 186 34 125 34 c 0
 62 34 25 74 25 127 c 0
 25 132 25 136 26 139 c 0
 26 140 26 141 26 142 c 2
 74 142 l 1
 74 135 l 2
 74 97 92 76 125 76 c 0
 156 76 177 96 178 131 c 2
 178 150 l 2
 178 188 154 203 123 203 c 2
 96 203 l 1
 96 244 l 1xdb18
 124 244 l 2
 152 244 172 263 172 299 c 2
 172 317 l 2
 172 349 152 365 126 365 c 0
 100 365 80 347 80 308 c 2
 80 302 l 1
 33 302 l 2
 32 305 32 310 32 318 c 0
 32 371 71 407 129 407 c 0
 184 407 221 374 221 317 c 2xd6a8
 221 299 l 2
 221 260 206 240 187 227 c 1
 187 225 l 1
 198 221 207 213 214 202 c 1
 297 202 l 1
 297 357 l 1
 245 357 l 1
 245 399 l 1
 296 399 l 1
 296 436 l 2
 296 454 287 462 266 462 c 2
 155 462 l 2
 101 462 78 482 78 530 c 2
 78 545 l 1
 126 545 l 1
 126 530 l 2
 126 512 134 504 155 504 c 2
 266 504 l 2
 321 504 344 484 344 436 c 2
 344 399 l 1xea68
EndSplineSet
EndChar

StartChar: uni0972
Encoding: 2418 2418 272
Width: 389
VWidth: 659
GlyphClass: 2
Flags: MW
HStem: 0 21G<297 344 297 297> 34 42<108.5 140.5 108.5 155.5> 159 43<227 297 227 227> 203 41<96 123 96 124> 357 42<245 297 245 395 344 395 344 344> 365 42<113 139> 437 37<181.5 208 181.5 223.5>
VStem: 25 49<116 129.5> 32 48<302 344.5> 101 46<509 527 509 527> 172 49<299 317 279.5 333> 178 49<131 150 150 159 101 169> 242 46<509 527> 297 47<0 159 159 159 202 357 0 357>
AnchorPoint: "Anchor-7" 320 0 basechar 0
AnchorPoint: "Anchor-6" 203 0 basechar 0
AnchorPoint: "Anchor-5" 13 33 basechar 0
AnchorPoint: "Anchor-3" 320 399 basechar 0
AnchorPoint: "Anchor-2" 194 399 basechar 0
LayerCount: 2
Back
Fore
SplineSet
288 527 m 1xeaec
 288 474 253 437 194 437 c 0
 136 437 101 474 101 527 c 1
 147 527 l 1
 147 491 169 474 194 474 c 0
 222 474 242 491 242 527 c 1
 288 527 l 1xeaec
395 399 m 1xeaa4
 395 357 l 1
 344 357 l 1
 344 0 l 1
 297 0 l 1
 297 159 l 1
 227 159 l 1xea94
 227 131 l 2
 227 71 186 34 125 34 c 0
 62 34 25 74 25 127 c 0
 25 132 25 136 26 139 c 0
 26 140 26 141 26 142 c 2
 74 142 l 1
 74 135 l 2
 74 97 92 76 125 76 c 0
 156 76 177 96 178 131 c 2
 178 150 l 2
 178 188 154 203 123 203 c 2
 96 203 l 1
 96 244 l 1xdb14
 124 244 l 2
 152 244 172 263 172 299 c 2
 172 317 l 2
 172 349 152 365 126 365 c 0
 100 365 80 347 80 308 c 2
 80 302 l 1
 33 302 l 2
 32 305 32 310 32 318 c 0
 32 371 71 407 129 407 c 0
 184 407 221 374 221 317 c 2xd6a4
 221 299 l 2
 221 260 206 240 187 227 c 1
 187 225 l 1
 198 221 207 213 214 202 c 1
 297 202 l 1
 297 357 l 1
 245 357 l 1
 245 399 l 1
 395 399 l 1xeaa4
EndSplineSet
EndChar

StartChar: uni0905
Encoding: 2309 2309 273
Width: 389
VWidth: 659
GlyphClass: 2
Flags: MW
HStem: 0 21G<297 344 297 297> 34 42<108.5 140.5 108.5 155.5> 159 43<227 297 227 227> 203 41<96 123 96 124> 357 42<245 297 245 395 344 395 344 344> 365 42<113 139>
VStem: 25 49<116 129.5> 32 48<302 344.5> 172 49<299 317 279.5 333> 178 49<131 150 150 159 101 169> 297 47<0 159 159 159 202 357 0 357>
AnchorPoint: "Anchor-7" 320 0 basechar 0
AnchorPoint: "Anchor-6" 203 0 basechar 0
AnchorPoint: "Anchor-5" 13 33 basechar 0
AnchorPoint: "Anchor-3" 320 399 basechar 0
AnchorPoint: "Anchor-2" 194 399 basechar 0
LayerCount: 2
Back
Fore
SplineSet
395 399 m 1xe9a0
 395 357 l 1
 344 357 l 1
 344 0 l 1
 297 0 l 1
 297 159 l 1
 227 159 l 1xe960
 227 131 l 2
 227 71 186 34 125 34 c 0
 62 34 25 74 25 127 c 0
 25 132 25 136 26 139 c 0
 26 140 26 141 26 142 c 2
 74 142 l 1
 74 135 l 2
 74 97 92 76 125 76 c 0
 156 76 177 96 178 131 c 2
 178 150 l 2
 178 188 154 203 123 203 c 2
 96 203 l 1
 96 244 l 1xda60
 124 244 l 2
 152 244 172 263 172 299 c 2
 172 317 l 2
 172 349 152 365 126 365 c 0
 100 365 80 347 80 308 c 2
 80 302 l 1
 33 302 l 2
 32 305 32 310 32 318 c 0
 32 371 71 407 129 407 c 0
 184 407 221 374 221 317 c 2xd5a0
 221 299 l 2
 221 260 206 240 187 227 c 1
 187 225 l 1
 198 221 207 213 214 202 c 1
 297 202 l 1
 297 357 l 1
 245 357 l 1
 245 399 l 1
 395 399 l 1xe9a0
EndSplineSet
EndChar

StartChar: uni0906
Encoding: 2310 2310 274
Width: 533
VWidth: 659
GlyphClass: 2
Flags: MW
HStem: 0 21G<297 344 297 297 437 485 437 437> 34 42<108.5 140.5 108.5 155.5> 159 43<227 297 227 227> 203 41<96 123 96 124> 357 42<245 297 245 540 344 437 344 344 485 540 485 485> 365 42<113 139>
VStem: 25 49<116 129.5> 32 48<302 344.5> 172 49<299 317 279.5 333> 178 49<131 150 150 159 101 169> 297 47<0 159 159 159 202 357 0 357> 437 48<0 357 0 357>
AnchorPoint: "Anchor-7" 461 0 basechar 0
AnchorPoint: "Anchor-6" 203 0 basechar 0
AnchorPoint: "Anchor-5" 13 33 basechar 0
AnchorPoint: "Anchor-3" 461 399 basechar 0
AnchorPoint: "Anchor-2" 267 399 basechar 0
LayerCount: 2
Back
Fore
SplineSet
540 399 m 1xe9b0
 540 357 l 1
 485 357 l 1
 485 0 l 1
 437 0 l 1
 437 357 l 1
 344 357 l 1
 344 0 l 1
 297 0 l 1
 297 159 l 1
 227 159 l 1xe970
 227 131 l 2
 227 71 186 34 125 34 c 0
 62 34 25 74 25 127 c 0
 25 132 25 136 26 139 c 0
 26 140 26 141 26 142 c 2
 74 142 l 1
 74 135 l 2
 74 97 92 76 125 76 c 0
 156 76 177 96 178 131 c 2
 178 150 l 2
 178 188 154 203 123 203 c 2
 96 203 l 1
 96 244 l 1xda70
 124 244 l 2
 152 244 172 263 172 299 c 2
 172 317 l 2
 172 349 152 365 126 365 c 0
 100 365 80 347 80 308 c 2
 80 302 l 1
 33 302 l 2
 32 305 32 310 32 318 c 0
 32 371 71 407 129 407 c 0
 184 407 221 374 221 317 c 2xd5b0
 221 299 l 2
 221 260 206 240 187 227 c 1
 187 225 l 1
 198 221 207 213 214 202 c 1
 297 202 l 1
 297 357 l 1
 245 357 l 1
 245 399 l 1
 540 399 l 1xe9b0
EndSplineSet
EndChar

StartChar: uni0907
Encoding: 2311 2311 275
Width: 274
VWidth: 659
GlyphClass: 2
Flags: MW
HStem: 26 42<140 160.5 131.5 179.5> 151 43<127 129 129 148> 257 42<118.5 181 131 181 131 229> 357 42<-7 181 -7 281 229 229 229 281>
VStem: 40 50<214.5 235 214.5 251.5> 46 48<-24 40 101 119 119 125> 181 48<299 357 257 357> 196 50<98 126>
AnchorPoint: "Anchor-7" 101 0 basechar 0
AnchorPoint: "Anchor-6" 0 0 basechar 0
AnchorPoint: "Anchor-5" 0 0 basechar 0
AnchorPoint: "Anchor-3" 204 399 basechar 0
AnchorPoint: "Anchor-2" 0 0 basechar 0
LayerCount: 2
Back
Fore
SplineSet
129 257 m 2xfa
 108 257 90 246 90 224 c 0
 90 205 103 194 127 194 c 2xf9
 152 194 l 2
 212 194 246 165 246 112 c 0
 246 55 207 26 152 26 c 0
 128 26 109 31 94 40 c 1
 94 -24 l 1
 46 -24 l 1
 46 125 l 1
 94 125 l 1
 94 119 l 2
 94 83 117 68 146 68 c 0
 175 68 196 83 196 113 c 0
 196 139 179 151 148 151 c 2xf5
 129 151 l 2
 70 151 40 179 40 225 c 0
 40 278 78 299 131 299 c 2
 181 299 l 1
 181 357 l 1
 -7 357 l 1
 -7 399 l 1
 281 399 l 1
 281 357 l 1
 229 357 l 1
 229 257 l 1
 129 257 l 2xfa
EndSplineSet
EndChar

StartChar: uni0908
Encoding: 2312 2312 276
Width: 274
VWidth: 659
GlyphClass: 2
Flags: MW
HStem: 26 42<140 160.5 131.5 179.5> 151 43<127 129 129 148> 257 42<118.5 181 131 181 131 229> 357 42<-7 172 -7 181 -7 172 229 229 229 281> 502 43<219 259 219 257>
VStem: 40 50<214.5 235 214.5 251.5> 46 48<-24 40 101 119 119 125> 152 48<454.5 469 445.5 488.5> 181 48<299 357 257 357> 196 50<98 126>
AnchorPoint: "Anchor-7" 101 0 basechar 0
AnchorPoint: "Anchor-6" 0 0 basechar 0
AnchorPoint: "Anchor-5" 0 0 basechar 0
AnchorPoint: "Anchor-3" 204 399 basechar 0
AnchorPoint: "Anchor-2" 0 0 basechar 0
LayerCount: 2
Back
Fore
SplineSet
129 257 m 2xfc80
 108 257 90 246 90 224 c 0
 90 205 103 194 127 194 c 2xfc40
 152 194 l 2
 212 194 246 165 246 112 c 0
 246 55 207 26 152 26 c 0
 128 26 109 31 94 40 c 1
 94 -24 l 1
 46 -24 l 1
 46 125 l 1
 94 125 l 1
 94 119 l 2
 94 83 117 68 146 68 c 0
 175 68 196 83 196 113 c 0
 196 139 179 151 148 151 c 2xfa40
 129 151 l 2
 70 151 40 179 40 225 c 0
 40 278 78 299 131 299 c 2
 181 299 l 1
 181 357 l 1xfc80
 -7 357 l 1
 -7 399 l 1
 172 399 l 1
 158 422 152 444 152 465 c 0
 152 512 192 545 246 545 c 0
 250 545 257 545 259 544 c 2
 259 502 l 1
 257 502 l 2
 220 501 200 484 200 454 c 0
 200 437 205 420 217 399 c 1
 281 399 l 1
 281 357 l 1xfd
 229 357 l 1
 229 257 l 1
 129 257 l 2xfc80
EndSplineSet
EndChar

